<?xml version="1.0" encoding="utf-8"?>
<!-- Generator: Adobe Illustrator 24.1.2, SVG Export Plug-In . SVG Version: 6.00 Build 0)  -->
<svg version="1.1" id="Layer_1" xmlns="http://www.w3.org/2000/svg" xmlns:xlink="http://www.w3.org/1999/xlink" x="0px" y="0px"
	 viewBox="0 0 162 216" style="enable-background:new 0 0 162 216;" xml:space="preserve">
<style type="text/css">
	.st0{fill:none;}
	.st1{font-family:'Martel-Heavy';}
	.st2{font-size:24px;}
</style>
<rect x="36.5" y="97.48" class="st0" width="89" height="21.04"/>
<text transform="matrix(1 0 0 1 41.5685 116.5864)" class="st1 st2">NEWS</text>
<g id="Stars">
	<path d="M18.05,12.14l1.58,4.49h4.75l-3.7,2.91l1.32,4.49l-3.96-2.64l-3.96,2.64l1.32-4.49l-3.7-2.91h4.75L18.05,12.14z"/>
	<path d="M143.75,12.14l1.58,4.49h4.75l-3.7,2.91l1.32,4.49l-3.96-2.64l-3.96,2.64l1.32-4.49l-3.7-2.91h4.75L143.75,12.14z"/>
	<path d="M18.05,193.84l1.58,4.49h4.75l-3.7,2.91l1.32,4.49l-3.96-2.64l-3.96,2.64l1.32-4.49l-3.7-2.91h4.75L18.05,193.84z"/>
	<path d="M143.75,193.84l1.58,4.49h4.75l-3.7,2.91l1.32,4.49l-3.96-2.64l-3.96,2.64l1.32-4.49l-3.7-2.91h4.75L143.75,193.84z"/>
</g>
</svg>
