<?xml version="1.0" encoding="utf-8"?>
<!-- Generator: Adobe Illustrator 24.1.2, SVG Export Plug-In . SVG Version: 6.00 Build 0)  -->
<svg version="1.1" xmlns="http://www.w3.org/2000/svg" xmlns:xlink="http://www.w3.org/1999/xlink" x="0px" y="0px"
	 viewBox="0 0 2592 2592" style="enable-background:new 0 0 2592 2592;" xml:space="preserve">
<style type="text/css">
	.st0{fill:#FFFFFF;stroke:#000000;stroke-miterlimit:10;}
	.st1{fill:none;stroke:#000000;stroke-width:2;stroke-miterlimit:10;}
	.st2{fill:#97D4C6;stroke:#000000;stroke-width:2;stroke-miterlimit:10;}
</style>
<g id="Vector">
	<g id="Border">
		<rect id="White_Border" x="0.66" class="st0" width="2592" height="2592"/>
		<rect id="Outer_Border" x="10.1" y="9.44" class="st1" width="2573.11" height="2573.11"/>
		<g id="Left_Index">
			<g>
				<g>
					<path d="M38.67,109.64L14.19,99.02v-0.26l24.48-10.62v5.38l-17.22,6.78l-2.3-3.36l19.52,8.13V109.64z M30.16,102.38v-7.07
						l3.9-1.63v10.14L30.16,102.38z"/>
				</g>
			</g>
			<g>
				<g>
					<path d="M15.12,225.14c0-2.45,0.5-4.4,1.49-5.86c0.99-1.45,2.47-2.18,4.43-2.18c1.45,0,2.66,0.36,3.63,1.07
						c0.97,0.72,1.7,1.69,2.18,2.91c0.48,1.23,0.72,2.63,0.72,4.21l-2.5,0.74c0-1.94,0.27-3.66,0.8-5.17s1.3-2.69,2.29-3.57
						c0.99-0.87,2.18-1.31,3.57-1.31c1.28,0,2.36,0.23,3.25,0.69c0.89,0.46,1.6,1.08,2.14,1.86c0.54,0.78,0.94,1.66,1.18,2.64
						c0.25,0.98,0.37,2,0.37,3.04v7.84H15.12V225.14z M24.75,224.6c0-0.92-0.28-1.59-0.83-2.03c-0.55-0.44-1.18-0.66-1.89-0.66
						c-0.81,0-1.42,0.27-1.82,0.82s-0.61,1.28-0.61,2.19v2.5h5.15V224.6z M34.35,224.44c0-0.68-0.09-1.3-0.27-1.86
						c-0.18-0.55-0.47-0.99-0.86-1.31c-0.39-0.32-0.89-0.48-1.49-0.48c-0.68,0-1.2,0.19-1.55,0.58s-0.6,0.88-0.74,1.49
						c-0.14,0.61-0.21,1.24-0.21,1.9v2.66h5.12V224.44z"/>
				</g>
			</g>
			<g>
				<g>
					<path d="M36.72,341.05c0.21,0.26,0.5,0.73,0.86,1.42s0.68,1.54,0.96,2.54c0.28,1,0.4,2.11,0.38,3.33
						c-0.04,1.86-0.38,3.52-1.01,4.98c-0.63,1.46-1.49,2.7-2.58,3.71c-1.09,1.01-2.34,1.79-3.74,2.32c-1.41,0.53-2.91,0.8-4.51,0.8
						c-1.79,0-3.43-0.27-4.93-0.82c-1.49-0.54-2.78-1.32-3.87-2.34c-1.09-1.01-1.93-2.22-2.53-3.63c-0.6-1.41-0.9-2.97-0.9-4.67
						c0-1.58,0.21-2.98,0.64-4.19s0.89-2.21,1.38-2.98l4.38,1.82c-0.4,0.53-0.83,1.24-1.26,2.13c-0.44,0.89-0.66,1.9-0.66,3.06
						c0,0.9,0.19,1.75,0.56,2.58c0.37,0.82,0.9,1.55,1.58,2.18c0.68,0.63,1.48,1.13,2.38,1.49c0.91,0.36,1.89,0.54,2.96,0.54
						c1.13,0,2.17-0.17,3.1-0.5c0.94-0.33,1.74-0.8,2.42-1.42c0.67-0.62,1.19-1.36,1.55-2.22c0.36-0.86,0.54-1.84,0.54-2.93
						c0-1.26-0.2-2.34-0.61-3.23c-0.4-0.9-0.83-1.58-1.28-2.05L36.72,341.05z"/>
				</g>
			</g>
			<g>
				<g>
					<path d="M38.67,485.75H15.12v-7.04c0-2.37,0.35-4.38,1.06-6.05s1.64-3,2.82-4.02c1.17-1.01,2.49-1.75,3.94-2.22
						c1.45-0.47,2.91-0.7,4.38-0.7c1.75,0,3.32,0.31,4.72,0.94c1.4,0.63,2.59,1.49,3.58,2.58c0.99,1.09,1.75,2.35,2.27,3.78
						c0.52,1.43,0.78,2.94,0.78,4.54V485.75z M34.19,481.11v-2.75c0-1.17-0.15-2.24-0.46-3.2c-0.31-0.96-0.76-1.79-1.36-2.48
						c-0.6-0.69-1.35-1.23-2.26-1.6c-0.91-0.37-1.95-0.56-3.12-0.56c-1.54,0-2.79,0.25-3.76,0.75c-0.97,0.5-1.72,1.12-2.26,1.86
						s-0.9,1.49-1.1,2.26c-0.2,0.77-0.3,1.42-0.3,1.95v3.78H34.19z"/>
				</g>
			</g>
			<g>
				<g>
					<path d="M15.12,609.92v-16.06h4.48v11.42h5.02v-10.11h4.48v10.11h5.09v-11.87h4.48v16.51H15.12z"/>
				</g>
			</g>
			<g>
				<g>
					<path d="M15.12,734.72V720h4.48v10.08h5.34v-8.74h4.48v8.74h9.25v4.64H15.12z"/>
				</g>
			</g>
			<g>
				<g>
					<path d="M36.3,844.07c0.3,0.28,0.6,0.71,0.91,1.31c0.31,0.6,0.59,1.29,0.85,2.06c0.26,0.78,0.46,1.57,0.62,2.38
						c0.16,0.81,0.24,1.58,0.24,2.3c0,1.92-0.28,3.65-0.85,5.18s-1.35,2.85-2.37,3.94c-1.01,1.09-2.21,1.92-3.6,2.5
						c-1.39,0.58-2.9,0.86-4.54,0.86c-2.15,0-4.03-0.32-5.62-0.98c-1.59-0.65-2.91-1.54-3.97-2.66s-1.84-2.41-2.35-3.87
						c-0.51-1.46-0.77-2.99-0.77-4.59c0-1.51,0.17-2.9,0.5-4.16c0.33-1.26,0.74-2.33,1.23-3.2l4.32,1.5
						c-0.21,0.38-0.43,0.9-0.64,1.54c-0.21,0.64-0.39,1.29-0.53,1.95c-0.14,0.66-0.21,1.25-0.21,1.76c0,1.28,0.16,2.41,0.48,3.39
						c0.32,0.98,0.8,1.81,1.44,2.48c0.64,0.67,1.44,1.18,2.38,1.52c0.95,0.34,2.05,0.51,3.31,0.51c1.11,0,2.11-0.19,2.99-0.58
						c0.89-0.38,1.64-0.92,2.26-1.62c0.62-0.69,1.09-1.51,1.41-2.46c0.32-0.95,0.48-2,0.48-3.15c0-0.66-0.05-1.27-0.14-1.82
						c-0.1-0.55-0.25-1.02-0.46-1.41h-2.85v4.06h-4.48v-8.77H36.3z"/>
				</g>
			</g>
			<g>
				<g>
					<path d="M15.12,969.97h23.55v4.64H29.1v10.53h9.57v4.64H15.12v-4.64h9.5v-10.53h-9.5V969.97z"/>
				</g>
			</g>
			<g>
				<g>
					<path d="M15.12,1108.05v-4.64h23.55v4.64H15.12z"/>
				</g>
			</g>
			<g>
				<g>
					<path d="M31.71,1228.22c2.05,0,3.8,0.41,5.25,1.22c1.45,0.81,2.56,1.94,3.34,3.38s1.2,3.11,1.26,5.01h-4.51
						c-0.09-1.45-0.53-2.63-1.34-3.55c-0.81-0.92-2.18-1.38-4.1-1.38h-18.5v-4.67H31.71z"/>
				</g>
			</g>
			<g>
				<g>
					<path d="M23.5,1360.96l1.18,0.13l-0.9-0.7l-8.67-7.68v-6.02l10.56,9.73l12.99-9.76v5.89l-10.05,7.26l1.15,1.15h8.9v4.7H15.12
						v-4.7H23.5z"/>
				</g>
			</g>
			<g>
				<g>
					<path d="M15.12,1490.51v-4.64h19.07v-11.07h4.48v15.71H15.12z"/>
				</g>
			</g>
			<g>
				<g>
					<path d="M38.67,1621.27H14.16v-0.03l18.56-13.09l-0.45,1.98l-18.11-13.06v-0.06h24.51v4.64H24.62l2.4-0.29l11.33,7.97v0.06
						l-11.33,8.19l-2.21-0.8h13.86V1621.27z"/>
				</g>
			</g>
			<g>
				<g>
					<path d="M39.63,1724.52l-16.13,17.86l0.77-1.38l14.4-0.1v4.71H14.19v-0.19l16.06-17.47l-0.45,1.02l-14.69,0.1v-4.67h24.51
						V1724.52z"/>
				</g>
			</g>
			<g>
				<g>
					<path d="M26.93,1872.89c-1.62,0-3.16-0.31-4.61-0.93c-1.45-0.62-2.74-1.48-3.86-2.58c-1.12-1.1-2-2.37-2.64-3.82
						c-0.64-1.45-0.96-3.01-0.96-4.67c0-1.64,0.32-3.19,0.96-4.64c0.64-1.45,1.52-2.74,2.64-3.86c1.12-1.12,2.41-1.99,3.86-2.63
						c1.45-0.63,2.99-0.94,4.61-0.94c1.66,0,3.22,0.31,4.67,0.94c1.45,0.63,2.73,1.5,3.82,2.63c1.1,1.12,1.96,2.41,2.58,3.86
						c0.62,1.45,0.93,3,0.93,4.64c0,1.66-0.31,3.22-0.93,4.67s-1.48,2.72-2.58,3.82c-1.1,1.1-2.37,1.96-3.82,2.58
						C30.15,1872.58,28.59,1872.89,26.93,1872.89z M26.93,1868.09c1.05,0,2.02-0.19,2.93-0.56c0.91-0.37,1.71-0.9,2.4-1.57
						c0.69-0.67,1.23-1.45,1.62-2.34c0.38-0.89,0.58-1.85,0.58-2.9c0-1-0.19-1.94-0.58-2.8c-0.38-0.86-0.92-1.62-1.62-2.26
						c-0.69-0.64-1.49-1.14-2.4-1.5c-0.91-0.36-1.88-0.54-2.93-0.54c-1.07,0-2.06,0.19-2.98,0.56c-0.92,0.37-1.72,0.89-2.42,1.54
						c-0.69,0.65-1.23,1.41-1.62,2.29c-0.38,0.88-0.58,1.82-0.58,2.85s0.19,1.97,0.58,2.85c0.38,0.88,0.92,1.64,1.62,2.3
						c0.69,0.66,1.5,1.17,2.42,1.54C24.87,1867.91,25.86,1868.09,26.93,1868.09z"/>
				</g>
			</g>
			<g>
				<g>
					<path d="M15.12,1986.71c0-1.94,0.33-3.58,0.98-4.93c0.65-1.34,1.57-2.37,2.75-3.07c1.18-0.7,2.59-1.06,4.21-1.06
						c0.96,0,1.93,0.14,2.9,0.43c0.97,0.29,1.85,0.75,2.64,1.38c0.79,0.63,1.42,1.47,1.9,2.53c0.48,1.06,0.72,2.35,0.72,3.89v3.33
						h7.46v4.64H15.12V1986.71z M26.7,1985.91c0-0.7-0.12-1.29-0.37-1.76c-0.25-0.47-0.55-0.84-0.93-1.1
						c-0.37-0.27-0.76-0.46-1.17-0.58c-0.4-0.12-0.76-0.18-1.06-0.18c-0.23,0-0.55,0.04-0.94,0.11c-0.39,0.08-0.79,0.23-1.2,0.46
						s-0.75,0.59-1.02,1.07c-0.28,0.48-0.42,1.13-0.42,1.94v3.33h7.1V1985.91z"/>
				</g>
			</g>
			<g>
				<g>
					<path d="M26.93,2125.25c-1.62,0-3.16-0.31-4.61-0.93c-1.45-0.62-2.74-1.48-3.86-2.58c-1.12-1.1-2-2.37-2.64-3.82
						c-0.64-1.45-0.96-3.01-0.96-4.67c0-1.64,0.32-3.19,0.96-4.64c0.64-1.45,1.52-2.74,2.64-3.86c1.12-1.12,2.41-1.99,3.86-2.63
						c1.45-0.63,2.99-0.94,4.61-0.94c1.66,0,3.22,0.31,4.67,0.94c1.45,0.63,2.73,1.5,3.82,2.63c1.1,1.12,1.96,2.41,2.58,3.86
						c0.62,1.45,0.93,3,0.93,4.64c0,1.66-0.31,3.22-0.93,4.67s-1.48,2.72-2.58,3.82c-1.1,1.1-2.37,1.96-3.82,2.58
						C30.15,2124.94,28.59,2125.25,26.93,2125.25z M26.93,2120.45c1.02,0,1.99-0.19,2.9-0.56c0.91-0.37,1.71-0.9,2.4-1.57
						c0.69-0.67,1.23-1.45,1.62-2.34c0.38-0.89,0.58-1.85,0.58-2.9c0-1-0.19-1.94-0.58-2.8c-0.38-0.86-0.92-1.62-1.6-2.26
						c-0.68-0.64-1.48-1.14-2.38-1.5c-0.91-0.36-1.88-0.54-2.93-0.54c-1.02,0-1.99,0.19-2.9,0.56c-0.91,0.37-1.7,0.89-2.38,1.54
						c-0.68,0.65-1.22,1.41-1.6,2.29c-0.38,0.88-0.58,1.82-0.58,2.85s0.19,1.97,0.58,2.85c0.38,0.88,0.92,1.64,1.6,2.3
						c0.68,0.66,1.48,1.17,2.38,1.54C24.94,2120.27,25.9,2120.45,26.93,2120.45z M34.13,2107.17v-7.3h4.54v13.38L34.13,2107.17z"/>
				</g>
			</g>
			<g>
				<g>
					<path d="M15.12,2240.31c0-1.47,0.19-2.78,0.56-3.94c0.37-1.15,0.91-2.12,1.6-2.9c0.69-0.78,1.53-1.37,2.5-1.78
						c0.97-0.41,2.06-0.61,3.28-0.61c0.96,0,1.92,0.14,2.88,0.43s1.83,0.76,2.62,1.41c0.79,0.65,1.42,1.51,1.9,2.58
						c0.48,1.07,0.72,2.39,0.72,3.97v3.33h7.49v4.64H15.12V2240.31z M26.7,2239.51c0-0.7-0.12-1.29-0.35-1.76
						c-0.23-0.47-0.53-0.84-0.9-1.1s-0.74-0.46-1.14-0.58c-0.39-0.12-0.76-0.18-1.1-0.18c-0.26,0-0.58,0.04-0.98,0.11
						c-0.39,0.08-0.79,0.23-1.2,0.46s-0.75,0.59-1.02,1.07c-0.28,0.48-0.42,1.13-0.42,1.94v3.33h7.1V2239.51z M29.58,2235.15
						l9.09-5.82v5.41l-8.96,5.95L29.58,2235.15z"/>
				</g>
			</g>
			<g>
				<g>
					<path d="M20.81,2357.99c-0.49,0.9-0.9,1.81-1.22,2.74c-0.32,0.93-0.48,1.8-0.48,2.61c0,1,0.2,1.79,0.61,2.37
						s1.01,0.86,1.82,0.86c0.56,0,1.05-0.22,1.49-0.66c0.44-0.44,0.83-1,1.17-1.7c0.34-0.69,0.65-1.41,0.93-2.16
						c0.26-0.68,0.56-1.36,0.91-2.03s0.79-1.27,1.31-1.81c0.52-0.53,1.17-0.96,1.95-1.28s1.73-0.48,2.86-0.48
						c1.2,0,2.3,0.31,3.33,0.93c1.02,0.62,1.85,1.53,2.48,2.72c0.63,1.2,0.94,2.67,0.94,4.42c0,0.9-0.09,1.81-0.27,2.74
						c-0.18,0.93-0.46,1.84-0.83,2.74c-0.37,0.9-0.85,1.76-1.42,2.59l-3.62-2.05c0.41-0.55,0.76-1.16,1.07-1.81
						c0.31-0.65,0.55-1.31,0.72-1.97c0.17-0.66,0.26-1.27,0.26-1.82s-0.08-1.12-0.24-1.68c-0.16-0.57-0.43-1.04-0.82-1.41
						s-0.92-0.56-1.6-0.56c-0.47,0-0.9,0.16-1.28,0.46c-0.38,0.31-0.74,0.72-1.06,1.25c-0.32,0.52-0.6,1.09-0.83,1.71
						c-0.28,0.73-0.6,1.47-0.96,2.24c-0.36,0.77-0.81,1.49-1.33,2.16c-0.52,0.67-1.17,1.22-1.95,1.63
						c-0.78,0.42-1.73,0.62-2.86,0.62c-1.36,0-2.55-0.3-3.55-0.91c-1-0.61-1.8-1.47-2.38-2.58c-0.59-1.11-0.91-2.39-0.98-3.84
						c0-1.9,0.22-3.44,0.67-4.62c0.45-1.18,0.98-2.25,1.6-3.18L20.81,2357.99z"/>
				</g>
			</g>
			<g>
				<g>
					<path d="M15.12,2498.06v-15.87h4.48v5.73h19.07v4.64H19.6v5.5H15.12z"/>
				</g>
			</g>
		</g>
		<g id="Right_Index_1_">
			<g>
				<g>
					<path d="M2554.64,88.14l24.48,10.62v0.26l-24.48,10.62v-5.38l17.21-6.78l2.3,3.36l-19.52-8.13V88.14z M2563.15,95.4v7.07
						l-3.9,1.63V93.96L2563.15,95.4z"/>
				</g>
			</g>
			<g>
				<g>
					<path d="M2578.19,224.35c0,2.45-0.5,4.4-1.49,5.86c-0.99,1.45-2.47,2.18-4.43,2.18c-1.45,0-2.66-0.36-3.63-1.07
						c-0.97-0.72-1.7-1.69-2.18-2.91c-0.48-1.23-0.72-2.63-0.72-4.21l2.5-0.74c0,1.94-0.27,3.66-0.8,5.17s-1.29,2.69-2.29,3.57
						c-0.99,0.87-2.18,1.31-3.57,1.31c-1.28,0-2.36-0.23-3.25-0.69c-0.88-0.46-1.6-1.08-2.14-1.86c-0.54-0.78-0.94-1.66-1.18-2.64
						c-0.25-0.98-0.37-2-0.37-3.04v-7.84h23.55V224.35z M2558.96,225.05c0,0.68,0.09,1.3,0.27,1.86c0.18,0.55,0.47,0.99,0.86,1.31
						c0.39,0.32,0.89,0.48,1.49,0.48c0.68,0,1.2-0.19,1.55-0.58c0.35-0.38,0.6-0.88,0.74-1.49c0.14-0.61,0.21-1.24,0.21-1.9v-2.66
						h-5.12V225.05z M2568.56,224.89c0,0.92,0.28,1.59,0.83,2.03c0.55,0.44,1.18,0.66,1.89,0.66c0.81,0,1.42-0.27,1.82-0.82
						c0.41-0.54,0.61-1.28,0.61-2.19v-2.5h-5.15V224.89z"/>
				</g>
			</g>
			<g>
				<g>
					<path d="M2556.59,360.15c-0.21-0.26-0.5-0.73-0.86-1.42c-0.36-0.69-0.68-1.54-0.96-2.54c-0.28-1-0.4-2.11-0.38-3.33
						c0.04-1.86,0.38-3.52,1.01-4.98c0.63-1.46,1.49-2.7,2.58-3.71c1.09-1.01,2.34-1.79,3.74-2.32c1.41-0.53,2.91-0.8,4.51-0.8
						c1.79,0,3.43,0.27,4.93,0.82c1.49,0.54,2.78,1.32,3.87,2.34c1.09,1.01,1.93,2.22,2.53,3.63c0.6,1.41,0.9,2.97,0.9,4.67
						c0,1.58-0.21,2.98-0.64,4.19c-0.43,1.22-0.89,2.21-1.38,2.98l-4.38-1.82c0.4-0.53,0.83-1.24,1.26-2.13
						c0.44-0.89,0.66-1.9,0.66-3.06c0-0.9-0.19-1.75-0.56-2.58c-0.37-0.82-0.9-1.55-1.58-2.18c-0.68-0.63-1.48-1.13-2.38-1.49
						c-0.91-0.36-1.89-0.54-2.96-0.54c-1.13,0-2.17,0.17-3.1,0.5c-0.94,0.33-1.74,0.8-2.42,1.42c-0.67,0.62-1.19,1.36-1.55,2.22
						c-0.36,0.86-0.54,1.84-0.54,2.93c0,1.26,0.2,2.34,0.61,3.23c0.4,0.9,0.83,1.58,1.28,2.05L2556.59,360.15z"/>
				</g>
			</g>
			<g>
				<g>
					<path d="M2554.64,467.16h23.55v7.04c0,2.37-0.35,4.38-1.05,6.05c-0.71,1.66-1.64,3-2.82,4.02c-1.17,1.01-2.49,1.75-3.94,2.22
						c-1.45,0.47-2.91,0.7-4.38,0.7c-1.75,0-3.32-0.31-4.72-0.94c-1.4-0.63-2.59-1.49-3.58-2.58c-0.99-1.09-1.75-2.35-2.27-3.78
						c-0.52-1.43-0.78-2.94-0.78-4.54V467.16z M2559.12,471.8v2.75c0,1.17,0.15,2.24,0.46,3.2c0.31,0.96,0.76,1.79,1.36,2.48
						c0.6,0.69,1.35,1.23,2.26,1.6c0.91,0.37,1.95,0.56,3.12,0.56c1.54,0,2.79-0.25,3.76-0.75c0.97-0.5,1.72-1.12,2.26-1.86
						s0.9-1.49,1.1-2.26c0.2-0.77,0.3-1.42,0.3-1.95v-3.78H2559.12z"/>
				</g>
			</g>
			<g>
				<g>
					<path d="M2578.19,594.69v16.06h-4.48v-11.42h-5.02v10.11h-4.48v-10.11h-5.09v11.87h-4.48v-16.51H2578.19z"/>
				</g>
			</g>
			<g>
				<g>
					<path d="M2578.19,721.6v14.72h-4.48v-10.08h-5.34v8.74h-4.48v-8.74h-9.25v-4.64H2578.19z"/>
				</g>
			</g>
			<g>
				<g>
					<path d="M2557.01,863.97c-0.3-0.28-0.6-0.71-0.91-1.31c-0.31-0.6-0.59-1.29-0.85-2.06c-0.26-0.78-0.46-1.57-0.62-2.38
						c-0.16-0.81-0.24-1.58-0.24-2.3c0-1.92,0.28-3.65,0.85-5.18c0.56-1.54,1.35-2.85,2.37-3.94s2.21-1.92,3.6-2.5
						c1.39-0.58,2.9-0.86,4.54-0.86c2.15,0,4.03,0.32,5.62,0.98c1.59,0.65,2.91,1.54,3.97,2.66s1.84,2.41,2.35,3.87
						c0.51,1.46,0.77,2.99,0.77,4.59c0,1.51-0.17,2.9-0.5,4.16c-0.33,1.26-0.74,2.33-1.23,3.2l-4.32-1.5
						c0.21-0.38,0.43-0.9,0.64-1.54c0.21-0.64,0.39-1.29,0.53-1.95c0.14-0.66,0.21-1.25,0.21-1.76c0-1.28-0.16-2.41-0.48-3.39
						c-0.32-0.98-0.8-1.81-1.44-2.48c-0.64-0.67-1.43-1.18-2.38-1.52c-0.95-0.34-2.05-0.51-3.31-0.51c-1.11,0-2.11,0.19-2.99,0.58
						c-0.88,0.38-1.64,0.92-2.26,1.62s-1.09,1.51-1.41,2.46c-0.32,0.95-0.48,2-0.48,3.15c0,0.66,0.05,1.27,0.14,1.82
						c0.1,0.55,0.25,1.02,0.46,1.41h2.85v-4.06h4.48v8.77H2557.01z"/>
				</g>
			</g>
			<g>
				<g>
					<path d="M2578.19,989.78h-23.55v-4.64h9.57v-10.53h-9.57v-4.64h23.55v4.64h-9.5v10.53h9.5V989.78z"/>
				</g>
			</g>
			<g>
				<g>
					<path d="M2578.19,1103.41v4.64h-23.55v-4.64H2578.19z"/>
				</g>
			</g>
			<g>
				<g>
					<path d="M2561.6,1234.94c-2.05,0-3.8-0.41-5.25-1.22c-1.45-0.81-2.56-1.94-3.34-3.38c-0.78-1.44-1.2-3.11-1.26-5.01h4.51
						c0.09,1.45,0.53,2.63,1.34,3.55c0.81,0.92,2.18,1.38,4.1,1.38h18.5v4.67H2561.6z"/>
				</g>
			</g>
			<g>
				<g>
					<path d="M2569.81,1353.92l-1.18-0.13l0.9,0.7l8.67,7.68v6.02l-10.56-9.73l-12.99,9.76v-5.89l10.05-7.26l-1.15-1.15h-8.9v-4.7
						h23.55v4.7H2569.81z"/>
				</g>
			</g>
			<g>
				<g>
					<path d="M2578.19,1476.08v4.64h-19.07v11.07h-4.48v-15.71H2578.19z"/>
				</g>
			</g>
			<g>
				<g>
					<path d="M2554.64,1597.02h24.51v0.03l-18.56,13.09l0.45-1.98l18.11,13.06v0.06h-24.51v-4.64h14.05l-2.4,0.29l-11.33-7.97v-0.06
						l11.33-8.19l2.21,0.8h-13.86V1597.02z"/>
				</g>
			</g>
			<g>
				<g>
					<path d="M2553.68,1745.48l16.13-17.86l-0.77,1.38l-14.4,0.1v-4.7h24.48v0.19l-16.06,17.47l0.45-1.02l14.69-0.1v4.67h-24.51
						V1745.48z"/>
				</g>
			</g>
			<g>
				<g>
					<path d="M2566.39,1848.82c1.62,0,3.16,0.31,4.61,0.93c1.45,0.62,2.74,1.48,3.86,2.58c1.12,1.1,2,2.37,2.64,3.82
						c0.64,1.45,0.96,3.01,0.96,4.67c0,1.64-0.32,3.19-0.96,4.64c-0.64,1.45-1.52,2.74-2.64,3.86c-1.12,1.12-2.4,1.99-3.86,2.62
						c-1.45,0.63-2.99,0.94-4.61,0.94c-1.66,0-3.22-0.32-4.67-0.94c-1.45-0.63-2.73-1.5-3.82-2.62c-1.1-1.12-1.96-2.41-2.58-3.86
						c-0.62-1.45-0.93-3-0.93-4.64c0-1.66,0.31-3.22,0.93-4.67c0.62-1.45,1.48-2.73,2.58-3.82c1.1-1.1,2.37-1.96,3.82-2.58
						C2563.16,1849.13,2564.72,1848.82,2566.39,1848.82z M2566.39,1853.62c-1.05,0-2.02,0.19-2.93,0.56
						c-0.91,0.37-1.71,0.9-2.4,1.57c-0.69,0.67-1.23,1.45-1.62,2.34c-0.38,0.89-0.58,1.85-0.58,2.9c0,1,0.19,1.94,0.58,2.8
						c0.38,0.86,0.92,1.62,1.62,2.26c0.69,0.64,1.49,1.14,2.4,1.5c0.91,0.36,1.88,0.54,2.93,0.54c1.07,0,2.06-0.19,2.98-0.56
						s1.72-0.89,2.42-1.54c0.69-0.65,1.23-1.41,1.62-2.29c0.38-0.88,0.58-1.82,0.58-2.85c0-1.02-0.19-1.97-0.58-2.85
						c-0.38-0.88-0.92-1.64-1.62-2.3c-0.69-0.66-1.5-1.17-2.42-1.54C2568.45,1853.81,2567.45,1853.62,2566.39,1853.62z"/>
				</g>
			</g>
			<g>
				<g>
					<path d="M2578.19,1986.71c0,1.94-0.32,3.58-0.97,4.93c-0.65,1.34-1.57,2.37-2.75,3.07c-1.18,0.7-2.59,1.06-4.21,1.06
						c-0.96,0-1.93-0.14-2.9-0.43c-0.97-0.29-1.85-0.75-2.64-1.38c-0.79-0.63-1.42-1.47-1.9-2.53c-0.48-1.06-0.72-2.35-0.72-3.89
						v-3.33h-7.46v-4.64h23.55V1986.71z M2566.61,1987.51c0,0.7,0.12,1.29,0.37,1.76c0.24,0.47,0.55,0.84,0.93,1.1
						s0.76,0.46,1.17,0.58c0.4,0.12,0.76,0.18,1.06,0.18c0.24,0,0.55-0.04,0.94-0.11c0.39-0.08,0.79-0.23,1.2-0.46
						c0.41-0.23,0.75-0.59,1.02-1.07c0.28-0.48,0.42-1.13,0.42-1.94v-3.33h-7.1V1987.51z"/>
				</g>
			</g>
			<g>
				<g>
					<path d="M2566.39,2099.88c1.62,0,3.16,0.31,4.61,0.93c1.45,0.62,2.74,1.48,3.86,2.58c1.12,1.1,2,2.37,2.64,3.82
						c0.64,1.45,0.96,3.01,0.96,4.67c0,1.64-0.32,3.19-0.96,4.64c-0.64,1.45-1.52,2.74-2.64,3.86c-1.12,1.12-2.4,1.99-3.86,2.62
						c-1.45,0.63-2.99,0.94-4.61,0.94c-1.66,0-3.22-0.31-4.67-0.94c-1.45-0.63-2.73-1.5-3.82-2.62c-1.1-1.12-1.96-2.41-2.58-3.86
						c-0.62-1.45-0.93-3-0.93-4.64c0-1.66,0.31-3.22,0.93-4.67c0.62-1.45,1.48-2.73,2.58-3.82c1.1-1.1,2.37-1.96,3.82-2.58
						C2563.16,2100.19,2564.72,2099.88,2566.39,2099.88z M2559.19,2117.96v7.3h-4.54v-13.38L2559.19,2117.96z M2566.39,2104.68
						c-1.02,0-1.99,0.19-2.9,0.56c-0.91,0.37-1.71,0.9-2.4,1.57s-1.23,1.45-1.62,2.34c-0.38,0.88-0.58,1.85-0.58,2.9
						c0,1,0.19,1.94,0.58,2.8c0.38,0.86,0.92,1.62,1.6,2.26c0.68,0.64,1.48,1.14,2.38,1.5c0.91,0.36,1.88,0.54,2.93,0.54
						c1.02,0,1.99-0.19,2.9-0.56c0.91-0.37,1.7-0.89,2.38-1.54c0.68-0.65,1.22-1.41,1.6-2.29c0.38-0.88,0.58-1.82,0.58-2.85
						c0-1.02-0.19-1.97-0.58-2.85c-0.38-0.88-0.92-1.64-1.6-2.3c-0.68-0.66-1.48-1.17-2.38-1.54
						C2568.38,2104.86,2567.41,2104.68,2566.39,2104.68z"/>
				</g>
			</g>
			<g>
				<g>
					<path d="M2578.19,2238.71c0,1.47-0.19,2.78-0.56,3.94c-0.37,1.15-0.91,2.12-1.6,2.9c-0.69,0.78-1.53,1.37-2.5,1.78
						c-0.97,0.41-2.06,0.61-3.28,0.61c-0.96,0-1.92-0.14-2.88-0.43c-0.96-0.29-1.83-0.76-2.62-1.41c-0.79-0.65-1.42-1.51-1.9-2.58
						c-0.48-1.07-0.72-2.39-0.72-3.97v-3.33h-7.49v-4.64h23.55V2238.71z M2563.73,2243.86l-9.09,5.82v-5.41l8.96-5.95
						L2563.73,2243.86z M2566.61,2239.51c0,0.7,0.12,1.29,0.35,1.76s0.53,0.84,0.9,1.1c0.36,0.27,0.74,0.46,1.14,0.58
						c0.39,0.12,0.76,0.18,1.1,0.18c0.26,0,0.58-0.04,0.98-0.11s0.79-0.23,1.2-0.46c0.41-0.24,0.75-0.59,1.02-1.07
						s0.42-1.13,0.42-1.94v-3.33h-7.1V2239.51z"/>
				</g>
			</g>
			<g>
				<g>
					<path d="M2572.5,2370.56c0.49-0.9,0.9-1.81,1.22-2.74c0.32-0.93,0.48-1.8,0.48-2.61c0-1-0.2-1.79-0.61-2.37
						c-0.41-0.58-1.01-0.86-1.82-0.86c-0.55,0-1.05,0.22-1.49,0.66s-0.83,1-1.17,1.7c-0.34,0.69-0.65,1.41-0.93,2.16
						c-0.26,0.68-0.56,1.36-0.91,2.03c-0.35,0.67-0.79,1.27-1.31,1.81s-1.17,0.96-1.95,1.28s-1.73,0.48-2.86,0.48
						c-1.2,0-2.3-0.31-3.33-0.93c-1.02-0.62-1.85-1.53-2.48-2.72c-0.63-1.2-0.94-2.67-0.94-4.42c0-0.9,0.09-1.81,0.27-2.74
						c0.18-0.93,0.46-1.84,0.83-2.74c0.37-0.9,0.85-1.76,1.42-2.59l3.62,2.05c-0.41,0.55-0.76,1.16-1.07,1.81
						c-0.31,0.65-0.55,1.31-0.72,1.97c-0.17,0.66-0.26,1.27-0.26,1.82s0.08,1.11,0.24,1.68s0.43,1.04,0.82,1.41s0.92,0.56,1.6,0.56
						c0.47,0,0.9-0.15,1.28-0.46c0.38-0.31,0.74-0.73,1.06-1.25c0.32-0.52,0.6-1.09,0.83-1.71c0.28-0.73,0.6-1.47,0.96-2.24
						c0.36-0.77,0.81-1.49,1.33-2.16c0.52-0.67,1.17-1.22,1.95-1.63c0.78-0.42,1.73-0.62,2.86-0.62c1.37,0,2.55,0.3,3.55,0.91
						c1,0.61,1.8,1.47,2.38,2.58c0.59,1.11,0.91,2.39,0.98,3.84c0,1.9-0.22,3.44-0.67,4.62c-0.45,1.18-0.98,2.25-1.6,3.18
						L2572.5,2370.56z"/>
				</g>
			</g>
			<g>
				<g>
					<path d="M2578.19,2482.19v15.87h-4.48v-5.73h-19.07v-4.64h19.07v-5.5H2578.19z"/>
				</g>
			</g>
		</g>
		<g id="Top_Index">
			<g>
				<g>
					<path d="M101.09,15.66h6.37v21.22h-4.67V20.14h-1.7V15.66z"/>
				</g>
			</g>
			<g>
				<g>
					<path d="M222.43,36.87c1.32-1.34,2.59-2.64,3.81-3.89c1.22-1.25,2.31-2.45,3.28-3.62c0.97-1.16,1.74-2.29,2.3-3.38
						c0.56-1.09,0.85-2.14,0.85-3.17c0-0.45-0.08-0.85-0.24-1.22c-0.16-0.36-0.38-0.67-0.67-0.93c-0.29-0.26-0.63-0.45-1.02-0.59
						c-0.4-0.14-0.84-0.21-1.33-0.21c-0.49,0-0.93,0.07-1.31,0.21c-0.38,0.14-0.7,0.33-0.96,0.56c-0.26,0.24-0.45,0.49-0.59,0.77
						c-0.14,0.28-0.21,0.57-0.21,0.86c0,0.68,0.11,1.29,0.34,1.81c0.22,0.52,0.53,0.99,0.91,1.39l-2.85,2.59
						c-0.62-0.3-1.15-0.8-1.58-1.5c-0.44-0.7-0.77-1.44-0.99-2.22s-0.34-1.42-0.34-1.94c0-1.17,0.32-2.29,0.98-3.36
						c0.65-1.07,1.6-1.94,2.85-2.62c1.25-0.68,2.77-1.02,4.56-1.02c1.47,0,2.75,0.33,3.84,0.99c1.09,0.66,1.94,1.53,2.54,2.61
						c0.61,1.08,0.91,2.22,0.91,3.44c0,0.96-0.15,1.89-0.45,2.78c-0.3,0.9-0.71,1.78-1.23,2.64c-0.52,0.86-1.12,1.72-1.78,2.56
						c-0.66,0.84-1.34,1.7-2.05,2.58l-2.11-0.61h7.87v4.48H222.43z"/>
				</g>
			</g>
			<g>
				<g>
					<path d="M361.22,15.66l-4.8,9.22l-2.53-1.38c0.21-0.08,0.44-0.15,0.69-0.19c0.24-0.04,0.47-0.06,0.69-0.06
						c0.75-0.02,1.49,0.06,2.24,0.26c0.75,0.19,1.42,0.53,2.03,1.02c0.61,0.49,1.1,1.16,1.47,2.02c0.37,0.85,0.56,1.94,0.56,3.26
						c0,1.54-0.36,2.85-1.07,3.95c-0.71,1.1-1.65,1.94-2.8,2.51c-1.15,0.58-2.4,0.86-3.74,0.86c-1.05,0-2.14-0.22-3.3-0.66
						c-1.15-0.44-2.07-1.02-2.75-1.74l2.37-3.84c0.32,0.41,0.81,0.8,1.47,1.18c0.66,0.38,1.35,0.58,2.08,0.58
						c0.47,0,0.93-0.12,1.38-0.35c0.45-0.23,0.82-0.59,1.12-1.06s0.45-1.04,0.45-1.73c0-0.94-0.26-1.69-0.78-2.24
						c-0.52-0.55-1.25-0.83-2.19-0.83c-0.64,0-1.13,0.03-1.46,0.08c-0.33,0.05-0.66,0.12-0.98,0.21l-0.1-0.13l3.74-7.01l1.34,0.54
						h-6.69v-4.48H361.22z"/>
				</g>
			</g>
			<g>
				<g>
					<path d="M471.57,32.23V32.2l13.54-16.8h0.03v13.31h2.53v3.52h-2.53v4.64h-4.67v-4.64H471.57z M480.69,25.61l-2.46,3.3
						l-0.45-0.19h2.69v-3.33L480.69,25.61z"/>
				</g>
			</g>
			<g>
				<g>
					<path d="M604.59,37.13c-1.26,0-2.49-0.23-3.68-0.7c-1.19-0.47-2.12-1.03-2.78-1.7l2.4-3.71c0.38,0.47,0.93,0.86,1.65,1.17
						c0.71,0.31,1.4,0.46,2.06,0.46c0.49,0,0.95-0.11,1.38-0.32c0.43-0.21,0.77-0.53,1.02-0.96s0.38-0.95,0.38-1.57
						c0-0.68-0.13-1.28-0.4-1.79c-0.27-0.51-0.65-0.91-1.15-1.2c-0.5-0.29-1.09-0.43-1.78-0.43c-0.66,0-1.29,0.09-1.89,0.27
						c-0.6,0.18-1.3,0.49-2.11,0.91h-0.03v-11.9h10.59v4.48h-6.59v3.42l-0.54-0.96c0.3-0.04,0.59-0.07,0.86-0.1
						c0.28-0.02,0.55-0.03,0.83-0.03c1.49,0,2.76,0.33,3.79,0.99c1.03,0.66,1.83,1.54,2.38,2.62c0.55,1.09,0.83,2.27,0.83,3.55
						c0,1.41-0.32,2.68-0.96,3.81s-1.51,2.03-2.61,2.69C607.15,36.8,605.93,37.13,604.59,37.13z"/>
				</g>
			</g>
			<g>
				<g>
					<path d="M730.34,37.13c-1.54,0-2.92-0.36-4.16-1.09c-1.24-0.73-2.22-1.79-2.94-3.2c-0.73-1.41-1.09-3.13-1.09-5.15
						c0-1.26,0.24-2.48,0.72-3.66s1.14-2.31,1.98-3.39c0.84-1.08,1.82-2.08,2.93-3.02c1.11-0.94,2.29-1.78,3.55-2.53l3.1,3.36
						c-1.71,0.66-3.1,1.51-4.19,2.54c-1.09,1.04-1.89,2.11-2.4,3.22c-0.51,1.11-0.77,2.13-0.77,3.07l-1.15-0.13
						c0.58-1.34,1.32-2.39,2.22-3.14s2.17-1.12,3.79-1.12c1.02,0,2.02,0.29,2.98,0.86c0.96,0.58,1.74,1.38,2.35,2.4
						c0.61,1.02,0.91,2.22,0.91,3.58c0,1.58-0.38,2.92-1.14,4.02c-0.76,1.1-1.73,1.94-2.93,2.51
						C732.92,36.84,731.66,37.13,730.34,37.13z M730.15,32.97c0.62,0,1.17-0.12,1.65-0.37c0.48-0.25,0.86-0.61,1.14-1.09
						c0.28-0.48,0.42-1.06,0.42-1.74c0-0.66-0.14-1.21-0.43-1.65c-0.29-0.44-0.67-0.77-1.15-0.99c-0.48-0.22-1.02-0.34-1.62-0.34
						c-0.6,0-1.14,0.11-1.62,0.34c-0.48,0.22-0.86,0.52-1.15,0.9c-0.29,0.37-0.43,0.77-0.43,1.2v0.77c0,0.51,0.14,0.99,0.42,1.44
						c0.28,0.45,0.66,0.82,1.15,1.1C729.01,32.83,729.55,32.97,730.15,32.97z"/>
				</g>
			</g>
			<g>
				<g>
					<path d="M862.77,15.66l-7.9,21.22h-5.18l6.56-17.28l1.5,0.54h-9.31v-4.48H862.77z"/>
				</g>
			</g>
			<g>
				<g>
					<path d="M972.81,27.18c0.41-0.77,0.9-1.4,1.49-1.9c0.59-0.5,1.13-0.9,1.62-1.2c-0.47-0.49-0.87-1-1.2-1.52
						c-0.33-0.52-0.5-1.26-0.5-2.22s0.27-1.81,0.82-2.56c0.54-0.75,1.27-1.33,2.19-1.74c0.92-0.42,1.93-0.62,3.04-0.62
						c1.11,0,2.13,0.21,3.06,0.62c0.93,0.42,1.67,0.98,2.24,1.68c0.56,0.7,0.85,1.5,0.85,2.4c0,1.07-0.18,1.87-0.53,2.4
						c-0.35,0.53-0.78,1.06-1.3,1.57c0.51,0.32,1.05,0.74,1.62,1.25c0.56,0.51,1.05,1.15,1.46,1.9c0.4,0.76,0.61,1.68,0.61,2.77
						c0,1.24-0.35,2.4-1.06,3.49c-0.7,1.09-1.66,1.97-2.86,2.64c-1.21,0.67-2.59,1.01-4.14,1.01c-1.56,0-2.94-0.34-4.14-1.01
						c-1.21-0.67-2.15-1.55-2.83-2.64c-0.68-1.09-1.02-2.25-1.02-3.49C972.2,28.89,972.4,27.95,972.81,27.18z M977.42,31.51
						c0.3,0.52,0.69,0.94,1.18,1.25s1.03,0.46,1.63,0.46c0.62,0,1.18-0.15,1.7-0.46s0.92-0.73,1.23-1.25
						c0.31-0.52,0.46-1.09,0.46-1.71s-0.14-1.18-0.43-1.68c-0.29-0.5-0.67-0.91-1.15-1.23c-0.48-0.32-1.02-0.49-1.62-0.51
						c-0.6-0.02-1.16,0.12-1.68,0.42c-0.52,0.3-0.95,0.71-1.28,1.23c-0.33,0.52-0.5,1.12-0.5,1.78
						C976.97,30.42,977.12,30.99,977.42,31.51z M979.26,22.03c0.35,0.32,0.72,0.48,1.1,0.48c0.38,0,0.75-0.16,1.09-0.48
						c0.34-0.32,0.51-0.69,0.51-1.12s-0.17-0.81-0.5-1.14c-0.33-0.33-0.7-0.5-1.1-0.5c-0.41,0-0.78,0.17-1.12,0.5
						c-0.34,0.33-0.51,0.71-0.51,1.14S978.9,21.71,979.26,22.03z"/>
				</g>
			</g>
			<g>
				<g>
					<path d="M1103.73,30.25c-1.02,0-2.01-0.29-2.96-0.86c-0.95-0.58-1.73-1.38-2.35-2.42c-0.62-1.03-0.93-2.22-0.93-3.57
						c0-1.71,0.38-3.16,1.14-4.35c0.76-1.19,1.73-2.1,2.93-2.72c1.19-0.62,2.45-0.93,3.78-0.93c1.56,0,2.95,0.35,4.18,1.04
						c1.23,0.69,2.2,1.64,2.93,2.85c0.73,1.21,1.09,2.57,1.09,4.08c0,1.75-0.3,3.32-0.91,4.72c-0.61,1.4-1.42,2.65-2.43,3.76
						c-1.01,1.11-2.14,2.12-3.38,3.02c-1.24,0.91-2.49,1.75-3.74,2.54l-3.1-3.36c1.71-0.7,3.21-1.51,4.51-2.42
						c1.3-0.91,2.31-1.86,3.04-2.85c0.73-0.99,1.09-1.97,1.09-2.93l1.15,0.13c-0.58,1.34-1.31,2.39-2.21,3.14
						C1106.64,29.88,1105.37,30.25,1103.73,30.25z M1105.52,26.35c0.9,0,1.65-0.29,2.27-0.86c0.62-0.58,0.93-1.23,0.93-1.95v-0.74
						c0-0.55-0.14-1.08-0.42-1.57s-0.66-0.89-1.14-1.2c-0.48-0.31-1.03-0.46-1.65-0.46c-0.6,0-1.14,0.13-1.63,0.4
						c-0.49,0.27-0.88,0.66-1.15,1.17c-0.28,0.51-0.42,1.14-0.42,1.89c0,0.73,0.14,1.34,0.43,1.84c0.29,0.5,0.67,0.88,1.15,1.12
						C1104.39,26.22,1104.92,26.35,1105.52,26.35z"/>
				</g>
			</g>
			<g>
				<g>
					<path d="M1216.35,15.66h6.37v21.22h-4.67V20.14h-1.7V15.66z"/>
					<path d="M1235.8,36.91c-1.22,0-2.36-0.21-3.44-0.64c-1.08-0.43-2.03-1.08-2.85-1.97c-0.82-0.88-1.47-2-1.94-3.36
						c-0.47-1.35-0.7-2.95-0.7-4.78c0-2.05,0.22-3.76,0.67-5.14c0.45-1.38,1.07-2.48,1.87-3.31c0.8-0.83,1.74-1.42,2.83-1.78
						s2.27-0.53,3.55-0.53c1.22,0,2.36,0.21,3.44,0.64c1.08,0.43,2.03,1.08,2.85,1.97s1.47,2.01,1.94,3.36
						c0.47,1.35,0.7,2.95,0.7,4.78c0,1.9-0.23,3.53-0.7,4.9c-0.47,1.37-1.12,2.48-1.95,3.34c-0.83,0.86-1.78,1.5-2.85,1.9
						C1238.16,36.7,1237.02,36.91,1235.8,36.91z M1235.77,32.46c1.07,0,1.9-0.28,2.5-0.85c0.6-0.56,1.02-1.34,1.26-2.32
						c0.25-0.98,0.37-2.07,0.37-3.26c0-1.17-0.12-2.22-0.37-3.14c-0.25-0.92-0.67-1.65-1.26-2.19c-0.6-0.54-1.43-0.82-2.5-0.82
						c-1.05,0-1.87,0.28-2.46,0.83c-0.6,0.56-1.01,1.3-1.25,2.24c-0.24,0.94-0.35,2-0.35,3.17c0,1.17,0.12,2.24,0.35,3.2
						c0.23,0.96,0.65,1.72,1.25,2.29C1233.9,32.18,1234.73,32.46,1235.77,32.46z"/>
				</g>
			</g>
			<g>
				<g>
					<path d="M1345.93,15.66h6.37v21.22h-4.67V20.14h-1.7V15.66z"/>
					<path d="M1356.93,15.66h6.37v21.22h-4.67V20.14h-1.7V15.66z"/>
				</g>
			</g>
			<g>
				<g>
					<path d="M1467.14,15.66h6.37v21.22h-4.67V20.14h-1.7V15.66z"/>
					<path d="M1478.27,36.87c1.32-1.34,2.59-2.64,3.81-3.89s2.31-2.45,3.28-3.62c0.97-1.16,1.74-2.29,2.3-3.38s0.85-2.14,0.85-3.17
						c0-0.45-0.08-0.85-0.24-1.22c-0.16-0.36-0.38-0.67-0.67-0.93c-0.29-0.26-0.63-0.45-1.02-0.59c-0.39-0.14-0.84-0.21-1.33-0.21
						c-0.49,0-0.93,0.07-1.31,0.21c-0.38,0.14-0.7,0.33-0.96,0.56c-0.26,0.24-0.45,0.49-0.59,0.77c-0.14,0.28-0.21,0.57-0.21,0.86
						c0,0.68,0.11,1.29,0.34,1.81c0.22,0.52,0.53,0.99,0.91,1.39l-2.85,2.59c-0.62-0.3-1.15-0.8-1.58-1.5
						c-0.44-0.7-0.77-1.44-0.99-2.22c-0.22-0.78-0.34-1.42-0.34-1.94c0-1.17,0.33-2.29,0.98-3.36c0.65-1.07,1.6-1.94,2.85-2.62
						c1.25-0.68,2.77-1.02,4.56-1.02c1.47,0,2.75,0.33,3.84,0.99c1.09,0.66,1.94,1.53,2.54,2.61c0.61,1.08,0.91,2.22,0.91,3.44
						c0,0.96-0.15,1.89-0.45,2.78c-0.3,0.9-0.71,1.78-1.23,2.64c-0.52,0.86-1.12,1.72-1.78,2.56c-0.66,0.84-1.34,1.7-2.05,2.58
						l-2.11-0.61h7.87v4.48H1478.27z"/>
				</g>
			</g>
			<g>
				<g>
					<path d="M1593.07,15.66h6.37v21.22h-4.67V20.14h-1.7V15.66z"/>
					<path d="M1617.07,15.66l-4.8,9.22l-2.53-1.38c0.21-0.08,0.44-0.15,0.69-0.19c0.24-0.04,0.47-0.06,0.69-0.06
						c0.75-0.02,1.49,0.06,2.24,0.26c0.75,0.19,1.42,0.53,2.03,1.02c0.61,0.49,1.1,1.16,1.47,2.02c0.37,0.85,0.56,1.94,0.56,3.26
						c0,1.54-0.36,2.85-1.07,3.95c-0.71,1.1-1.65,1.94-2.8,2.51c-1.15,0.58-2.4,0.86-3.74,0.86c-1.05,0-2.14-0.22-3.3-0.66
						c-1.15-0.44-2.07-1.02-2.75-1.74l2.37-3.84c0.32,0.41,0.81,0.8,1.47,1.18c0.66,0.38,1.35,0.58,2.08,0.58
						c0.47,0,0.93-0.12,1.38-0.35c0.45-0.23,0.82-0.59,1.12-1.06s0.45-1.04,0.45-1.73c0-0.94-0.26-1.69-0.78-2.24
						c-0.52-0.55-1.25-0.83-2.19-0.83c-0.64,0-1.13,0.03-1.46,0.08c-0.33,0.05-0.66,0.12-0.98,0.21l-0.1-0.13l3.74-7.01l1.34,0.54
						h-6.69v-4.48H1617.07z"/>
				</g>
			</g>
			<g>
				<g>
					<path d="M1717.68,15.66h6.37v21.22h-4.67V20.14h-1.7V15.66z"/>
					<path d="M1727.41,32.23V32.2l13.54-16.8h0.03v13.31h2.53v3.52h-2.53v4.64h-4.67v-4.64H1727.41z M1736.53,25.61l-2.46,3.3
						l-0.45-0.19h2.69v-3.33L1736.53,25.61z"/>
				</g>
			</g>
			<g>
				<g>
					<path d="M1843.28,15.66h6.37v21.22h-4.67V20.14h-1.7V15.66z"/>
					<path d="M1860.43,37.13c-1.26,0-2.49-0.23-3.68-0.7c-1.2-0.47-2.12-1.03-2.78-1.7l2.4-3.71c0.38,0.47,0.93,0.86,1.65,1.17
						c0.71,0.31,1.4,0.46,2.06,0.46c0.49,0,0.95-0.11,1.38-0.32c0.43-0.21,0.77-0.53,1.02-0.96s0.38-0.95,0.38-1.57
						c0-0.68-0.13-1.28-0.4-1.79c-0.27-0.51-0.65-0.91-1.15-1.2c-0.5-0.29-1.09-0.43-1.78-0.43c-0.66,0-1.29,0.09-1.89,0.27
						c-0.6,0.18-1.3,0.49-2.11,0.91h-0.03v-11.9h10.59v4.48h-6.59v3.42l-0.54-0.96c0.3-0.04,0.59-0.07,0.86-0.1
						c0.28-0.02,0.55-0.03,0.83-0.03c1.49,0,2.76,0.33,3.79,0.99c1.04,0.66,1.83,1.54,2.38,2.62c0.55,1.09,0.83,2.27,0.83,3.55
						c0,1.41-0.32,2.68-0.96,3.81s-1.51,2.03-2.61,2.69S1861.77,37.13,1860.43,37.13z"/>
				</g>
			</g>
			<g>
				<g>
					<path d="M1967.62,15.66h6.37v21.22h-4.67V20.14h-1.7V15.66z"/>
					<path d="M1986.18,37.13c-1.54,0-2.92-0.36-4.16-1.09c-1.24-0.73-2.22-1.79-2.94-3.2c-0.73-1.41-1.09-3.13-1.09-5.15
						c0-1.26,0.24-2.48,0.72-3.66c0.48-1.18,1.14-2.31,1.98-3.39c0.84-1.08,1.82-2.08,2.93-3.02c1.11-0.94,2.29-1.78,3.55-2.53
						l3.1,3.36c-1.71,0.66-3.1,1.51-4.19,2.54c-1.09,1.04-1.89,2.11-2.4,3.22c-0.51,1.11-0.77,2.13-0.77,3.07l-1.15-0.13
						c0.58-1.34,1.32-2.39,2.22-3.14c0.91-0.75,2.17-1.12,3.79-1.12c1.02,0,2.02,0.29,2.98,0.86c0.96,0.58,1.74,1.38,2.35,2.4
						c0.61,1.02,0.91,2.22,0.91,3.58c0,1.58-0.38,2.92-1.14,4.02c-0.76,1.1-1.73,1.94-2.93,2.51
						C1988.76,36.84,1987.5,37.13,1986.18,37.13z M1985.99,32.97c0.62,0,1.17-0.12,1.65-0.37c0.48-0.25,0.86-0.61,1.14-1.09
						c0.28-0.48,0.42-1.06,0.42-1.74c0-0.66-0.14-1.21-0.43-1.65c-0.29-0.44-0.67-0.77-1.15-0.99c-0.48-0.22-1.02-0.34-1.62-0.34
						c-0.6,0-1.14,0.11-1.62,0.34c-0.48,0.22-0.86,0.52-1.15,0.9c-0.29,0.37-0.43,0.77-0.43,1.2v0.77c0,0.51,0.14,0.99,0.42,1.44
						c0.28,0.45,0.66,0.82,1.15,1.1C1984.85,32.83,1985.39,32.97,1985.99,32.97z"/>
				</g>
			</g>
			<g>
				<g>
					<path d="M2093.58,15.66h6.37v21.22h-4.67V20.14h-1.7V15.66z"/>
					<path d="M2118.61,15.66l-7.9,21.22h-5.18l6.56-17.28l1.5,0.54h-9.31v-4.48H2118.61z"/>
				</g>
			</g>
			<g>
				<g>
					<path d="M2218.15,15.66h6.37v21.22h-4.67V20.14h-1.7V15.66z"/>
					<path d="M2228.65,27.18c0.41-0.77,0.9-1.4,1.49-1.9c0.59-0.5,1.13-0.9,1.62-1.2c-0.47-0.49-0.87-1-1.2-1.52
						c-0.33-0.52-0.5-1.26-0.5-2.22s0.27-1.81,0.82-2.56c0.54-0.75,1.27-1.33,2.19-1.74c0.92-0.42,1.93-0.62,3.04-0.62
						c1.11,0,2.13,0.21,3.06,0.62s1.67,0.98,2.24,1.68c0.56,0.7,0.85,1.5,0.85,2.4c0,1.07-0.18,1.87-0.53,2.4
						c-0.35,0.53-0.78,1.06-1.3,1.57c0.51,0.32,1.05,0.74,1.62,1.25c0.57,0.51,1.05,1.15,1.46,1.9c0.41,0.76,0.61,1.68,0.61,2.77
						c0,1.24-0.35,2.4-1.06,3.49c-0.7,1.09-1.66,1.97-2.86,2.64c-1.21,0.67-2.59,1.01-4.14,1.01s-2.94-0.34-4.14-1.01
						c-1.21-0.67-2.15-1.55-2.83-2.64c-0.68-1.09-1.02-2.25-1.02-3.49C2228.04,28.89,2228.24,27.95,2228.65,27.18z M2233.26,31.51
						c0.3,0.52,0.69,0.94,1.18,1.25c0.49,0.31,1.03,0.46,1.63,0.46c0.62,0,1.18-0.15,1.7-0.46c0.51-0.31,0.92-0.73,1.23-1.25
						c0.31-0.52,0.46-1.09,0.46-1.71s-0.14-1.18-0.43-1.68c-0.29-0.5-0.67-0.91-1.15-1.23c-0.48-0.32-1.02-0.49-1.62-0.51
						c-0.6-0.02-1.16,0.12-1.68,0.42c-0.52,0.3-0.95,0.71-1.28,1.23c-0.33,0.52-0.5,1.12-0.5,1.78
						C2232.81,30.42,2232.96,30.99,2233.26,31.51z M2235.1,22.03c0.35,0.32,0.72,0.48,1.1,0.48s0.75-0.16,1.09-0.48
						c0.34-0.32,0.51-0.69,0.51-1.12s-0.17-0.81-0.5-1.14c-0.33-0.33-0.7-0.5-1.1-0.5s-0.78,0.17-1.12,0.5
						c-0.34,0.33-0.51,0.71-0.51,1.14S2234.75,21.71,2235.1,22.03z"/>
				</g>
			</g>
			<g>
				<g>
					<path d="M2342.96,15.66h6.37v21.22h-4.67V20.14h-1.7V15.66z"/>
					<path d="M2359.57,30.25c-1.02,0-2.01-0.29-2.96-0.86c-0.95-0.58-1.73-1.38-2.35-2.42c-0.62-1.03-0.93-2.22-0.93-3.57
						c0-1.71,0.38-3.16,1.14-4.35c0.76-1.19,1.73-2.1,2.93-2.72c1.19-0.62,2.45-0.93,3.78-0.93c1.56,0,2.95,0.35,4.18,1.04
						c1.23,0.69,2.2,1.64,2.93,2.85c0.73,1.21,1.09,2.57,1.09,4.08c0,1.75-0.3,3.32-0.91,4.72c-0.61,1.4-1.42,2.65-2.43,3.76
						c-1.01,1.11-2.14,2.12-3.38,3.02c-1.24,0.91-2.49,1.75-3.74,2.54l-3.1-3.36c1.71-0.7,3.21-1.51,4.51-2.42
						c1.3-0.91,2.31-1.86,3.04-2.85c0.73-0.99,1.09-1.97,1.09-2.93l1.15,0.13c-0.58,1.34-1.31,2.39-2.21,3.14
						C2362.48,29.88,2361.21,30.25,2359.57,30.25z M2361.36,26.35c0.9,0,1.65-0.29,2.27-0.86c0.62-0.58,0.93-1.23,0.93-1.95v-0.74
						c0-0.55-0.14-1.08-0.42-1.57s-0.66-0.89-1.14-1.2c-0.48-0.31-1.03-0.46-1.65-0.46c-0.6,0-1.14,0.13-1.63,0.4
						c-0.49,0.27-0.88,0.66-1.15,1.17c-0.28,0.51-0.42,1.14-0.42,1.89c0,0.73,0.14,1.34,0.43,1.84c0.29,0.5,0.67,0.88,1.15,1.12
						C2360.23,26.22,2360.77,26.35,2361.36,26.35z"/>
				</g>
			</g>
			<g>
				<g>
					<path d="M2462.99,36.87c1.32-1.34,2.59-2.64,3.81-3.89c1.22-1.25,2.31-2.45,3.28-3.62c0.97-1.16,1.74-2.29,2.3-3.38
						c0.56-1.09,0.85-2.14,0.85-3.17c0-0.45-0.08-0.85-0.24-1.22c-0.16-0.36-0.38-0.67-0.67-0.93c-0.29-0.26-0.63-0.45-1.02-0.59
						c-0.4-0.14-0.84-0.21-1.33-0.21c-0.49,0-0.93,0.07-1.31,0.21c-0.38,0.14-0.7,0.33-0.96,0.56c-0.26,0.24-0.45,0.49-0.59,0.77
						c-0.14,0.28-0.21,0.57-0.21,0.86c0,0.68,0.11,1.29,0.34,1.81c0.22,0.52,0.53,0.99,0.91,1.39l-2.85,2.59
						c-0.62-0.3-1.15-0.8-1.58-1.5c-0.44-0.7-0.77-1.44-0.99-2.22c-0.22-0.78-0.34-1.42-0.34-1.94c0-1.17,0.32-2.29,0.98-3.36
						c0.65-1.07,1.6-1.94,2.85-2.62c1.25-0.68,2.77-1.02,4.56-1.02c1.47,0,2.75,0.33,3.84,0.99c1.09,0.66,1.94,1.53,2.54,2.61
						c0.61,1.08,0.91,2.22,0.91,3.44c0,0.96-0.15,1.89-0.45,2.78s-0.71,1.78-1.23,2.64c-0.52,0.86-1.12,1.72-1.78,2.56
						c-0.66,0.84-1.34,1.7-2.05,2.58l-2.11-0.61h7.87v4.48H2462.99z"/>
					<path d="M2489.96,36.91c-1.22,0-2.36-0.21-3.44-0.64c-1.08-0.43-2.03-1.08-2.85-1.97c-0.82-0.88-1.47-2-1.94-3.36
						c-0.47-1.35-0.7-2.95-0.7-4.78c0-2.05,0.22-3.76,0.67-5.14c0.45-1.38,1.07-2.48,1.87-3.31s1.74-1.42,2.83-1.78
						s2.27-0.53,3.55-0.53c1.22,0,2.36,0.21,3.44,0.64c1.08,0.43,2.03,1.08,2.85,1.97s1.47,2.01,1.94,3.36
						c0.47,1.35,0.7,2.95,0.7,4.78c0,1.9-0.24,3.53-0.7,4.9c-0.47,1.37-1.12,2.48-1.95,3.34c-0.83,0.86-1.78,1.5-2.85,1.9
						C2492.32,36.7,2491.18,36.91,2489.96,36.91z M2489.93,32.46c1.07,0,1.9-0.28,2.5-0.85c0.6-0.56,1.02-1.34,1.26-2.32
						c0.25-0.98,0.37-2.07,0.37-3.26c0-1.17-0.12-2.22-0.37-3.14c-0.25-0.92-0.67-1.65-1.26-2.19c-0.6-0.54-1.43-0.82-2.5-0.82
						c-1.05,0-1.87,0.28-2.46,0.83c-0.6,0.56-1.01,1.3-1.25,2.24c-0.24,0.94-0.35,2-0.35,3.17c0,1.17,0.12,2.24,0.35,3.2
						c0.23,0.96,0.65,1.72,1.25,2.29C2488.07,32.18,2488.89,32.46,2489.93,32.46z"/>
				</g>
			</g>
		</g>
		<g id="Bottom_Index">
			<g>
				<g>
					<path d="M108.9,2575.31h-6.37v-21.22h4.67v16.74h1.7V2575.31z"/>
				</g>
			</g>
			<g>
				<g>
					<path d="M237.63,2554.09c-1.32,1.34-2.59,2.64-3.81,3.89c-1.22,1.25-2.31,2.45-3.28,3.62c-0.97,1.16-1.74,2.29-2.3,3.38
						c-0.56,1.09-0.85,2.14-0.85,3.17c0,0.45,0.08,0.85,0.24,1.22c0.16,0.36,0.38,0.67,0.67,0.93c0.29,0.26,0.63,0.45,1.02,0.59
						c0.4,0.14,0.84,0.21,1.33,0.21c0.49,0,0.93-0.07,1.31-0.21c0.38-0.14,0.7-0.33,0.96-0.56c0.26-0.24,0.45-0.49,0.59-0.77
						c0.14-0.28,0.21-0.57,0.21-0.87c0-0.68-0.11-1.29-0.34-1.81c-0.22-0.52-0.53-0.99-0.91-1.39l2.85-2.59
						c0.62,0.3,1.15,0.8,1.58,1.5c0.44,0.7,0.77,1.45,0.99,2.22s0.34,1.42,0.34,1.94c0,1.17-0.32,2.29-0.98,3.36
						c-0.65,1.07-1.6,1.94-2.85,2.63c-1.25,0.68-2.77,1.02-4.56,1.02c-1.47,0-2.75-0.33-3.84-0.99c-1.09-0.66-1.94-1.53-2.54-2.61
						c-0.61-1.08-0.91-2.22-0.91-3.44c0-0.96,0.15-1.89,0.45-2.78c0.3-0.9,0.71-1.78,1.23-2.64c0.52-0.86,1.12-1.72,1.78-2.56
						c0.66-0.84,1.34-1.7,2.05-2.58l2.11,0.61h-7.87v-4.48H237.63z"/>
				</g>
			</g>
			<g>
				<g>
					<path d="M348.9,2575.31l4.8-9.22l2.53,1.38c-0.21,0.08-0.44,0.15-0.69,0.19c-0.24,0.04-0.47,0.06-0.69,0.06
						c-0.75,0.02-1.49-0.06-2.24-0.26c-0.75-0.19-1.42-0.53-2.03-1.02c-0.61-0.49-1.1-1.16-1.47-2.02s-0.56-1.94-0.56-3.26
						c0-1.54,0.36-2.85,1.07-3.95c0.71-1.1,1.65-1.94,2.8-2.51c1.15-0.58,2.4-0.86,3.74-0.86c1.05,0,2.14,0.22,3.3,0.66
						c1.15,0.44,2.07,1.02,2.75,1.74l-2.37,3.84c-0.32-0.41-0.81-0.8-1.47-1.18c-0.66-0.38-1.35-0.58-2.08-0.58
						c-0.47,0-0.93,0.12-1.38,0.35c-0.45,0.23-0.82,0.59-1.12,1.06c-0.3,0.47-0.45,1.04-0.45,1.73c0,0.94,0.26,1.68,0.78,2.24
						c0.52,0.55,1.25,0.83,2.19,0.83c0.64,0,1.13-0.03,1.46-0.08c0.33-0.05,0.66-0.12,0.98-0.21l0.1,0.13l-3.74,7.01l-1.34-0.54
						h6.69v4.48H348.9z"/>
				</g>
			</g>
			<g>
				<g>
					<path d="M488.63,2558.73v0.03l-13.54,16.8h-0.03v-13.31h-2.53v-3.52h2.53v-4.64h4.67v4.64H488.63z M479.51,2565.35l2.46-3.3
						l0.45,0.19h-2.69v3.33L479.51,2565.35z"/>
				</g>
			</g>
			<g>
				<g>
					<path d="M605.68,2553.83c1.26,0,2.49,0.24,3.68,0.71c1.19,0.47,2.12,1.03,2.78,1.7l-2.4,3.71c-0.38-0.47-0.93-0.86-1.65-1.17
						c-0.71-0.31-1.4-0.46-2.06-0.46c-0.49,0-0.95,0.11-1.38,0.32c-0.43,0.21-0.77,0.53-1.02,0.96c-0.26,0.43-0.38,0.95-0.38,1.57
						c0,0.68,0.13,1.28,0.4,1.79c0.27,0.51,0.65,0.91,1.15,1.2c0.5,0.29,1.09,0.43,1.78,0.43c0.66,0,1.29-0.09,1.89-0.27
						c0.6-0.18,1.3-0.49,2.11-0.91h0.03v11.9h-10.59v-4.48h6.59v-3.42l0.54,0.96c-0.3,0.04-0.59,0.08-0.86,0.1
						c-0.28,0.02-0.55,0.03-0.83,0.03c-1.49,0-2.76-0.33-3.79-0.99s-1.83-1.54-2.38-2.62c-0.55-1.09-0.83-2.27-0.83-3.55
						c0-1.41,0.32-2.68,0.96-3.81c0.64-1.13,1.51-2.03,2.61-2.69C603.11,2554.17,604.33,2553.83,605.68,2553.83z"/>
				</g>
			</g>
			<g>
				<g>
					<path d="M729.99,2553.83c1.54,0,2.92,0.36,4.16,1.09c1.24,0.73,2.22,1.79,2.94,3.2c0.73,1.41,1.09,3.13,1.09,5.15
						c0,1.26-0.24,2.48-0.72,3.66s-1.14,2.31-1.98,3.39c-0.84,1.08-1.82,2.09-2.93,3.02s-2.29,1.78-3.55,2.53l-3.1-3.36
						c1.71-0.66,3.1-1.51,4.19-2.54c1.09-1.04,1.89-2.11,2.4-3.22c0.51-1.11,0.77-2.13,0.77-3.07l1.15,0.13
						c-0.58,1.34-1.32,2.39-2.22,3.14s-2.17,1.12-3.79,1.12c-1.02,0-2.02-0.29-2.98-0.86c-0.96-0.58-1.74-1.38-2.35-2.4
						c-0.61-1.02-0.91-2.22-0.91-3.58c0-1.58,0.38-2.92,1.14-4.02c0.76-1.1,1.73-1.94,2.93-2.51
						C727.41,2554.12,728.67,2553.83,729.99,2553.83z M730.18,2557.99c-0.62,0-1.17,0.12-1.65,0.37s-0.86,0.61-1.14,1.09
						c-0.28,0.48-0.42,1.06-0.42,1.74c0,0.66,0.14,1.21,0.43,1.65s0.67,0.77,1.15,0.99c0.48,0.22,1.02,0.34,1.62,0.34
						c0.6,0,1.14-0.11,1.62-0.34c0.48-0.22,0.86-0.52,1.15-0.9c0.29-0.37,0.43-0.77,0.43-1.2v-0.77c0-0.51-0.14-0.99-0.42-1.44
						s-0.66-0.82-1.15-1.1C731.32,2558.14,730.78,2557.99,730.18,2557.99z"/>
				</g>
			</g>
			<g>
				<g>
					<path d="M847.63,2575.31l7.9-21.22h5.18l-6.56,17.28l-1.5-0.54h9.31v4.48H847.63z"/>
				</g>
			</g>
			<g>
				<g>
					<path d="M987.66,2563.79c-0.41,0.77-0.9,1.4-1.49,1.9c-0.59,0.5-1.13,0.9-1.62,1.2c0.47,0.49,0.87,1,1.2,1.52
						c0.33,0.52,0.5,1.26,0.5,2.22c0,0.96-0.27,1.81-0.82,2.56s-1.27,1.33-2.19,1.74c-0.92,0.42-1.93,0.62-3.04,0.62
						c-1.11,0-2.13-0.21-3.06-0.62c-0.93-0.42-1.67-0.98-2.24-1.68c-0.56-0.7-0.85-1.5-0.85-2.4c0-1.07,0.18-1.87,0.53-2.4
						c0.35-0.53,0.78-1.06,1.3-1.57c-0.51-0.32-1.05-0.74-1.62-1.25c-0.56-0.51-1.05-1.15-1.46-1.9c-0.4-0.76-0.61-1.68-0.61-2.77
						c0-1.24,0.35-2.4,1.06-3.49c0.7-1.09,1.66-1.97,2.86-2.64c1.21-0.67,2.59-1.01,4.14-1.01c1.56,0,2.94,0.34,4.14,1.01
						c1.21,0.67,2.15,1.55,2.83,2.64c0.68,1.09,1.02,2.25,1.02,3.49C988.26,2562.08,988.06,2563.02,987.66,2563.79z M983.05,2559.45
						c-0.3-0.52-0.69-0.94-1.18-1.25s-1.03-0.46-1.63-0.46c-0.62,0-1.18,0.15-1.7,0.46s-0.92,0.73-1.23,1.25
						c-0.31,0.52-0.46,1.09-0.46,1.71s0.14,1.18,0.43,1.68c0.29,0.5,0.67,0.91,1.15,1.23s1.02,0.49,1.62,0.51
						c0.6,0.02,1.16-0.12,1.68-0.42c0.52-0.3,0.95-0.71,1.28-1.23c0.33-0.52,0.5-1.12,0.5-1.78
						C983.5,2560.54,983.35,2559.97,983.05,2559.45z M981.21,2568.94c-0.35-0.32-0.72-0.48-1.1-0.48c-0.38,0-0.75,0.16-1.09,0.48
						c-0.34,0.32-0.51,0.69-0.51,1.12c0,0.43,0.17,0.8,0.5,1.14c0.33,0.33,0.7,0.5,1.1,0.5c0.41,0,0.78-0.17,1.12-0.5
						c0.34-0.33,0.51-0.71,0.51-1.14C981.74,2569.63,981.56,2569.26,981.21,2568.94z"/>
				</g>
			</g>
			<g>
				<g>
					<path d="M1106.8,2560.71c1.02,0,2.01,0.29,2.96,0.86c0.95,0.58,1.73,1.38,2.35,2.42c0.62,1.04,0.93,2.22,0.93,3.57
						c0,1.71-0.38,3.16-1.14,4.35c-0.76,1.2-1.73,2.1-2.93,2.72c-1.19,0.62-2.45,0.93-3.78,0.93c-1.56,0-2.95-0.35-4.18-1.04
						c-1.23-0.69-2.2-1.64-2.93-2.85s-1.09-2.56-1.09-4.08c0-1.75,0.3-3.32,0.91-4.72c0.61-1.4,1.42-2.65,2.43-3.76
						c1.01-1.11,2.14-2.12,3.38-3.02c1.24-0.91,2.49-1.75,3.74-2.54l3.1,3.36c-1.71,0.7-3.21,1.51-4.51,2.42
						c-1.3,0.91-2.31,1.86-3.04,2.85c-0.73,0.99-1.09,1.97-1.09,2.93l-1.15-0.13c0.58-1.34,1.31-2.39,2.21-3.14
						C1103.89,2561.09,1105.16,2560.71,1106.8,2560.71z M1105.01,2564.62c-0.9,0-1.65,0.29-2.27,0.86
						c-0.62,0.58-0.93,1.23-0.93,1.95v0.74c0,0.55,0.14,1.08,0.42,1.57s0.66,0.89,1.14,1.2s1.03,0.46,1.65,0.46
						c0.6,0,1.14-0.13,1.63-0.4c0.49-0.27,0.88-0.66,1.15-1.17c0.28-0.51,0.42-1.14,0.42-1.89c0-0.73-0.14-1.34-0.43-1.84
						s-0.67-0.88-1.15-1.12C1106.15,2564.74,1105.61,2564.62,1105.01,2564.62z"/>
				</g>
			</g>
			<g>
				<g>
					<path d="M1244.25,2575.31h-6.37v-21.22h4.67v16.74h1.7V2575.31z"/>
					<path d="M1224.8,2554.06c1.22,0,2.36,0.21,3.44,0.64c1.08,0.43,2.03,1.08,2.85,1.97s1.47,2.01,1.94,3.36
						c0.47,1.35,0.7,2.95,0.7,4.78c0,2.05-0.22,3.76-0.67,5.14c-0.45,1.38-1.07,2.48-1.87,3.31c-0.8,0.83-1.74,1.42-2.83,1.78
						s-2.27,0.53-3.55,0.53c-1.22,0-2.36-0.21-3.44-0.64s-2.03-1.08-2.85-1.97s-1.47-2-1.94-3.36c-0.47-1.35-0.7-2.95-0.7-4.78
						c0-1.9,0.23-3.53,0.7-4.9s1.12-2.48,1.95-3.34c0.83-0.86,1.78-1.5,2.85-1.9C1222.44,2554.26,1223.58,2554.06,1224.8,2554.06z
						 M1224.83,2558.51c-1.07,0-1.9,0.28-2.5,0.85c-0.6,0.57-1.02,1.34-1.26,2.32c-0.25,0.98-0.37,2.07-0.37,3.26
						c0,1.17,0.12,2.22,0.37,3.14c0.25,0.92,0.67,1.65,1.26,2.19c0.6,0.54,1.43,0.82,2.5,0.82c1.05,0,1.87-0.28,2.46-0.83
						s1.01-1.3,1.25-2.24c0.24-0.94,0.35-1.99,0.35-3.17c0-1.17-0.12-2.24-0.35-3.2c-0.23-0.96-0.65-1.72-1.25-2.29
						S1225.87,2558.51,1224.83,2558.51z"/>
				</g>
			</g>
			<g>
				<g>
					<path d="M1364.74,2575.31h-6.37v-21.22h4.67v16.74h1.7V2575.31z"/>
					<path d="M1353.73,2575.31h-6.37v-21.22h4.67v16.74h1.7V2575.31z"/>
				</g>
			</g>
			<g>
				<g>
					<path d="M1493.6,2575.31h-6.37v-21.22h4.67v16.74h1.7V2575.31z"/>
					<path d="M1482.46,2554.09c-1.32,1.34-2.59,2.64-3.81,3.89s-2.31,2.45-3.28,3.62c-0.97,1.16-1.74,2.29-2.3,3.38
						s-0.85,2.14-0.85,3.17c0,0.45,0.08,0.85,0.24,1.22c0.16,0.36,0.38,0.67,0.67,0.93c0.29,0.26,0.63,0.45,1.02,0.59
						c0.4,0.14,0.84,0.21,1.33,0.21c0.49,0,0.93-0.07,1.31-0.21c0.38-0.14,0.71-0.33,0.96-0.56c0.26-0.24,0.45-0.49,0.59-0.77
						c0.14-0.28,0.21-0.57,0.21-0.87c0-0.68-0.11-1.29-0.34-1.81c-0.22-0.52-0.53-0.99-0.91-1.39l2.85-2.59
						c0.62,0.3,1.15,0.8,1.58,1.5c0.44,0.7,0.77,1.45,0.99,2.22s0.34,1.42,0.34,1.94c0,1.17-0.33,2.29-0.98,3.36
						s-1.6,1.94-2.85,2.63c-1.25,0.68-2.77,1.02-4.56,1.02c-1.47,0-2.75-0.33-3.84-0.99c-1.09-0.66-1.94-1.53-2.54-2.61
						c-0.61-1.08-0.91-2.22-0.91-3.44c0-0.96,0.15-1.89,0.45-2.78s0.71-1.78,1.23-2.64c0.52-0.86,1.12-1.72,1.78-2.56
						c0.66-0.84,1.34-1.7,2.05-2.58l2.11,0.61h-7.87v-4.48H1482.46z"/>
				</g>
			</g>
			<g>
				<g>
					<path d="M1617.74,2575.31h-6.37v-21.22h4.67v16.74h1.7V2575.31z"/>
					<path d="M1593.74,2575.31l4.8-9.22l2.53,1.38c-0.21,0.08-0.44,0.15-0.69,0.19s-0.47,0.06-0.69,0.06
						c-0.75,0.02-1.49-0.06-2.24-0.26c-0.75-0.19-1.42-0.53-2.03-1.02c-0.61-0.49-1.1-1.16-1.47-2.02s-0.56-1.94-0.56-3.26
						c0-1.54,0.36-2.85,1.07-3.95c0.71-1.1,1.65-1.94,2.8-2.51c1.15-0.58,2.4-0.86,3.74-0.86c1.04,0,2.14,0.22,3.3,0.66
						c1.15,0.44,2.07,1.02,2.75,1.74l-2.37,3.84c-0.32-0.41-0.81-0.8-1.47-1.18c-0.66-0.38-1.35-0.58-2.08-0.58
						c-0.47,0-0.93,0.12-1.38,0.35c-0.45,0.23-0.82,0.59-1.12,1.06c-0.3,0.47-0.45,1.04-0.45,1.73c0,0.94,0.26,1.68,0.79,2.24
						c0.52,0.55,1.25,0.83,2.19,0.83c0.64,0,1.13-0.03,1.46-0.08c0.33-0.05,0.66-0.12,0.98-0.21l0.1,0.13l-3.74,7.01l-1.34-0.54
						h6.69v4.48H1593.74z"/>
				</g>
			</g>
			<g>
				<g>
					<path d="M1743.19,2575.31h-6.37v-21.22h4.67v16.74h1.7V2575.31z"/>
					<path d="M1733.46,2558.73v0.03l-13.54,16.8h-0.03v-13.31h-2.53v-3.52h2.53v-4.64h4.67v4.64H1733.46z M1724.34,2565.35l2.46-3.3
						l0.45,0.19h-2.69v3.33L1724.34,2565.35z"/>
				</g>
			</g>
			<g>
				<g>
					<path d="M1867.66,2575.31h-6.37v-21.22h4.67v16.74h1.7V2575.31z"/>
					<path d="M1850.51,2553.83c1.26,0,2.49,0.24,3.68,0.71c1.2,0.47,2.12,1.03,2.79,1.7l-2.4,3.71c-0.38-0.47-0.93-0.86-1.65-1.17
						s-1.4-0.46-2.06-0.46c-0.49,0-0.95,0.11-1.38,0.32c-0.43,0.21-0.77,0.53-1.02,0.96c-0.26,0.43-0.38,0.95-0.38,1.57
						c0,0.68,0.13,1.28,0.4,1.79c0.27,0.51,0.65,0.91,1.15,1.2s1.09,0.43,1.78,0.43c0.66,0,1.29-0.09,1.89-0.27
						c0.6-0.18,1.3-0.49,2.11-0.91h0.03v11.9h-10.59v-4.48h6.59v-3.42l0.54,0.96c-0.3,0.04-0.59,0.08-0.87,0.1
						c-0.28,0.02-0.55,0.03-0.83,0.03c-1.49,0-2.76-0.33-3.79-0.99s-1.83-1.54-2.38-2.62c-0.55-1.09-0.83-2.27-0.83-3.55
						c0-1.41,0.32-2.68,0.96-3.81c0.64-1.13,1.51-2.03,2.61-2.69C1847.94,2554.17,1849.16,2553.83,1850.51,2553.83z"/>
				</g>
			</g>
			<g>
				<g>
					<path d="M1993.38,2575.31h-6.37v-21.22h4.67v16.74h1.7V2575.31z"/>
					<path d="M1974.82,2553.83c1.54,0,2.92,0.36,4.16,1.09c1.24,0.73,2.22,1.79,2.94,3.2c0.73,1.41,1.09,3.13,1.09,5.15
						c0,1.26-0.24,2.48-0.72,3.66c-0.48,1.18-1.14,2.31-1.98,3.39s-1.82,2.09-2.93,3.02s-2.29,1.78-3.55,2.53l-3.1-3.36
						c1.71-0.66,3.1-1.51,4.19-2.54c1.09-1.04,1.89-2.11,2.4-3.22c0.51-1.11,0.77-2.13,0.77-3.07l1.15,0.13
						c-0.58,1.34-1.32,2.39-2.22,3.14s-2.17,1.12-3.79,1.12c-1.02,0-2.02-0.29-2.98-0.86c-0.96-0.58-1.74-1.38-2.35-2.4
						c-0.61-1.02-0.91-2.22-0.91-3.58c0-1.58,0.38-2.92,1.14-4.02c0.76-1.1,1.73-1.94,2.93-2.51
						C1972.24,2554.12,1973.5,2553.83,1974.82,2553.83z M1975.01,2557.99c-0.62,0-1.17,0.12-1.65,0.37
						c-0.48,0.25-0.86,0.61-1.14,1.09c-0.28,0.48-0.42,1.06-0.42,1.74c0,0.66,0.14,1.21,0.43,1.65c0.29,0.44,0.67,0.77,1.15,0.99
						c0.48,0.22,1.02,0.34,1.62,0.34s1.14-0.11,1.62-0.34c0.48-0.22,0.87-0.52,1.15-0.9c0.29-0.37,0.43-0.77,0.43-1.2v-0.77
						c0-0.51-0.14-0.99-0.42-1.44s-0.66-0.82-1.15-1.1C1976.16,2558.14,1975.61,2557.99,1975.01,2557.99z"/>
				</g>
			</g>
			<g>
				<g>
					<path d="M2117.49,2575.31h-6.37v-21.22h4.67v16.74h1.7V2575.31z"/>
					<path d="M2092.46,2575.31l7.9-21.22h5.18l-6.56,17.28l-1.5-0.54h9.31v4.48H2092.46z"/>
				</g>
			</g>
			<g>
				<g>
					<path d="M2242.98,2575.31h-6.37v-21.22h4.67v16.74h1.7V2575.31z"/>
					<path d="M2232.49,2563.79c-0.41,0.77-0.9,1.4-1.49,1.9s-1.13,0.9-1.62,1.2c0.47,0.49,0.87,1,1.2,1.52
						c0.33,0.52,0.5,1.26,0.5,2.22c0,0.96-0.27,1.81-0.82,2.56c-0.54,0.75-1.28,1.33-2.19,1.74s-1.93,0.62-3.04,0.62
						s-2.13-0.21-3.06-0.62c-0.93-0.42-1.67-0.98-2.24-1.68c-0.57-0.7-0.85-1.5-0.85-2.4c0-1.07,0.18-1.87,0.53-2.4
						c0.35-0.53,0.78-1.06,1.3-1.57c-0.51-0.32-1.05-0.74-1.62-1.25c-0.57-0.51-1.05-1.15-1.46-1.9c-0.4-0.76-0.61-1.68-0.61-2.77
						c0-1.24,0.35-2.4,1.06-3.49c0.7-1.09,1.66-1.97,2.86-2.64s2.59-1.01,4.14-1.01c1.56,0,2.94,0.34,4.14,1.01
						c1.21,0.67,2.15,1.55,2.83,2.64s1.02,2.25,1.02,3.49C2233.1,2562.08,2232.89,2563.02,2232.49,2563.79z M2227.88,2559.45
						c-0.3-0.52-0.69-0.94-1.18-1.25s-1.04-0.46-1.63-0.46c-0.62,0-1.18,0.15-1.7,0.46s-0.92,0.73-1.23,1.25
						c-0.31,0.52-0.46,1.09-0.46,1.71s0.14,1.18,0.43,1.68c0.29,0.5,0.67,0.91,1.15,1.23c0.48,0.32,1.02,0.49,1.62,0.51
						c0.6,0.02,1.16-0.12,1.68-0.42c0.52-0.3,0.95-0.71,1.28-1.23s0.5-1.12,0.5-1.78
						C2228.33,2560.54,2228.18,2559.97,2227.88,2559.45z M2226.04,2568.94c-0.35-0.32-0.72-0.48-1.1-0.48
						c-0.38,0-0.75,0.16-1.09,0.48c-0.34,0.32-0.51,0.69-0.51,1.12c0,0.43,0.17,0.8,0.5,1.14s0.7,0.5,1.1,0.5s0.78-0.17,1.12-0.5
						c0.34-0.33,0.51-0.71,0.51-1.14C2226.57,2569.63,2226.39,2569.26,2226.04,2568.94z"/>
				</g>
			</g>
			<g>
				<g>
					<path d="M2368.24,2575.31h-6.37v-21.22h4.67v16.74h1.7V2575.31z"/>
					<path d="M2351.63,2560.71c1.02,0,2.01,0.29,2.96,0.86c0.95,0.58,1.73,1.38,2.35,2.42s0.93,2.22,0.93,3.57
						c0,1.71-0.38,3.16-1.14,4.35c-0.76,1.2-1.73,2.1-2.93,2.72c-1.19,0.62-2.45,0.93-3.78,0.93c-1.56,0-2.95-0.35-4.18-1.04
						c-1.23-0.69-2.2-1.64-2.93-2.85c-0.73-1.21-1.09-2.56-1.09-4.08c0-1.75,0.3-3.32,0.91-4.72c0.61-1.4,1.42-2.65,2.43-3.76
						c1.01-1.11,2.14-2.12,3.38-3.02c1.24-0.91,2.49-1.75,3.74-2.54l3.1,3.36c-1.71,0.7-3.21,1.51-4.51,2.42
						c-1.3,0.91-2.31,1.86-3.04,2.85c-0.73,0.99-1.09,1.97-1.09,2.93l-1.15-0.13c0.58-1.34,1.31-2.39,2.21-3.14
						C2348.72,2561.09,2349.99,2560.71,2351.63,2560.71z M2349.84,2564.62c-0.9,0-1.65,0.29-2.27,0.86
						c-0.62,0.58-0.93,1.23-0.93,1.95v0.74c0,0.55,0.14,1.08,0.42,1.57s0.66,0.89,1.14,1.2c0.48,0.31,1.03,0.46,1.65,0.46
						c0.6,0,1.14-0.13,1.63-0.4c0.49-0.27,0.88-0.66,1.15-1.17s0.42-1.14,0.42-1.89c0-0.73-0.14-1.34-0.43-1.84
						c-0.29-0.5-0.67-0.88-1.15-1.12C2350.98,2564.74,2350.44,2564.62,2349.84,2564.62z"/>
				</g>
			</g>
			<g>
				<g>
					<path d="M2498.29,2554.09c-1.32,1.34-2.59,2.64-3.81,3.89c-1.22,1.25-2.31,2.45-3.28,3.62c-0.97,1.16-1.74,2.29-2.3,3.38
						c-0.56,1.09-0.85,2.14-0.85,3.17c0,0.45,0.08,0.85,0.24,1.22c0.16,0.36,0.38,0.67,0.67,0.93c0.29,0.26,0.63,0.45,1.02,0.59
						c0.39,0.14,0.84,0.21,1.33,0.21c0.49,0,0.93-0.07,1.31-0.21c0.38-0.14,0.7-0.33,0.96-0.56c0.26-0.24,0.45-0.49,0.59-0.77
						c0.14-0.28,0.21-0.57,0.21-0.87c0-0.68-0.11-1.29-0.34-1.81c-0.22-0.52-0.53-0.99-0.91-1.39l2.85-2.59
						c0.62,0.3,1.15,0.8,1.58,1.5c0.44,0.7,0.77,1.45,0.99,2.22s0.34,1.42,0.34,1.94c0,1.17-0.32,2.29-0.98,3.36
						c-0.65,1.07-1.6,1.94-2.85,2.63c-1.25,0.68-2.77,1.02-4.56,1.02c-1.47,0-2.75-0.33-3.84-0.99c-1.09-0.66-1.94-1.53-2.54-2.61
						c-0.61-1.08-0.91-2.22-0.91-3.44c0-0.96,0.15-1.89,0.45-2.78c0.3-0.9,0.71-1.78,1.23-2.64c0.52-0.86,1.12-1.72,1.78-2.56
						c0.66-0.84,1.34-1.7,2.05-2.58l2.11,0.61h-7.87v-4.48H2498.29z"/>
					<path d="M2471.31,2554.06c1.22,0,2.36,0.21,3.44,0.64s2.03,1.08,2.85,1.97c0.82,0.88,1.47,2.01,1.94,3.36s0.7,2.95,0.7,4.78
						c0,2.05-0.22,3.76-0.67,5.14c-0.45,1.38-1.07,2.48-1.87,3.31c-0.8,0.83-1.74,1.42-2.83,1.78s-2.27,0.53-3.55,0.53
						c-1.22,0-2.36-0.21-3.44-0.64s-2.03-1.08-2.85-1.97c-0.82-0.89-1.47-2-1.94-3.36c-0.47-1.35-0.7-2.95-0.7-4.78
						c0-1.9,0.23-3.53,0.7-4.9s1.12-2.48,1.95-3.34c0.83-0.86,1.78-1.5,2.85-1.9C2468.95,2554.26,2470.09,2554.06,2471.31,2554.06z
						 M2471.34,2558.51c-1.07,0-1.9,0.28-2.5,0.85c-0.6,0.57-1.02,1.34-1.26,2.32c-0.25,0.98-0.37,2.07-0.37,3.26
						c0,1.17,0.12,2.22,0.37,3.14c0.25,0.92,0.67,1.65,1.26,2.19c0.6,0.54,1.43,0.82,2.5,0.82c1.05,0,1.87-0.28,2.46-0.83
						c0.6-0.55,1.01-1.3,1.25-2.24c0.24-0.94,0.35-1.99,0.35-3.17c0-1.17-0.12-2.24-0.35-3.2c-0.23-0.96-0.65-1.72-1.25-2.29
						C2473.21,2558.79,2472.39,2558.51,2471.34,2558.51z"/>
				</g>
			</g>
		</g>
	</g>
	<rect id="Sea" x="44.07" y="42.52" class="st2" width="2505.17" height="2505.17"/>
</g>
<g id="Working_Layer">
</g>
</svg>
