<?xml version="1.0" encoding="utf-8"?>
<!-- Generator: Adobe Illustrator 24.1.2, SVG Export Plug-In . SVG Version: 6.00 Build 0)  -->
<svg version="1.1" id="Raster_Template" xmlns="http://www.w3.org/2000/svg" xmlns:xlink="http://www.w3.org/1999/xlink" x="0px"
	 y="0px" viewBox="0 0 2592 2592" style="enable-background:new 0 0 2592 2592;display:none;" xml:space="preserve">
<style type="text/css">
	.st0{fill:#97D4C6;stroke:#000000;stroke-width:2;stroke-miterlimit:10;}
	.st1{fill:#FFFEF2;}
	.st2{fill:#FFFEF1;}
	.st3{fill:#FFFFFF;stroke:#000000;stroke-miterlimit:10;}
	.st4{fill:none;stroke:#000000;stroke-width:2;stroke-miterlimit:10;}
	.st5{fill:#DF5426;stroke:#000000;stroke-miterlimit:10;}
	.st6{fill:#FFFFFF;stroke:#010101;stroke-width:0.5;stroke-miterlimit:20;}
	.st7{fill:#FFFFFF;stroke:#000000;stroke-width:2;stroke-miterlimit:10;}
</style>
<rect id="Sea" x="44.07" y="42.52" style="display:inline;fill:#97D4C6;stroke:#000000;stroke-width:2;stroke-miterlimit:10;" width="2505.17" height="2505.17"/>
<path id="Island_BG" style="display:inline;fill:#FFFEF2;" d="M267.81,2446.68c0.79-10.17,21.36-18.08,18.2-32.32
	c-3.16-14.24-48.71-79.12-82.11-87.82c-33.4-8.7-86.41-17.41-115.69,3.96c-18.79,13.71-34.96,12.97-44.14,10.68v159.47
	c3.93-4.7,6.91-11.14,12.49-10.51c8.7,0.98,18.2,8.66,27.69,7.59c9.49-1.07,30.07-27.18,38.77-30.35c8.7-3.16,16.62,1.95,22.15-3.38
	s3.96-16.4,7.91-17.19c3.96-0.79,18.99,2.37,22.95,9.49s-0.79,29.69,8.7,33.83c9.49,4.14,16.62-14.05,25.32-4.56
	c8.7,9.49,13.45,20.57,22.95,19.78c9.49-0.79,21.36-17.78,30.07-15.22s36.4-3.77,36.4-9.31
	C299.46,2475.29,267.02,2456.85,267.81,2446.68z"/>
<path id="Mainland_BG" style="display:inline;fill:#FFFEF1;" d="M2549.24,327.91c-0.61-133.17-1-215.44-1-215.44l-45.79,1.05
	c0,0,0,0-11.6-2.64c-11.6-2.64-17.41-7.91-26.37-12c-8.97-4.09-27.96-7.52-37.98-8.57s-39.56-10.55-50.64-17.56
	s-85.45,2.26-93.89,2.24s-32.7,11.62-44.31,20.06c-11.6,8.44-52.22,11.6-58.02,10.86c-5.8-0.74-16.35-9.81-21.1-12.44
	c-4.75-2.64-22.15-3.16-29.54-4.75c-7.38-1.58-15.82-13.19-23.46-13.71s-14.51,9.49-19.79,11.6c-5.27,2.11-23.21,2.11-32.7,3.69
	c-9.49,1.58-30.59,16.35-37.45,19.52c-6.86,3.16-17.93,0-27.43,0.53c-9.49,0.53-41.14,22.68-46.95,25.32c-5.8,2.64-32.7,0-42.73,0
	s-34.29-11.6-43.03-12.13c-8.74-0.53-27.66,12.13-33.46,12.13s-56.44-23.21-60.66-26.37c-4.22-3.16-8.97-14.24-13.19-17.41
	c-4.22-3.16-11.08,0.53-17.73-1.05c-6.65-1.58-12.86-11.08-33.43-12.66c-20.57-1.58-89.67,35.87-102.33,35.87
	c-12.66,0-64.35-21.1-80.18-22.15c-15.82-1.05-59.6,11.6-63.82,11.69c-4.22,0.08-2.11-4.83-7.91-6.41
	c-5.8-1.58-23.74-3.16-35.87-3.16s-36.4,7.91-45.36,7.58c-11.61-0.44-18.99-5.47-28.48-9.69s-12.13,0-22.15-0.36
	c-7.91-0.29-30.07-16.52-35.34-16.52s-50.11,19.52-62.77,22.15c-12.66,2.64-44.31,2.11-60.66,3.69
	c-16.35,1.58-146.11,28.48-179.34,28.48s-111.82-7.91-125.01-11.08s-42.73-17.41-58.55-17.93s-27.43,5.27-37.98,10.89
	s-37.45,11.79-49.58,13.9c-12.13,2.11-48.53,0-59.08,0c-10.55,0-15.82,3.69-25.85,5.8c-10.02,2.11-137.67,1.05-153.49,0
	c-15.82-1.05-26.37-7.38-49.58-14.24c-23.21-6.86-81.76,1.58-101.8,1.05c-20.04-0.53-82.81-27.43-91.78-27.43
	s-91.25,28.48-119.21,31.12c-22.44,2.12-40.46-1.55-56.8-6.35v1960.76c11.55,1.88,35.09,5.55,49.41,10.59
	c18.46,6.49,32.7,6.17,49.58,16.19c16.88,10.02,56.44,73.85,58.55,81.76c2.11,7.91-2.64,29.01,1.05,34.29
	c3.69,5.27,21.63-0.53,35.34,5.27s13.19,39.56,24.26,45.89c11.08,6.33,35.34,22.15,44.84,37.45c9.49,15.3,128.7,49.05,135.56,52.75
	c6.86,3.69,20.04-4.75,25.32-8.44c5.27-3.69,21.63,1.06,30.59,7.91c8.97,6.86,0,30.59,3.16,39.56s65.41,20.04,87.56,20.04
	c22.15,0,40.62,12.13,65.93,23.74s39.56,3.16,52.22,2.64c12.66-0.53,28.48,12.66,37.98,8.97c9.49-3.69-3.16-28.48-11.6-49.58
	c-8.44-21.1-8.97-39.03,6.33-45.36c15.3-6.33,44.31,49.06,52.22,59.6c7.91,10.55,22.68,2.64,45.36,1.05
	c22.68-1.58,18.99,40.62,54.86,9.49c35.87-31.12,44.31-119.74,34.29-159.82c-10.02-40.09,32.7-71.74,50.64-97.05
	c17.93-25.32,8.97-106.02-7.38-162.46c-16.35-56.44,33.76-102.33,58.02-139.78c24.26-37.45,12.66-137.14,10.55-148.22
	c-2.11-11.08,11.6-23.74,22.68-38.51c11.08-14.77,13.19-35.87,15.82-50.11c2.64-14.24,20.57-22.15,43.25-36.92
	c22.68-14.77,18.46-29.01,37.45-47.47c18.99-18.46,68.04-20.57,73.32-8.44c5.27,12.13-10.55,19.52-10.55,35.34
	s49.05,44.31,65.93,45.36c16.88,1.05,75.96-80.7,85.98-85.45c10.02-4.75,35.87-6.86,58.02-7.91c22.15-1.05,24.26,43.78,28.48,58.55
	c4.22,14.77-159.82,96-185.14,97.05s-84.4,30.07-88.62,45.89c-4.22,15.82,30.59,56.97,55.38,77.54
	c24.79,20.57,103.38,42.2,128.7,37.45c25.32-4.75,44.84,2.64,51.16,10.02c6.33,7.38-12.13,24.79-12.66,30.07
	c-0.53,5.27,45.36,27.96,49.58,31.12s5.27,21.1,5.8,26.37c0.53,5.27,18.99,14.77,22.68,22.68s0.53,39.03,8.97,49.58
	s43.78,11.6,61.19,11.08c17.41-0.53,37.98-5.8,43.25-3.69s3.16,12.66-1.58,18.99c-4.75,6.33-26.9,12.13-31.65,17.41
	c-4.75,5.27,4.75,15.3,0.53,27.96c-4.22,12.66-83.87,29.01-84.4,44.84c-0.53,15.82,63.3,58.55,63.3,72.26s-29.01,35.87-30.59,45.89
	s5.8,12.66,9.49,31.65s-17.93,64.88-36.92,90.73c-18.99,25.85-107.08,72.79-117.63,79.65s-32.7,2.64-36.92,3.17
	c-4.22,0.53-22.68,8.97-22.15,27.43c0.53,18.46,48,13.19,61.71,12.13s42.73,7.38,57.49,6.86c14.77-0.53,59.6-30.07,76.4-42.2
	s59.16-8.44,71.82-13.19c12.66-4.75,46.95-66.46,56.44-74.37c9.49-7.91,43.25-23.74,60.13-31.65s33.76-53.27,49.58-65.41
	s65.93-1.58,76.48-7.38s15.3-23.21,18.46-30.59c3.16-7.38,34.81-22.15,45.89-34.29c11.08-12.13,103.91-111.3,108.13-108.13
	c4.22,3.17-5.27,39.56-10.55,48c-5.27,8.44,5.8,38.51,10.55,45.89c4.75,7.38,33.76-5.8,41.14-6.33c7.38-0.53,26.37,6.86,40.62,5.27
	c14.24-1.58,106.02-40.62,108.13-37.45s-17.93,27.43-32.7,44.31c-14.77,16.88-69.1,52.75-63.82,63.3
	c5.27,10.55,79.12-32.18,80.7-30.07c1.58,2.11-6.33,12.66-11.08,18.99c-4.75,6.33-51.69,31.65-65.93,33.76
	c-14.24,2.11-75.96,26.9-83.86,36.92c-7.9,10.02-35.88,57.49-40.62,64.88c-4.75,7.38-27.43,15.82-33.23,20.57
	c-5.8,4.75-31.65,43.78-21.63,62.85c6.22,11.84,133.45-63.38,139.25-58.1c5.8,5.27-21.63,44.83-15.3,51.16
	c6.33,6.33,40.62-14.77,46.95-19.52c6.33-4.75,15.82-37.45,23.48-41.14c7.66-3.69,64.61-42.73,71.46-48
	c6.86-5.27,43.78,2.64,53.57,3.16c9.79,0.53,12.36-11.08,26.13-13.98s30.54,12.92,32.65,26.13s78.07,91.23,112.35,99.72
	c29.36,7.27,120.6-59.06,147.54-80.59V327.91z"/>
<g id="Border" style="display:inline;">
	<path id="White_Background" class="st3" d="M0.66,0v2592h2592V0H0.66z M2549.24,2547.69H44.07V42.52h2505.17V2547.69z"/>
	<rect id="Outer_Border" x="10.1" y="9.44" class="st4" width="2573.11" height="2573.11"/>
	<g id="Left_Index">
		<g>
			<g>
				<path d="M38.67,109.64L14.19,99.02v-0.26l24.48-10.62v5.38l-17.22,6.78l-2.3-3.36l19.52,8.13V109.64z M30.16,102.38v-7.07
					l3.9-1.63v10.14L30.16,102.38z"/>
			</g>
		</g>
		<g>
			<g>
				<path d="M15.12,225.14c0-2.45,0.5-4.4,1.49-5.86c0.99-1.45,2.47-2.18,4.43-2.18c1.45,0,2.66,0.36,3.63,1.07
					c0.97,0.72,1.7,1.69,2.18,2.91c0.48,1.23,0.72,2.63,0.72,4.21l-2.5,0.74c0-1.94,0.27-3.66,0.8-5.17s1.3-2.69,2.29-3.57
					c0.99-0.87,2.18-1.31,3.57-1.31c1.28,0,2.36,0.23,3.25,0.69c0.89,0.46,1.6,1.08,2.14,1.86c0.54,0.78,0.94,1.66,1.18,2.64
					c0.25,0.98,0.37,2,0.37,3.04v7.84H15.12V225.14z M24.75,224.6c0-0.92-0.28-1.59-0.83-2.03c-0.55-0.44-1.18-0.66-1.89-0.66
					c-0.81,0-1.42,0.27-1.82,0.82s-0.61,1.28-0.61,2.19v2.5h5.15V224.6z M34.35,224.44c0-0.68-0.09-1.3-0.27-1.86
					c-0.18-0.55-0.47-0.99-0.86-1.31c-0.39-0.32-0.89-0.48-1.49-0.48c-0.68,0-1.2,0.19-1.55,0.58s-0.6,0.88-0.74,1.49
					c-0.14,0.61-0.21,1.24-0.21,1.9v2.66h5.12V224.44z"/>
			</g>
		</g>
		<g>
			<g>
				<path d="M36.72,341.05c0.21,0.26,0.5,0.73,0.86,1.42s0.68,1.54,0.96,2.54c0.28,1,0.4,2.11,0.38,3.33
					c-0.04,1.86-0.38,3.52-1.01,4.98c-0.63,1.46-1.49,2.7-2.58,3.71c-1.09,1.01-2.34,1.79-3.74,2.32c-1.41,0.53-2.91,0.8-4.51,0.8
					c-1.79,0-3.43-0.27-4.93-0.82c-1.49-0.54-2.78-1.32-3.87-2.34c-1.09-1.01-1.93-2.22-2.53-3.63c-0.6-1.41-0.9-2.97-0.9-4.67
					c0-1.58,0.21-2.98,0.64-4.19s0.89-2.21,1.38-2.98l4.38,1.82c-0.4,0.53-0.83,1.24-1.26,2.13c-0.44,0.89-0.66,1.9-0.66,3.06
					c0,0.9,0.19,1.75,0.56,2.58c0.37,0.82,0.9,1.55,1.58,2.18c0.68,0.63,1.48,1.13,2.38,1.49c0.91,0.36,1.89,0.54,2.96,0.54
					c1.13,0,2.17-0.17,3.1-0.5c0.94-0.33,1.74-0.8,2.42-1.42c0.67-0.62,1.19-1.36,1.55-2.22c0.36-0.86,0.54-1.84,0.54-2.93
					c0-1.26-0.2-2.34-0.61-3.23c-0.4-0.9-0.83-1.58-1.28-2.05L36.72,341.05z"/>
			</g>
		</g>
		<g>
			<g>
				<path d="M38.67,485.75H15.12v-7.04c0-2.37,0.35-4.38,1.06-6.05s1.64-3,2.82-4.02c1.17-1.01,2.49-1.75,3.94-2.22
					c1.45-0.47,2.91-0.7,4.38-0.7c1.75,0,3.32,0.31,4.72,0.94c1.4,0.63,2.59,1.49,3.58,2.58c0.99,1.09,1.75,2.35,2.27,3.78
					c0.52,1.43,0.78,2.94,0.78,4.54V485.75z M34.19,481.11v-2.75c0-1.17-0.15-2.24-0.46-3.2c-0.31-0.96-0.76-1.79-1.36-2.48
					c-0.6-0.69-1.35-1.23-2.26-1.6c-0.91-0.37-1.95-0.56-3.12-0.56c-1.54,0-2.79,0.25-3.76,0.75c-0.97,0.5-1.72,1.12-2.26,1.86
					s-0.9,1.49-1.1,2.26c-0.2,0.77-0.3,1.42-0.3,1.95v3.78H34.19z"/>
			</g>
		</g>
		<g>
			<g>
				<path d="M15.12,609.92v-16.06h4.48v11.42h5.02v-10.11h4.48v10.11h5.09v-11.87h4.48v16.51H15.12z"/>
			</g>
		</g>
		<g>
			<g>
				<path d="M15.12,734.72V720h4.48v10.08h5.34v-8.74h4.48v8.74h9.25v4.64H15.12z"/>
			</g>
		</g>
		<g>
			<g>
				<path d="M36.3,844.07c0.3,0.28,0.6,0.71,0.91,1.31c0.31,0.6,0.59,1.29,0.85,2.06c0.26,0.78,0.46,1.57,0.62,2.38
					c0.16,0.81,0.24,1.58,0.24,2.3c0,1.92-0.28,3.65-0.85,5.18s-1.35,2.85-2.37,3.94c-1.01,1.09-2.21,1.92-3.6,2.5
					c-1.39,0.58-2.9,0.86-4.54,0.86c-2.15,0-4.03-0.32-5.62-0.98c-1.59-0.65-2.91-1.54-3.97-2.66s-1.84-2.41-2.35-3.87
					c-0.51-1.46-0.77-2.99-0.77-4.59c0-1.51,0.17-2.9,0.5-4.16c0.33-1.26,0.74-2.33,1.23-3.2l4.32,1.5
					c-0.21,0.38-0.43,0.9-0.64,1.54c-0.21,0.64-0.39,1.29-0.53,1.95c-0.14,0.66-0.21,1.25-0.21,1.76c0,1.28,0.16,2.41,0.48,3.39
					c0.32,0.98,0.8,1.81,1.44,2.48c0.64,0.67,1.44,1.18,2.38,1.52c0.95,0.34,2.05,0.51,3.31,0.51c1.11,0,2.11-0.19,2.99-0.58
					c0.89-0.38,1.64-0.92,2.26-1.62c0.62-0.69,1.09-1.51,1.41-2.46c0.32-0.95,0.48-2,0.48-3.15c0-0.66-0.05-1.27-0.14-1.82
					c-0.1-0.55-0.25-1.02-0.46-1.41h-2.85v4.06h-4.48v-8.77H36.3z"/>
			</g>
		</g>
		<g>
			<g>
				<path d="M15.12,969.97h23.55v4.64H29.1v10.53h9.57v4.64H15.12v-4.64h9.5v-10.53h-9.5V969.97z"/>
			</g>
		</g>
		<g>
			<g>
				<path d="M15.12,1108.05v-4.64h23.55v4.64H15.12z"/>
			</g>
		</g>
		<g>
			<g>
				<path d="M31.71,1228.22c2.05,0,3.8,0.41,5.25,1.22c1.45,0.81,2.56,1.94,3.34,3.38s1.2,3.11,1.26,5.01h-4.51
					c-0.09-1.45-0.53-2.63-1.34-3.55c-0.81-0.92-2.18-1.38-4.1-1.38h-18.5v-4.67H31.71z"/>
			</g>
		</g>
		<g>
			<g>
				<path d="M23.5,1360.96l1.18,0.13l-0.9-0.7l-8.67-7.68v-6.02l10.56,9.73l12.99-9.76v5.89l-10.05,7.26l1.15,1.15h8.9v4.7H15.12
					v-4.7H23.5z"/>
			</g>
		</g>
		<g>
			<g>
				<path d="M15.12,1490.51v-4.64h19.07v-11.07h4.48v15.71H15.12z"/>
			</g>
		</g>
		<g>
			<g>
				<path d="M38.67,1621.27H14.16v-0.03l18.56-13.09l-0.45,1.98l-18.11-13.06v-0.06h24.51v4.64H24.62l2.4-0.29l11.33,7.97v0.06
					l-11.33,8.19l-2.21-0.8h13.86V1621.27z"/>
			</g>
		</g>
		<g>
			<g>
				<path d="M39.63,1724.52l-16.13,17.86l0.77-1.38l14.4-0.1v4.71H14.19v-0.19l16.06-17.47l-0.45,1.02l-14.69,0.1v-4.67h24.51
					V1724.52z"/>
			</g>
		</g>
		<g>
			<g>
				<path d="M26.93,1872.89c-1.62,0-3.16-0.31-4.61-0.93c-1.45-0.62-2.74-1.48-3.86-2.58c-1.12-1.1-2-2.37-2.64-3.82
					c-0.64-1.45-0.96-3.01-0.96-4.67c0-1.64,0.32-3.19,0.96-4.64c0.64-1.45,1.52-2.74,2.64-3.86c1.12-1.12,2.41-1.99,3.86-2.63
					c1.45-0.63,2.99-0.94,4.61-0.94c1.66,0,3.22,0.31,4.67,0.94c1.45,0.63,2.73,1.5,3.82,2.63c1.1,1.12,1.96,2.41,2.58,3.86
					c0.62,1.45,0.93,3,0.93,4.64c0,1.66-0.31,3.22-0.93,4.67s-1.48,2.72-2.58,3.82c-1.1,1.1-2.37,1.96-3.82,2.58
					C30.15,1872.58,28.59,1872.89,26.93,1872.89z M26.93,1868.09c1.05,0,2.02-0.19,2.93-0.56c0.91-0.37,1.71-0.9,2.4-1.57
					c0.69-0.67,1.23-1.45,1.62-2.34c0.38-0.89,0.58-1.85,0.58-2.9c0-1-0.19-1.94-0.58-2.8c-0.38-0.86-0.92-1.62-1.62-2.26
					c-0.69-0.64-1.49-1.14-2.4-1.5c-0.91-0.36-1.88-0.54-2.93-0.54c-1.07,0-2.06,0.19-2.98,0.56c-0.92,0.37-1.72,0.89-2.42,1.54
					c-0.69,0.65-1.23,1.41-1.62,2.29c-0.38,0.88-0.58,1.82-0.58,2.85s0.19,1.97,0.58,2.85c0.38,0.88,0.92,1.64,1.62,2.3
					c0.69,0.66,1.5,1.17,2.42,1.54C24.87,1867.91,25.86,1868.09,26.93,1868.09z"/>
			</g>
		</g>
		<g>
			<g>
				<path d="M15.12,1986.71c0-1.94,0.33-3.58,0.98-4.93c0.65-1.34,1.57-2.37,2.75-3.07c1.18-0.7,2.59-1.06,4.21-1.06
					c0.96,0,1.93,0.14,2.9,0.43c0.97,0.29,1.85,0.75,2.64,1.38c0.79,0.63,1.42,1.47,1.9,2.53c0.48,1.06,0.72,2.35,0.72,3.89v3.33
					h7.46v4.64H15.12V1986.71z M26.7,1985.91c0-0.7-0.12-1.29-0.37-1.76c-0.25-0.47-0.55-0.84-0.93-1.1
					c-0.37-0.27-0.76-0.46-1.17-0.58c-0.4-0.12-0.76-0.18-1.06-0.18c-0.23,0-0.55,0.04-0.94,0.11c-0.39,0.08-0.79,0.23-1.2,0.46
					s-0.75,0.59-1.02,1.07c-0.28,0.48-0.42,1.13-0.42,1.94v3.33h7.1V1985.91z"/>
			</g>
		</g>
		<g>
			<g>
				<path d="M26.93,2125.25c-1.62,0-3.16-0.31-4.61-0.93c-1.45-0.62-2.74-1.48-3.86-2.58c-1.12-1.1-2-2.37-2.64-3.82
					c-0.64-1.45-0.96-3.01-0.96-4.67c0-1.64,0.32-3.19,0.96-4.64c0.64-1.45,1.52-2.74,2.64-3.86c1.12-1.12,2.41-1.99,3.86-2.63
					c1.45-0.63,2.99-0.94,4.61-0.94c1.66,0,3.22,0.31,4.67,0.94c1.45,0.63,2.73,1.5,3.82,2.63c1.1,1.12,1.96,2.41,2.58,3.86
					c0.62,1.45,0.93,3,0.93,4.64c0,1.66-0.31,3.22-0.93,4.67s-1.48,2.72-2.58,3.82c-1.1,1.1-2.37,1.96-3.82,2.58
					C30.15,2124.94,28.59,2125.25,26.93,2125.25z M26.93,2120.45c1.02,0,1.99-0.19,2.9-0.56c0.91-0.37,1.71-0.9,2.4-1.57
					c0.69-0.67,1.23-1.45,1.62-2.34c0.38-0.89,0.58-1.85,0.58-2.9c0-1-0.19-1.94-0.58-2.8c-0.38-0.86-0.92-1.62-1.6-2.26
					c-0.68-0.64-1.48-1.14-2.38-1.5c-0.91-0.36-1.88-0.54-2.93-0.54c-1.02,0-1.99,0.19-2.9,0.56c-0.91,0.37-1.7,0.89-2.38,1.54
					c-0.68,0.65-1.22,1.41-1.6,2.29c-0.38,0.88-0.58,1.82-0.58,2.85s0.19,1.97,0.58,2.85c0.38,0.88,0.92,1.64,1.6,2.3
					c0.68,0.66,1.48,1.17,2.38,1.54C24.94,2120.27,25.9,2120.45,26.93,2120.45z M34.13,2107.17v-7.3h4.54v13.38L34.13,2107.17z"/>
			</g>
		</g>
		<g>
			<g>
				<path d="M15.12,2240.31c0-1.47,0.19-2.78,0.56-3.94c0.37-1.15,0.91-2.12,1.6-2.9c0.69-0.78,1.53-1.37,2.5-1.78
					c0.97-0.41,2.06-0.61,3.28-0.61c0.96,0,1.92,0.14,2.88,0.43s1.83,0.76,2.62,1.41c0.79,0.65,1.42,1.51,1.9,2.58
					c0.48,1.07,0.72,2.39,0.72,3.97v3.33h7.49v4.64H15.12V2240.31z M26.7,2239.51c0-0.7-0.12-1.29-0.35-1.76
					c-0.23-0.47-0.53-0.84-0.9-1.1s-0.74-0.46-1.14-0.58c-0.39-0.12-0.76-0.18-1.1-0.18c-0.26,0-0.58,0.04-0.98,0.11
					c-0.39,0.08-0.79,0.23-1.2,0.46s-0.75,0.59-1.02,1.07c-0.28,0.48-0.42,1.13-0.42,1.94v3.33h7.1V2239.51z M29.58,2235.15
					l9.09-5.82v5.41l-8.96,5.95L29.58,2235.15z"/>
			</g>
		</g>
		<g>
			<g>
				<path d="M20.81,2357.99c-0.49,0.9-0.9,1.81-1.22,2.74c-0.32,0.93-0.48,1.8-0.48,2.61c0,1,0.2,1.79,0.61,2.37
					s1.01,0.86,1.82,0.86c0.56,0,1.05-0.22,1.49-0.66c0.44-0.44,0.83-1,1.17-1.7c0.34-0.69,0.65-1.41,0.93-2.16
					c0.26-0.68,0.56-1.36,0.91-2.03s0.79-1.27,1.31-1.81c0.52-0.53,1.17-0.96,1.95-1.28s1.73-0.48,2.86-0.48
					c1.2,0,2.3,0.31,3.33,0.93c1.02,0.62,1.85,1.53,2.48,2.72c0.63,1.2,0.94,2.67,0.94,4.42c0,0.9-0.09,1.81-0.27,2.74
					c-0.18,0.93-0.46,1.84-0.83,2.74c-0.37,0.9-0.85,1.76-1.42,2.59l-3.62-2.05c0.41-0.55,0.76-1.16,1.07-1.81
					c0.31-0.65,0.55-1.31,0.72-1.97c0.17-0.66,0.26-1.27,0.26-1.82s-0.08-1.12-0.24-1.68c-0.16-0.57-0.43-1.04-0.82-1.41
					s-0.92-0.56-1.6-0.56c-0.47,0-0.9,0.16-1.28,0.46c-0.38,0.31-0.74,0.72-1.06,1.25c-0.32,0.52-0.6,1.09-0.83,1.71
					c-0.28,0.73-0.6,1.47-0.96,2.24c-0.36,0.77-0.81,1.49-1.33,2.16c-0.52,0.67-1.17,1.22-1.95,1.63c-0.78,0.42-1.73,0.62-2.86,0.62
					c-1.36,0-2.55-0.3-3.55-0.91c-1-0.61-1.8-1.47-2.38-2.58c-0.59-1.11-0.91-2.39-0.98-3.84c0-1.9,0.22-3.44,0.67-4.62
					c0.45-1.18,0.98-2.25,1.6-3.18L20.81,2357.99z"/>
			</g>
		</g>
		<g>
			<g>
				<path d="M15.12,2498.06v-15.87h4.48v5.73h19.07v4.64H19.6v5.5H15.12z"/>
			</g>
		</g>
	</g>
	<g id="Right_Index_1_">
		<g>
			<g>
				<path d="M2554.64,88.14l24.48,10.62v0.26l-24.48,10.62v-5.38l17.21-6.78l2.3,3.36l-19.52-8.13V88.14z M2563.15,95.4v7.07
					l-3.9,1.63V93.96L2563.15,95.4z"/>
			</g>
		</g>
		<g>
			<g>
				<path d="M2578.19,224.35c0,2.45-0.5,4.4-1.49,5.86c-0.99,1.45-2.47,2.18-4.43,2.18c-1.45,0-2.66-0.36-3.63-1.07
					c-0.97-0.72-1.7-1.69-2.18-2.91c-0.48-1.23-0.72-2.63-0.72-4.21l2.5-0.74c0,1.94-0.27,3.66-0.8,5.17s-1.29,2.69-2.29,3.57
					c-0.99,0.87-2.18,1.31-3.57,1.31c-1.28,0-2.36-0.23-3.25-0.69c-0.88-0.46-1.6-1.08-2.14-1.86c-0.54-0.78-0.94-1.66-1.18-2.64
					c-0.25-0.98-0.37-2-0.37-3.04v-7.84h23.55V224.35z M2558.96,225.05c0,0.68,0.09,1.3,0.27,1.86c0.18,0.55,0.47,0.99,0.86,1.31
					c0.39,0.32,0.89,0.48,1.49,0.48c0.68,0,1.2-0.19,1.55-0.58c0.35-0.38,0.6-0.88,0.74-1.49c0.14-0.61,0.21-1.24,0.21-1.9v-2.66
					h-5.12V225.05z M2568.56,224.89c0,0.92,0.28,1.59,0.83,2.03c0.55,0.44,1.18,0.66,1.89,0.66c0.81,0,1.42-0.27,1.82-0.82
					c0.41-0.54,0.61-1.28,0.61-2.19v-2.5h-5.15V224.89z"/>
			</g>
		</g>
		<g>
			<g>
				<path d="M2556.59,360.15c-0.21-0.26-0.5-0.73-0.86-1.42c-0.36-0.69-0.68-1.54-0.96-2.54c-0.28-1-0.4-2.11-0.38-3.33
					c0.04-1.86,0.38-3.52,1.01-4.98c0.63-1.46,1.49-2.7,2.58-3.71c1.09-1.01,2.34-1.79,3.74-2.32c1.41-0.53,2.91-0.8,4.51-0.8
					c1.79,0,3.43,0.27,4.93,0.82c1.49,0.54,2.78,1.32,3.87,2.34c1.09,1.01,1.93,2.22,2.53,3.63c0.6,1.41,0.9,2.97,0.9,4.67
					c0,1.58-0.21,2.98-0.64,4.19c-0.43,1.22-0.89,2.21-1.38,2.98l-4.38-1.82c0.4-0.53,0.83-1.24,1.26-2.13
					c0.44-0.89,0.66-1.9,0.66-3.06c0-0.9-0.19-1.75-0.56-2.58c-0.37-0.82-0.9-1.55-1.58-2.18c-0.68-0.63-1.48-1.13-2.38-1.49
					c-0.91-0.36-1.89-0.54-2.96-0.54c-1.13,0-2.17,0.17-3.1,0.5c-0.94,0.33-1.74,0.8-2.42,1.42c-0.67,0.62-1.19,1.36-1.55,2.22
					c-0.36,0.86-0.54,1.84-0.54,2.93c0,1.26,0.2,2.34,0.61,3.23c0.4,0.9,0.83,1.58,1.28,2.05L2556.59,360.15z"/>
			</g>
		</g>
		<g>
			<g>
				<path d="M2554.64,467.16h23.55v7.04c0,2.37-0.35,4.38-1.05,6.05c-0.71,1.66-1.64,3-2.82,4.02c-1.17,1.01-2.49,1.75-3.94,2.22
					c-1.45,0.47-2.91,0.7-4.38,0.7c-1.75,0-3.32-0.31-4.72-0.94c-1.4-0.63-2.59-1.49-3.58-2.58c-0.99-1.09-1.75-2.35-2.27-3.78
					c-0.52-1.43-0.78-2.94-0.78-4.54V467.16z M2559.12,471.8v2.75c0,1.17,0.15,2.24,0.46,3.2c0.31,0.96,0.76,1.79,1.36,2.48
					c0.6,0.69,1.35,1.23,2.26,1.6c0.91,0.37,1.95,0.56,3.12,0.56c1.54,0,2.79-0.25,3.76-0.75c0.97-0.5,1.72-1.12,2.26-1.86
					s0.9-1.49,1.1-2.26c0.2-0.77,0.3-1.42,0.3-1.95v-3.78H2559.12z"/>
			</g>
		</g>
		<g>
			<g>
				<path d="M2578.19,594.69v16.06h-4.48v-11.42h-5.02v10.11h-4.48v-10.11h-5.09v11.87h-4.48v-16.51H2578.19z"/>
			</g>
		</g>
		<g>
			<g>
				<path d="M2578.19,721.6v14.72h-4.48v-10.08h-5.34v8.74h-4.48v-8.74h-9.25v-4.64H2578.19z"/>
			</g>
		</g>
		<g>
			<g>
				<path d="M2557.01,863.97c-0.3-0.28-0.6-0.71-0.91-1.31c-0.31-0.6-0.59-1.29-0.85-2.06c-0.26-0.78-0.46-1.57-0.62-2.38
					c-0.16-0.81-0.24-1.58-0.24-2.3c0-1.92,0.28-3.65,0.85-5.18c0.56-1.54,1.35-2.85,2.37-3.94s2.21-1.92,3.6-2.5
					c1.39-0.58,2.9-0.86,4.54-0.86c2.15,0,4.03,0.32,5.62,0.98c1.59,0.65,2.91,1.54,3.97,2.66s1.84,2.41,2.35,3.87
					c0.51,1.46,0.77,2.99,0.77,4.59c0,1.51-0.17,2.9-0.5,4.16c-0.33,1.26-0.74,2.33-1.23,3.2l-4.32-1.5
					c0.21-0.38,0.43-0.9,0.64-1.54c0.21-0.64,0.39-1.29,0.53-1.95c0.14-0.66,0.21-1.25,0.21-1.76c0-1.28-0.16-2.41-0.48-3.39
					c-0.32-0.98-0.8-1.81-1.44-2.48c-0.64-0.67-1.43-1.18-2.38-1.52c-0.95-0.34-2.05-0.51-3.31-0.51c-1.11,0-2.11,0.19-2.99,0.58
					c-0.88,0.38-1.64,0.92-2.26,1.62s-1.09,1.51-1.41,2.46c-0.32,0.95-0.48,2-0.48,3.15c0,0.66,0.05,1.27,0.14,1.82
					c0.1,0.55,0.25,1.02,0.46,1.41h2.85v-4.06h4.48v8.77H2557.01z"/>
			</g>
		</g>
		<g>
			<g>
				<path d="M2578.19,989.78h-23.55v-4.64h9.57v-10.53h-9.57v-4.64h23.55v4.64h-9.5v10.53h9.5V989.78z"/>
			</g>
		</g>
		<g>
			<g>
				<path d="M2578.19,1103.41v4.64h-23.55v-4.64H2578.19z"/>
			</g>
		</g>
		<g>
			<g>
				<path d="M2561.6,1234.94c-2.05,0-3.8-0.41-5.25-1.22c-1.45-0.81-2.56-1.94-3.34-3.38c-0.78-1.44-1.2-3.11-1.26-5.01h4.51
					c0.09,1.45,0.53,2.63,1.34,3.55c0.81,0.92,2.18,1.38,4.1,1.38h18.5v4.67H2561.6z"/>
			</g>
		</g>
		<g>
			<g>
				<path d="M2569.81,1353.92l-1.18-0.13l0.9,0.7l8.67,7.68v6.02l-10.56-9.73l-12.99,9.76v-5.89l10.05-7.26l-1.15-1.15h-8.9v-4.7
					h23.55v4.7H2569.81z"/>
			</g>
		</g>
		<g>
			<g>
				<path d="M2578.19,1476.08v4.64h-19.07v11.07h-4.48v-15.71H2578.19z"/>
			</g>
		</g>
		<g>
			<g>
				<path d="M2554.64,1597.02h24.51v0.03l-18.56,13.09l0.45-1.98l18.11,13.06v0.06h-24.51v-4.64h14.05l-2.4,0.29l-11.33-7.97v-0.06
					l11.33-8.19l2.21,0.8h-13.86V1597.02z"/>
			</g>
		</g>
		<g>
			<g>
				<path d="M2553.68,1745.48l16.13-17.86l-0.77,1.38l-14.4,0.1v-4.7h24.48v0.19l-16.06,17.47l0.45-1.02l14.69-0.1v4.67h-24.51
					V1745.48z"/>
			</g>
		</g>
		<g>
			<g>
				<path d="M2566.39,1848.82c1.62,0,3.16,0.31,4.61,0.93c1.45,0.62,2.74,1.48,3.86,2.58c1.12,1.1,2,2.37,2.64,3.82
					c0.64,1.45,0.96,3.01,0.96,4.67c0,1.64-0.32,3.19-0.96,4.64c-0.64,1.45-1.52,2.74-2.64,3.86c-1.12,1.12-2.4,1.99-3.86,2.62
					c-1.45,0.63-2.99,0.94-4.61,0.94c-1.66,0-3.22-0.32-4.67-0.94c-1.45-0.63-2.73-1.5-3.82-2.62c-1.1-1.12-1.96-2.41-2.58-3.86
					c-0.62-1.45-0.93-3-0.93-4.64c0-1.66,0.31-3.22,0.93-4.67c0.62-1.45,1.48-2.73,2.58-3.82c1.1-1.1,2.37-1.96,3.82-2.58
					C2563.16,1849.13,2564.72,1848.82,2566.39,1848.82z M2566.39,1853.62c-1.05,0-2.02,0.19-2.93,0.56c-0.91,0.37-1.71,0.9-2.4,1.57
					c-0.69,0.67-1.23,1.45-1.62,2.34c-0.38,0.89-0.58,1.85-0.58,2.9c0,1,0.19,1.94,0.58,2.8c0.38,0.86,0.92,1.62,1.62,2.26
					c0.69,0.64,1.49,1.14,2.4,1.5c0.91,0.36,1.88,0.54,2.93,0.54c1.07,0,2.06-0.19,2.98-0.56s1.72-0.89,2.42-1.54
					c0.69-0.65,1.23-1.41,1.62-2.29c0.38-0.88,0.58-1.82,0.58-2.85c0-1.02-0.19-1.97-0.58-2.85c-0.38-0.88-0.92-1.64-1.62-2.3
					c-0.69-0.66-1.5-1.17-2.42-1.54C2568.45,1853.81,2567.45,1853.62,2566.39,1853.62z"/>
			</g>
		</g>
		<g>
			<g>
				<path d="M2578.19,1986.71c0,1.94-0.32,3.58-0.97,4.93c-0.65,1.34-1.57,2.37-2.75,3.07c-1.18,0.7-2.59,1.06-4.21,1.06
					c-0.96,0-1.93-0.14-2.9-0.43c-0.97-0.29-1.85-0.75-2.64-1.38c-0.79-0.63-1.42-1.47-1.9-2.53c-0.48-1.06-0.72-2.35-0.72-3.89
					v-3.33h-7.46v-4.64h23.55V1986.71z M2566.61,1987.51c0,0.7,0.12,1.29,0.37,1.76c0.24,0.47,0.55,0.84,0.93,1.1
					s0.76,0.46,1.17,0.58c0.4,0.12,0.76,0.18,1.06,0.18c0.24,0,0.55-0.04,0.94-0.11c0.39-0.08,0.79-0.23,1.2-0.46
					c0.41-0.23,0.75-0.59,1.02-1.07c0.28-0.48,0.42-1.13,0.42-1.94v-3.33h-7.1V1987.51z"/>
			</g>
		</g>
		<g>
			<g>
				<path d="M2566.39,2099.88c1.62,0,3.16,0.31,4.61,0.93c1.45,0.62,2.74,1.48,3.86,2.58c1.12,1.1,2,2.37,2.64,3.82
					c0.64,1.45,0.96,3.01,0.96,4.67c0,1.64-0.32,3.19-0.96,4.64c-0.64,1.45-1.52,2.74-2.64,3.86c-1.12,1.12-2.4,1.99-3.86,2.62
					c-1.45,0.63-2.99,0.94-4.61,0.94c-1.66,0-3.22-0.31-4.67-0.94c-1.45-0.63-2.73-1.5-3.82-2.62c-1.1-1.12-1.96-2.41-2.58-3.86
					c-0.62-1.45-0.93-3-0.93-4.64c0-1.66,0.31-3.22,0.93-4.67c0.62-1.45,1.48-2.73,2.58-3.82c1.1-1.1,2.37-1.96,3.82-2.58
					C2563.16,2100.19,2564.72,2099.88,2566.39,2099.88z M2559.19,2117.96v7.3h-4.54v-13.38L2559.19,2117.96z M2566.39,2104.68
					c-1.02,0-1.99,0.19-2.9,0.56c-0.91,0.37-1.71,0.9-2.4,1.57s-1.23,1.45-1.62,2.34c-0.38,0.88-0.58,1.85-0.58,2.9
					c0,1,0.19,1.94,0.58,2.8c0.38,0.86,0.92,1.62,1.6,2.26c0.68,0.64,1.48,1.14,2.38,1.5c0.91,0.36,1.88,0.54,2.93,0.54
					c1.02,0,1.99-0.19,2.9-0.56c0.91-0.37,1.7-0.89,2.38-1.54c0.68-0.65,1.22-1.41,1.6-2.29c0.38-0.88,0.58-1.82,0.58-2.85
					c0-1.02-0.19-1.97-0.58-2.85c-0.38-0.88-0.92-1.64-1.6-2.3c-0.68-0.66-1.48-1.17-2.38-1.54
					C2568.38,2104.86,2567.41,2104.68,2566.39,2104.68z"/>
			</g>
		</g>
		<g>
			<g>
				<path d="M2578.19,2238.71c0,1.47-0.19,2.78-0.56,3.94c-0.37,1.15-0.91,2.12-1.6,2.9c-0.69,0.78-1.53,1.37-2.5,1.78
					c-0.97,0.41-2.06,0.61-3.28,0.61c-0.96,0-1.92-0.14-2.88-0.43c-0.96-0.29-1.83-0.76-2.62-1.41c-0.79-0.65-1.42-1.51-1.9-2.58
					c-0.48-1.07-0.72-2.39-0.72-3.97v-3.33h-7.49v-4.64h23.55V2238.71z M2563.73,2243.86l-9.09,5.82v-5.41l8.96-5.95
					L2563.73,2243.86z M2566.61,2239.51c0,0.7,0.12,1.29,0.35,1.76s0.53,0.84,0.9,1.1c0.36,0.27,0.74,0.46,1.14,0.58
					c0.39,0.12,0.76,0.18,1.1,0.18c0.26,0,0.58-0.04,0.98-0.11s0.79-0.23,1.2-0.46c0.41-0.24,0.75-0.59,1.02-1.07
					s0.42-1.13,0.42-1.94v-3.33h-7.1V2239.51z"/>
			</g>
		</g>
		<g>
			<g>
				<path d="M2572.5,2370.56c0.49-0.9,0.9-1.81,1.22-2.74c0.32-0.93,0.48-1.8,0.48-2.61c0-1-0.2-1.79-0.61-2.37
					c-0.41-0.58-1.01-0.86-1.82-0.86c-0.55,0-1.05,0.22-1.49,0.66s-0.83,1-1.17,1.7c-0.34,0.69-0.65,1.41-0.93,2.16
					c-0.26,0.68-0.56,1.36-0.91,2.03c-0.35,0.67-0.79,1.27-1.31,1.81s-1.17,0.96-1.95,1.28s-1.73,0.48-2.86,0.48
					c-1.2,0-2.3-0.31-3.33-0.93c-1.02-0.62-1.85-1.53-2.48-2.72c-0.63-1.2-0.94-2.67-0.94-4.42c0-0.9,0.09-1.81,0.27-2.74
					c0.18-0.93,0.46-1.84,0.83-2.74c0.37-0.9,0.85-1.76,1.42-2.59l3.62,2.05c-0.41,0.55-0.76,1.16-1.07,1.81
					c-0.31,0.65-0.55,1.31-0.72,1.97c-0.17,0.66-0.26,1.27-0.26,1.82s0.08,1.11,0.24,1.68s0.43,1.04,0.82,1.41s0.92,0.56,1.6,0.56
					c0.47,0,0.9-0.15,1.28-0.46c0.38-0.31,0.74-0.73,1.06-1.25c0.32-0.52,0.6-1.09,0.83-1.71c0.28-0.73,0.6-1.47,0.96-2.24
					c0.36-0.77,0.81-1.49,1.33-2.16c0.52-0.67,1.17-1.22,1.95-1.63c0.78-0.42,1.73-0.62,2.86-0.62c1.37,0,2.55,0.3,3.55,0.91
					c1,0.61,1.8,1.47,2.38,2.58c0.59,1.11,0.91,2.39,0.98,3.84c0,1.9-0.22,3.44-0.67,4.62c-0.45,1.18-0.98,2.25-1.6,3.18
					L2572.5,2370.56z"/>
			</g>
		</g>
		<g>
			<g>
				<path d="M2578.19,2482.19v15.87h-4.48v-5.73h-19.07v-4.64h19.07v-5.5H2578.19z"/>
			</g>
		</g>
	</g>
	<g id="Top_Index">
		<g>
			<g>
				<path d="M101.09,15.66h6.37v21.22h-4.67V20.14h-1.7V15.66z"/>
			</g>
		</g>
		<g>
			<g>
				<path d="M222.43,36.87c1.32-1.34,2.59-2.64,3.81-3.89c1.22-1.25,2.31-2.45,3.28-3.62c0.97-1.16,1.74-2.29,2.3-3.38
					c0.56-1.09,0.85-2.14,0.85-3.17c0-0.45-0.08-0.85-0.24-1.22c-0.16-0.36-0.38-0.67-0.67-0.93c-0.29-0.26-0.63-0.45-1.02-0.59
					c-0.4-0.14-0.84-0.21-1.33-0.21c-0.49,0-0.93,0.07-1.31,0.21c-0.38,0.14-0.7,0.33-0.96,0.56c-0.26,0.24-0.45,0.49-0.59,0.77
					c-0.14,0.28-0.21,0.57-0.21,0.86c0,0.68,0.11,1.29,0.34,1.81c0.22,0.52,0.53,0.99,0.91,1.39l-2.85,2.59
					c-0.62-0.3-1.15-0.8-1.58-1.5c-0.44-0.7-0.77-1.44-0.99-2.22s-0.34-1.42-0.34-1.94c0-1.17,0.32-2.29,0.98-3.36
					c0.65-1.07,1.6-1.94,2.85-2.62c1.25-0.68,2.77-1.02,4.56-1.02c1.47,0,2.75,0.33,3.84,0.99c1.09,0.66,1.94,1.53,2.54,2.61
					c0.61,1.08,0.91,2.22,0.91,3.44c0,0.96-0.15,1.89-0.45,2.78c-0.3,0.9-0.71,1.78-1.23,2.64c-0.52,0.86-1.12,1.72-1.78,2.56
					c-0.66,0.84-1.34,1.7-2.05,2.58l-2.11-0.61h7.87v4.48H222.43z"/>
			</g>
		</g>
		<g>
			<g>
				<path d="M361.22,15.66l-4.8,9.22l-2.53-1.38c0.21-0.08,0.44-0.15,0.69-0.19c0.24-0.04,0.47-0.06,0.69-0.06
					c0.75-0.02,1.49,0.06,2.24,0.26c0.75,0.19,1.42,0.53,2.03,1.02c0.61,0.49,1.1,1.16,1.47,2.02c0.37,0.85,0.56,1.94,0.56,3.26
					c0,1.54-0.36,2.85-1.07,3.95c-0.71,1.1-1.65,1.94-2.8,2.51c-1.15,0.58-2.4,0.86-3.74,0.86c-1.05,0-2.14-0.22-3.3-0.66
					c-1.15-0.44-2.07-1.02-2.75-1.74l2.37-3.84c0.32,0.41,0.81,0.8,1.47,1.18c0.66,0.38,1.35,0.58,2.08,0.58
					c0.47,0,0.93-0.12,1.38-0.35c0.45-0.23,0.82-0.59,1.12-1.06s0.45-1.04,0.45-1.73c0-0.94-0.26-1.69-0.78-2.24
					c-0.52-0.55-1.25-0.83-2.19-0.83c-0.64,0-1.13,0.03-1.46,0.08c-0.33,0.05-0.66,0.12-0.98,0.21l-0.1-0.13l3.74-7.01l1.34,0.54
					h-6.69v-4.48H361.22z"/>
			</g>
		</g>
		<g>
			<g>
				<path d="M471.57,32.23V32.2l13.54-16.8h0.03v13.31h2.53v3.52h-2.53v4.64h-4.67v-4.64H471.57z M480.69,25.61l-2.46,3.3
					l-0.45-0.19h2.69v-3.33L480.69,25.61z"/>
			</g>
		</g>
		<g>
			<g>
				<path d="M604.59,37.13c-1.26,0-2.49-0.23-3.68-0.7c-1.19-0.47-2.12-1.03-2.78-1.7l2.4-3.71c0.38,0.47,0.93,0.86,1.65,1.17
					c0.71,0.31,1.4,0.46,2.06,0.46c0.49,0,0.95-0.11,1.38-0.32c0.43-0.21,0.77-0.53,1.02-0.96s0.38-0.95,0.38-1.57
					c0-0.68-0.13-1.28-0.4-1.79c-0.27-0.51-0.65-0.91-1.15-1.2c-0.5-0.29-1.09-0.43-1.78-0.43c-0.66,0-1.29,0.09-1.89,0.27
					c-0.6,0.18-1.3,0.49-2.11,0.91h-0.03v-11.9h10.59v4.48h-6.59v3.42l-0.54-0.96c0.3-0.04,0.59-0.07,0.86-0.1
					c0.28-0.02,0.55-0.03,0.83-0.03c1.49,0,2.76,0.33,3.79,0.99c1.03,0.66,1.83,1.54,2.38,2.62c0.55,1.09,0.83,2.27,0.83,3.55
					c0,1.41-0.32,2.68-0.96,3.81s-1.51,2.03-2.61,2.69C607.15,36.8,605.93,37.13,604.59,37.13z"/>
			</g>
		</g>
		<g>
			<g>
				<path d="M730.34,37.13c-1.54,0-2.92-0.36-4.16-1.09c-1.24-0.73-2.22-1.79-2.94-3.2c-0.73-1.41-1.09-3.13-1.09-5.15
					c0-1.26,0.24-2.48,0.72-3.66s1.14-2.31,1.98-3.39c0.84-1.08,1.82-2.08,2.93-3.02c1.11-0.94,2.29-1.78,3.55-2.53l3.1,3.36
					c-1.71,0.66-3.1,1.51-4.19,2.54c-1.09,1.04-1.89,2.11-2.4,3.22c-0.51,1.11-0.77,2.13-0.77,3.07l-1.15-0.13
					c0.58-1.34,1.32-2.39,2.22-3.14s2.17-1.12,3.79-1.12c1.02,0,2.02,0.29,2.98,0.86c0.96,0.58,1.74,1.38,2.35,2.4
					c0.61,1.02,0.91,2.22,0.91,3.58c0,1.58-0.38,2.92-1.14,4.02c-0.76,1.1-1.73,1.94-2.93,2.51
					C732.92,36.84,731.66,37.13,730.34,37.13z M730.15,32.97c0.62,0,1.17-0.12,1.65-0.37c0.48-0.25,0.86-0.61,1.14-1.09
					c0.28-0.48,0.42-1.06,0.42-1.74c0-0.66-0.14-1.21-0.43-1.65c-0.29-0.44-0.67-0.77-1.15-0.99c-0.48-0.22-1.02-0.34-1.62-0.34
					c-0.6,0-1.14,0.11-1.62,0.34c-0.48,0.22-0.86,0.52-1.15,0.9c-0.29,0.37-0.43,0.77-0.43,1.2v0.77c0,0.51,0.14,0.99,0.42,1.44
					c0.28,0.45,0.66,0.82,1.15,1.1C729.01,32.83,729.55,32.97,730.15,32.97z"/>
			</g>
		</g>
		<g>
			<g>
				<path d="M862.77,15.66l-7.9,21.22h-5.18l6.56-17.28l1.5,0.54h-9.31v-4.48H862.77z"/>
			</g>
		</g>
		<g>
			<g>
				<path d="M972.81,27.18c0.41-0.77,0.9-1.4,1.49-1.9c0.59-0.5,1.13-0.9,1.62-1.2c-0.47-0.49-0.87-1-1.2-1.52
					c-0.33-0.52-0.5-1.26-0.5-2.22s0.27-1.81,0.82-2.56c0.54-0.75,1.27-1.33,2.19-1.74c0.92-0.42,1.93-0.62,3.04-0.62
					c1.11,0,2.13,0.21,3.06,0.62c0.93,0.42,1.67,0.98,2.24,1.68c0.56,0.7,0.85,1.5,0.85,2.4c0,1.07-0.18,1.87-0.53,2.4
					c-0.35,0.53-0.78,1.06-1.3,1.57c0.51,0.32,1.05,0.74,1.62,1.25c0.56,0.51,1.05,1.15,1.46,1.9c0.4,0.76,0.61,1.68,0.61,2.77
					c0,1.24-0.35,2.4-1.06,3.49c-0.7,1.09-1.66,1.97-2.86,2.64c-1.21,0.67-2.59,1.01-4.14,1.01c-1.56,0-2.94-0.34-4.14-1.01
					c-1.21-0.67-2.15-1.55-2.83-2.64c-0.68-1.09-1.02-2.25-1.02-3.49C972.2,28.89,972.4,27.95,972.81,27.18z M977.42,31.51
					c0.3,0.52,0.69,0.94,1.18,1.25s1.03,0.46,1.63,0.46c0.62,0,1.18-0.15,1.7-0.46s0.92-0.73,1.23-1.25
					c0.31-0.52,0.46-1.09,0.46-1.71s-0.14-1.18-0.43-1.68c-0.29-0.5-0.67-0.91-1.15-1.23c-0.48-0.32-1.02-0.49-1.62-0.51
					c-0.6-0.02-1.16,0.12-1.68,0.42c-0.52,0.3-0.95,0.71-1.28,1.23c-0.33,0.52-0.5,1.12-0.5,1.78
					C976.97,30.42,977.12,30.99,977.42,31.51z M979.26,22.03c0.35,0.32,0.72,0.48,1.1,0.48c0.38,0,0.75-0.16,1.09-0.48
					c0.34-0.32,0.51-0.69,0.51-1.12s-0.17-0.81-0.5-1.14c-0.33-0.33-0.7-0.5-1.1-0.5c-0.41,0-0.78,0.17-1.12,0.5
					c-0.34,0.33-0.51,0.71-0.51,1.14S978.9,21.71,979.26,22.03z"/>
			</g>
		</g>
		<g>
			<g>
				<path d="M1103.73,30.25c-1.02,0-2.01-0.29-2.96-0.86c-0.95-0.58-1.73-1.38-2.35-2.42c-0.62-1.03-0.93-2.22-0.93-3.57
					c0-1.71,0.38-3.16,1.14-4.35c0.76-1.19,1.73-2.1,2.93-2.72c1.19-0.62,2.45-0.93,3.78-0.93c1.56,0,2.95,0.35,4.18,1.04
					c1.23,0.69,2.2,1.64,2.93,2.85c0.73,1.21,1.09,2.57,1.09,4.08c0,1.75-0.3,3.32-0.91,4.72c-0.61,1.4-1.42,2.65-2.43,3.76
					c-1.01,1.11-2.14,2.12-3.38,3.02c-1.24,0.91-2.49,1.75-3.74,2.54l-3.1-3.36c1.71-0.7,3.21-1.51,4.51-2.42
					c1.3-0.91,2.31-1.86,3.04-2.85c0.73-0.99,1.09-1.97,1.09-2.93l1.15,0.13c-0.58,1.34-1.31,2.39-2.21,3.14
					C1106.64,29.88,1105.37,30.25,1103.73,30.25z M1105.52,26.35c0.9,0,1.65-0.29,2.27-0.86c0.62-0.58,0.93-1.23,0.93-1.95v-0.74
					c0-0.55-0.14-1.08-0.42-1.57s-0.66-0.89-1.14-1.2c-0.48-0.31-1.03-0.46-1.65-0.46c-0.6,0-1.14,0.13-1.63,0.4
					c-0.49,0.27-0.88,0.66-1.15,1.17c-0.28,0.51-0.42,1.14-0.42,1.89c0,0.73,0.14,1.34,0.43,1.84c0.29,0.5,0.67,0.88,1.15,1.12
					C1104.39,26.22,1104.92,26.35,1105.52,26.35z"/>
			</g>
		</g>
		<g>
			<g>
				<path d="M1216.35,15.66h6.37v21.22h-4.67V20.14h-1.7V15.66z"/>
				<path d="M1235.8,36.91c-1.22,0-2.36-0.21-3.44-0.64c-1.08-0.43-2.03-1.08-2.85-1.97c-0.82-0.88-1.47-2-1.94-3.36
					c-0.47-1.35-0.7-2.95-0.7-4.78c0-2.05,0.22-3.76,0.67-5.14c0.45-1.38,1.07-2.48,1.87-3.31c0.8-0.83,1.74-1.42,2.83-1.78
					s2.27-0.53,3.55-0.53c1.22,0,2.36,0.21,3.44,0.64c1.08,0.43,2.03,1.08,2.85,1.97s1.47,2.01,1.94,3.36
					c0.47,1.35,0.7,2.95,0.7,4.78c0,1.9-0.23,3.53-0.7,4.9c-0.47,1.37-1.12,2.48-1.95,3.34c-0.83,0.86-1.78,1.5-2.85,1.9
					C1238.16,36.7,1237.02,36.91,1235.8,36.91z M1235.77,32.46c1.07,0,1.9-0.28,2.5-0.85c0.6-0.56,1.02-1.34,1.26-2.32
					c0.25-0.98,0.37-2.07,0.37-3.26c0-1.17-0.12-2.22-0.37-3.14c-0.25-0.92-0.67-1.65-1.26-2.19c-0.6-0.54-1.43-0.82-2.5-0.82
					c-1.05,0-1.87,0.28-2.46,0.83c-0.6,0.56-1.01,1.3-1.25,2.24c-0.24,0.94-0.35,2-0.35,3.17c0,1.17,0.12,2.24,0.35,3.2
					c0.23,0.96,0.65,1.72,1.25,2.29C1233.9,32.18,1234.73,32.46,1235.77,32.46z"/>
			</g>
		</g>
		<g>
			<g>
				<path d="M1345.93,15.66h6.37v21.22h-4.67V20.14h-1.7V15.66z"/>
				<path d="M1356.93,15.66h6.37v21.22h-4.67V20.14h-1.7V15.66z"/>
			</g>
		</g>
		<g>
			<g>
				<path d="M1467.14,15.66h6.37v21.22h-4.67V20.14h-1.7V15.66z"/>
				<path d="M1478.27,36.87c1.32-1.34,2.59-2.64,3.81-3.89s2.31-2.45,3.28-3.62c0.97-1.16,1.74-2.29,2.3-3.38s0.85-2.14,0.85-3.17
					c0-0.45-0.08-0.85-0.24-1.22c-0.16-0.36-0.38-0.67-0.67-0.93c-0.29-0.26-0.63-0.45-1.02-0.59c-0.39-0.14-0.84-0.21-1.33-0.21
					c-0.49,0-0.93,0.07-1.31,0.21c-0.38,0.14-0.7,0.33-0.96,0.56c-0.26,0.24-0.45,0.49-0.59,0.77c-0.14,0.28-0.21,0.57-0.21,0.86
					c0,0.68,0.11,1.29,0.34,1.81c0.22,0.52,0.53,0.99,0.91,1.39l-2.85,2.59c-0.62-0.3-1.15-0.8-1.58-1.5
					c-0.44-0.7-0.77-1.44-0.99-2.22c-0.22-0.78-0.34-1.42-0.34-1.94c0-1.17,0.33-2.29,0.98-3.36c0.65-1.07,1.6-1.94,2.85-2.62
					c1.25-0.68,2.77-1.02,4.56-1.02c1.47,0,2.75,0.33,3.84,0.99c1.09,0.66,1.94,1.53,2.54,2.61c0.61,1.08,0.91,2.22,0.91,3.44
					c0,0.96-0.15,1.89-0.45,2.78c-0.3,0.9-0.71,1.78-1.23,2.64c-0.52,0.86-1.12,1.72-1.78,2.56c-0.66,0.84-1.34,1.7-2.05,2.58
					l-2.11-0.61h7.87v4.48H1478.27z"/>
			</g>
		</g>
		<g>
			<g>
				<path d="M1593.07,15.66h6.37v21.22h-4.67V20.14h-1.7V15.66z"/>
				<path d="M1617.07,15.66l-4.8,9.22l-2.53-1.38c0.21-0.08,0.44-0.15,0.69-0.19c0.24-0.04,0.47-0.06,0.69-0.06
					c0.75-0.02,1.49,0.06,2.24,0.26c0.75,0.19,1.42,0.53,2.03,1.02c0.61,0.49,1.1,1.16,1.47,2.02c0.37,0.85,0.56,1.94,0.56,3.26
					c0,1.54-0.36,2.85-1.07,3.95c-0.71,1.1-1.65,1.94-2.8,2.51c-1.15,0.58-2.4,0.86-3.74,0.86c-1.05,0-2.14-0.22-3.3-0.66
					c-1.15-0.44-2.07-1.02-2.75-1.74l2.37-3.84c0.32,0.41,0.81,0.8,1.47,1.18c0.66,0.38,1.35,0.58,2.08,0.58
					c0.47,0,0.93-0.12,1.38-0.35c0.45-0.23,0.82-0.59,1.12-1.06s0.45-1.04,0.45-1.73c0-0.94-0.26-1.69-0.78-2.24
					c-0.52-0.55-1.25-0.83-2.19-0.83c-0.64,0-1.13,0.03-1.46,0.08c-0.33,0.05-0.66,0.12-0.98,0.21l-0.1-0.13l3.74-7.01l1.34,0.54
					h-6.69v-4.48H1617.07z"/>
			</g>
		</g>
		<g>
			<g>
				<path d="M1717.68,15.66h6.37v21.22h-4.67V20.14h-1.7V15.66z"/>
				<path d="M1727.41,32.23V32.2l13.54-16.8h0.03v13.31h2.53v3.52h-2.53v4.64h-4.67v-4.64H1727.41z M1736.53,25.61l-2.46,3.3
					l-0.45-0.19h2.69v-3.33L1736.53,25.61z"/>
			</g>
		</g>
		<g>
			<g>
				<path d="M1843.28,15.66h6.37v21.22h-4.67V20.14h-1.7V15.66z"/>
				<path d="M1860.43,37.13c-1.26,0-2.49-0.23-3.68-0.7c-1.2-0.47-2.12-1.03-2.78-1.7l2.4-3.71c0.38,0.47,0.93,0.86,1.65,1.17
					c0.71,0.31,1.4,0.46,2.06,0.46c0.49,0,0.95-0.11,1.38-0.32c0.43-0.21,0.77-0.53,1.02-0.96s0.38-0.95,0.38-1.57
					c0-0.68-0.13-1.28-0.4-1.79c-0.27-0.51-0.65-0.91-1.15-1.2c-0.5-0.29-1.09-0.43-1.78-0.43c-0.66,0-1.29,0.09-1.89,0.27
					c-0.6,0.18-1.3,0.49-2.11,0.91h-0.03v-11.9h10.59v4.48h-6.59v3.42l-0.54-0.96c0.3-0.04,0.59-0.07,0.86-0.1
					c0.28-0.02,0.55-0.03,0.83-0.03c1.49,0,2.76,0.33,3.79,0.99c1.04,0.66,1.83,1.54,2.38,2.62c0.55,1.09,0.83,2.27,0.83,3.55
					c0,1.41-0.32,2.68-0.96,3.81s-1.51,2.03-2.61,2.69S1861.77,37.13,1860.43,37.13z"/>
			</g>
		</g>
		<g>
			<g>
				<path d="M1967.62,15.66h6.37v21.22h-4.67V20.14h-1.7V15.66z"/>
				<path d="M1986.18,37.13c-1.54,0-2.92-0.36-4.16-1.09c-1.24-0.73-2.22-1.79-2.94-3.2c-0.73-1.41-1.09-3.13-1.09-5.15
					c0-1.26,0.24-2.48,0.72-3.66c0.48-1.18,1.14-2.31,1.98-3.39c0.84-1.08,1.82-2.08,2.93-3.02c1.11-0.94,2.29-1.78,3.55-2.53
					l3.1,3.36c-1.71,0.66-3.1,1.51-4.19,2.54c-1.09,1.04-1.89,2.11-2.4,3.22c-0.51,1.11-0.77,2.13-0.77,3.07l-1.15-0.13
					c0.58-1.34,1.32-2.39,2.22-3.14c0.91-0.75,2.17-1.12,3.79-1.12c1.02,0,2.02,0.29,2.98,0.86c0.96,0.58,1.74,1.38,2.35,2.4
					c0.61,1.02,0.91,2.22,0.91,3.58c0,1.58-0.38,2.92-1.14,4.02c-0.76,1.1-1.73,1.94-2.93,2.51
					C1988.76,36.84,1987.5,37.13,1986.18,37.13z M1985.99,32.97c0.62,0,1.17-0.12,1.65-0.37c0.48-0.25,0.86-0.61,1.14-1.09
					c0.28-0.48,0.42-1.06,0.42-1.74c0-0.66-0.14-1.21-0.43-1.65c-0.29-0.44-0.67-0.77-1.15-0.99c-0.48-0.22-1.02-0.34-1.62-0.34
					c-0.6,0-1.14,0.11-1.62,0.34c-0.48,0.22-0.86,0.52-1.15,0.9c-0.29,0.37-0.43,0.77-0.43,1.2v0.77c0,0.51,0.14,0.99,0.42,1.44
					c0.28,0.45,0.66,0.82,1.15,1.1C1984.85,32.83,1985.39,32.97,1985.99,32.97z"/>
			</g>
		</g>
		<g>
			<g>
				<path d="M2093.58,15.66h6.37v21.22h-4.67V20.14h-1.7V15.66z"/>
				<path d="M2118.61,15.66l-7.9,21.22h-5.18l6.56-17.28l1.5,0.54h-9.31v-4.48H2118.61z"/>
			</g>
		</g>
		<g>
			<g>
				<path d="M2218.15,15.66h6.37v21.22h-4.67V20.14h-1.7V15.66z"/>
				<path d="M2228.65,27.18c0.41-0.77,0.9-1.4,1.49-1.9c0.59-0.5,1.13-0.9,1.62-1.2c-0.47-0.49-0.87-1-1.2-1.52
					c-0.33-0.52-0.5-1.26-0.5-2.22s0.27-1.81,0.82-2.56c0.54-0.75,1.27-1.33,2.19-1.74c0.92-0.42,1.93-0.62,3.04-0.62
					c1.11,0,2.13,0.21,3.06,0.62s1.67,0.98,2.24,1.68c0.56,0.7,0.85,1.5,0.85,2.4c0,1.07-0.18,1.87-0.53,2.4
					c-0.35,0.53-0.78,1.06-1.3,1.57c0.51,0.32,1.05,0.74,1.62,1.25c0.57,0.51,1.05,1.15,1.46,1.9c0.41,0.76,0.61,1.68,0.61,2.77
					c0,1.24-0.35,2.4-1.06,3.49c-0.7,1.09-1.66,1.97-2.86,2.64c-1.21,0.67-2.59,1.01-4.14,1.01s-2.94-0.34-4.14-1.01
					c-1.21-0.67-2.15-1.55-2.83-2.64c-0.68-1.09-1.02-2.25-1.02-3.49C2228.04,28.89,2228.24,27.95,2228.65,27.18z M2233.26,31.51
					c0.3,0.52,0.69,0.94,1.18,1.25c0.49,0.31,1.03,0.46,1.63,0.46c0.62,0,1.18-0.15,1.7-0.46c0.51-0.31,0.92-0.73,1.23-1.25
					c0.31-0.52,0.46-1.09,0.46-1.71s-0.14-1.18-0.43-1.68c-0.29-0.5-0.67-0.91-1.15-1.23c-0.48-0.32-1.02-0.49-1.62-0.51
					c-0.6-0.02-1.16,0.12-1.68,0.42c-0.52,0.3-0.95,0.71-1.28,1.23c-0.33,0.52-0.5,1.12-0.5,1.78
					C2232.81,30.42,2232.96,30.99,2233.26,31.51z M2235.1,22.03c0.35,0.32,0.72,0.48,1.1,0.48s0.75-0.16,1.09-0.48
					c0.34-0.32,0.51-0.69,0.51-1.12s-0.17-0.81-0.5-1.14c-0.33-0.33-0.7-0.5-1.1-0.5s-0.78,0.17-1.12,0.5
					c-0.34,0.33-0.51,0.71-0.51,1.14S2234.75,21.71,2235.1,22.03z"/>
			</g>
		</g>
		<g>
			<g>
				<path d="M2342.96,15.66h6.37v21.22h-4.67V20.14h-1.7V15.66z"/>
				<path d="M2359.57,30.25c-1.02,0-2.01-0.29-2.96-0.86c-0.95-0.58-1.73-1.38-2.35-2.42c-0.62-1.03-0.93-2.22-0.93-3.57
					c0-1.71,0.38-3.16,1.14-4.35c0.76-1.19,1.73-2.1,2.93-2.72c1.19-0.62,2.45-0.93,3.78-0.93c1.56,0,2.95,0.35,4.18,1.04
					c1.23,0.69,2.2,1.64,2.93,2.85c0.73,1.21,1.09,2.57,1.09,4.08c0,1.75-0.3,3.32-0.91,4.72c-0.61,1.4-1.42,2.65-2.43,3.76
					c-1.01,1.11-2.14,2.12-3.38,3.02c-1.24,0.91-2.49,1.75-3.74,2.54l-3.1-3.36c1.71-0.7,3.21-1.51,4.51-2.42
					c1.3-0.91,2.31-1.86,3.04-2.85c0.73-0.99,1.09-1.97,1.09-2.93l1.15,0.13c-0.58,1.34-1.31,2.39-2.21,3.14
					C2362.48,29.88,2361.21,30.25,2359.57,30.25z M2361.36,26.35c0.9,0,1.65-0.29,2.27-0.86c0.62-0.58,0.93-1.23,0.93-1.95v-0.74
					c0-0.55-0.14-1.08-0.42-1.57s-0.66-0.89-1.14-1.2c-0.48-0.31-1.03-0.46-1.65-0.46c-0.6,0-1.14,0.13-1.63,0.4
					c-0.49,0.27-0.88,0.66-1.15,1.17c-0.28,0.51-0.42,1.14-0.42,1.89c0,0.73,0.14,1.34,0.43,1.84c0.29,0.5,0.67,0.88,1.15,1.12
					C2360.23,26.22,2360.77,26.35,2361.36,26.35z"/>
			</g>
		</g>
		<g>
			<g>
				<path d="M2462.99,36.87c1.32-1.34,2.59-2.64,3.81-3.89c1.22-1.25,2.31-2.45,3.28-3.62c0.97-1.16,1.74-2.29,2.3-3.38
					c0.56-1.09,0.85-2.14,0.85-3.17c0-0.45-0.08-0.85-0.24-1.22c-0.16-0.36-0.38-0.67-0.67-0.93c-0.29-0.26-0.63-0.45-1.02-0.59
					c-0.4-0.14-0.84-0.21-1.33-0.21c-0.49,0-0.93,0.07-1.31,0.21c-0.38,0.14-0.7,0.33-0.96,0.56c-0.26,0.24-0.45,0.49-0.59,0.77
					c-0.14,0.28-0.21,0.57-0.21,0.86c0,0.68,0.11,1.29,0.34,1.81c0.22,0.52,0.53,0.99,0.91,1.39l-2.85,2.59
					c-0.62-0.3-1.15-0.8-1.58-1.5c-0.44-0.7-0.77-1.44-0.99-2.22c-0.22-0.78-0.34-1.42-0.34-1.94c0-1.17,0.32-2.29,0.98-3.36
					c0.65-1.07,1.6-1.94,2.85-2.62c1.25-0.68,2.77-1.02,4.56-1.02c1.47,0,2.75,0.33,3.84,0.99c1.09,0.66,1.94,1.53,2.54,2.61
					c0.61,1.08,0.91,2.22,0.91,3.44c0,0.96-0.15,1.89-0.45,2.78s-0.71,1.78-1.23,2.64c-0.52,0.86-1.12,1.72-1.78,2.56
					c-0.66,0.84-1.34,1.7-2.05,2.58l-2.11-0.61h7.87v4.48H2462.99z"/>
				<path d="M2489.96,36.91c-1.22,0-2.36-0.21-3.44-0.64c-1.08-0.43-2.03-1.08-2.85-1.97c-0.82-0.88-1.47-2-1.94-3.36
					c-0.47-1.35-0.7-2.95-0.7-4.78c0-2.05,0.22-3.76,0.67-5.14c0.45-1.38,1.07-2.48,1.87-3.31s1.74-1.42,2.83-1.78
					s2.27-0.53,3.55-0.53c1.22,0,2.36,0.21,3.44,0.64c1.08,0.43,2.03,1.08,2.85,1.97s1.47,2.01,1.94,3.36
					c0.47,1.35,0.7,2.95,0.7,4.78c0,1.9-0.24,3.53-0.7,4.9c-0.47,1.37-1.12,2.48-1.95,3.34c-0.83,0.86-1.78,1.5-2.85,1.9
					C2492.32,36.7,2491.18,36.91,2489.96,36.91z M2489.93,32.46c1.07,0,1.9-0.28,2.5-0.85c0.6-0.56,1.02-1.34,1.26-2.32
					c0.25-0.98,0.37-2.07,0.37-3.26c0-1.17-0.12-2.22-0.37-3.14c-0.25-0.92-0.67-1.65-1.26-2.19c-0.6-0.54-1.43-0.82-2.5-0.82
					c-1.05,0-1.87,0.28-2.46,0.83c-0.6,0.56-1.01,1.3-1.25,2.24c-0.24,0.94-0.35,2-0.35,3.17c0,1.17,0.12,2.24,0.35,3.2
					c0.23,0.96,0.65,1.72,1.25,2.29C2488.07,32.18,2488.89,32.46,2489.93,32.46z"/>
			</g>
		</g>
	</g>
	<g id="Bottom_Index">
		<g>
			<g>
				<path d="M108.9,2575.31h-6.37v-21.22h4.67v16.74h1.7V2575.31z"/>
			</g>
		</g>
		<g>
			<g>
				<path d="M237.63,2554.09c-1.32,1.34-2.59,2.64-3.81,3.89c-1.22,1.25-2.31,2.45-3.28,3.62c-0.97,1.16-1.74,2.29-2.3,3.38
					c-0.56,1.09-0.85,2.14-0.85,3.17c0,0.45,0.08,0.85,0.24,1.22c0.16,0.36,0.38,0.67,0.67,0.93c0.29,0.26,0.63,0.45,1.02,0.59
					c0.4,0.14,0.84,0.21,1.33,0.21c0.49,0,0.93-0.07,1.31-0.21c0.38-0.14,0.7-0.33,0.96-0.56c0.26-0.24,0.45-0.49,0.59-0.77
					c0.14-0.28,0.21-0.57,0.21-0.87c0-0.68-0.11-1.29-0.34-1.81c-0.22-0.52-0.53-0.99-0.91-1.39l2.85-2.59
					c0.62,0.3,1.15,0.8,1.58,1.5c0.44,0.7,0.77,1.45,0.99,2.22s0.34,1.42,0.34,1.94c0,1.17-0.32,2.29-0.98,3.36
					c-0.65,1.07-1.6,1.94-2.85,2.63c-1.25,0.68-2.77,1.02-4.56,1.02c-1.47,0-2.75-0.33-3.84-0.99c-1.09-0.66-1.94-1.53-2.54-2.61
					c-0.61-1.08-0.91-2.22-0.91-3.44c0-0.96,0.15-1.89,0.45-2.78c0.3-0.9,0.71-1.78,1.23-2.64c0.52-0.86,1.12-1.72,1.78-2.56
					c0.66-0.84,1.34-1.7,2.05-2.58l2.11,0.61h-7.87v-4.48H237.63z"/>
			</g>
		</g>
		<g>
			<g>
				<path d="M348.9,2575.31l4.8-9.22l2.53,1.38c-0.21,0.08-0.44,0.15-0.69,0.19c-0.24,0.04-0.47,0.06-0.69,0.06
					c-0.75,0.02-1.49-0.06-2.24-0.26c-0.75-0.19-1.42-0.53-2.03-1.02c-0.61-0.49-1.1-1.16-1.47-2.02s-0.56-1.94-0.56-3.26
					c0-1.54,0.36-2.85,1.07-3.95c0.71-1.1,1.65-1.94,2.8-2.51c1.15-0.58,2.4-0.86,3.74-0.86c1.05,0,2.14,0.22,3.3,0.66
					c1.15,0.44,2.07,1.02,2.75,1.74l-2.37,3.84c-0.32-0.41-0.81-0.8-1.47-1.18c-0.66-0.38-1.35-0.58-2.08-0.58
					c-0.47,0-0.93,0.12-1.38,0.35c-0.45,0.23-0.82,0.59-1.12,1.06c-0.3,0.47-0.45,1.04-0.45,1.73c0,0.94,0.26,1.68,0.78,2.24
					c0.52,0.55,1.25,0.83,2.19,0.83c0.64,0,1.13-0.03,1.46-0.08c0.33-0.05,0.66-0.12,0.98-0.21l0.1,0.13l-3.74,7.01l-1.34-0.54h6.69
					v4.48H348.9z"/>
			</g>
		</g>
		<g>
			<g>
				<path d="M488.63,2558.73v0.03l-13.54,16.8h-0.03v-13.31h-2.53v-3.52h2.53v-4.64h4.67v4.64H488.63z M479.51,2565.35l2.46-3.3
					l0.45,0.19h-2.69v3.33L479.51,2565.35z"/>
			</g>
		</g>
		<g>
			<g>
				<path d="M605.68,2553.83c1.26,0,2.49,0.24,3.68,0.71c1.19,0.47,2.12,1.03,2.78,1.7l-2.4,3.71c-0.38-0.47-0.93-0.86-1.65-1.17
					c-0.71-0.31-1.4-0.46-2.06-0.46c-0.49,0-0.95,0.11-1.38,0.32c-0.43,0.21-0.77,0.53-1.02,0.96c-0.26,0.43-0.38,0.95-0.38,1.57
					c0,0.68,0.13,1.28,0.4,1.79c0.27,0.51,0.65,0.91,1.15,1.2c0.5,0.29,1.09,0.43,1.78,0.43c0.66,0,1.29-0.09,1.89-0.27
					c0.6-0.18,1.3-0.49,2.11-0.91h0.03v11.9h-10.59v-4.48h6.59v-3.42l0.54,0.96c-0.3,0.04-0.59,0.08-0.86,0.1
					c-0.28,0.02-0.55,0.03-0.83,0.03c-1.49,0-2.76-0.33-3.79-0.99s-1.83-1.54-2.38-2.62c-0.55-1.09-0.83-2.27-0.83-3.55
					c0-1.41,0.32-2.68,0.96-3.81c0.64-1.13,1.51-2.03,2.61-2.69C603.11,2554.17,604.33,2553.83,605.68,2553.83z"/>
			</g>
		</g>
		<g>
			<g>
				<path d="M729.99,2553.83c1.54,0,2.92,0.36,4.16,1.09c1.24,0.73,2.22,1.79,2.94,3.2c0.73,1.41,1.09,3.13,1.09,5.15
					c0,1.26-0.24,2.48-0.72,3.66s-1.14,2.31-1.98,3.39c-0.84,1.08-1.82,2.09-2.93,3.02s-2.29,1.78-3.55,2.53l-3.1-3.36
					c1.71-0.66,3.1-1.51,4.19-2.54c1.09-1.04,1.89-2.11,2.4-3.22c0.51-1.11,0.77-2.13,0.77-3.07l1.15,0.13
					c-0.58,1.34-1.32,2.39-2.22,3.14s-2.17,1.12-3.79,1.12c-1.02,0-2.02-0.29-2.98-0.86c-0.96-0.58-1.74-1.38-2.35-2.4
					c-0.61-1.02-0.91-2.22-0.91-3.58c0-1.58,0.38-2.92,1.14-4.02c0.76-1.1,1.73-1.94,2.93-2.51
					C727.41,2554.12,728.67,2553.83,729.99,2553.83z M730.18,2557.99c-0.62,0-1.17,0.12-1.65,0.37s-0.86,0.61-1.14,1.09
					c-0.28,0.48-0.42,1.06-0.42,1.74c0,0.66,0.14,1.21,0.43,1.65s0.67,0.77,1.15,0.99c0.48,0.22,1.02,0.34,1.62,0.34
					c0.6,0,1.14-0.11,1.62-0.34c0.48-0.22,0.86-0.52,1.15-0.9c0.29-0.37,0.43-0.77,0.43-1.2v-0.77c0-0.51-0.14-0.99-0.42-1.44
					s-0.66-0.82-1.15-1.1C731.32,2558.14,730.78,2557.99,730.18,2557.99z"/>
			</g>
		</g>
		<g>
			<g>
				<path d="M847.63,2575.31l7.9-21.22h5.18l-6.56,17.28l-1.5-0.54h9.31v4.48H847.63z"/>
			</g>
		</g>
		<g>
			<g>
				<path d="M987.66,2563.79c-0.41,0.77-0.9,1.4-1.49,1.9c-0.59,0.5-1.13,0.9-1.62,1.2c0.47,0.49,0.87,1,1.2,1.52
					c0.33,0.52,0.5,1.26,0.5,2.22c0,0.96-0.27,1.81-0.82,2.56s-1.27,1.33-2.19,1.74c-0.92,0.42-1.93,0.62-3.04,0.62
					c-1.11,0-2.13-0.21-3.06-0.62c-0.93-0.42-1.67-0.98-2.24-1.68c-0.56-0.7-0.85-1.5-0.85-2.4c0-1.07,0.18-1.87,0.53-2.4
					c0.35-0.53,0.78-1.06,1.3-1.57c-0.51-0.32-1.05-0.74-1.62-1.25c-0.56-0.51-1.05-1.15-1.46-1.9c-0.4-0.76-0.61-1.68-0.61-2.77
					c0-1.24,0.35-2.4,1.06-3.49c0.7-1.09,1.66-1.97,2.86-2.64c1.21-0.67,2.59-1.01,4.14-1.01c1.56,0,2.94,0.34,4.14,1.01
					c1.21,0.67,2.15,1.55,2.83,2.64c0.68,1.09,1.02,2.25,1.02,3.49C988.26,2562.08,988.06,2563.02,987.66,2563.79z M983.05,2559.45
					c-0.3-0.52-0.69-0.94-1.18-1.25s-1.03-0.46-1.63-0.46c-0.62,0-1.18,0.15-1.7,0.46s-0.92,0.73-1.23,1.25
					c-0.31,0.52-0.46,1.09-0.46,1.71s0.14,1.18,0.43,1.68c0.29,0.5,0.67,0.91,1.15,1.23s1.02,0.49,1.62,0.51
					c0.6,0.02,1.16-0.12,1.68-0.42c0.52-0.3,0.95-0.71,1.28-1.23c0.33-0.52,0.5-1.12,0.5-1.78
					C983.5,2560.54,983.35,2559.97,983.05,2559.45z M981.21,2568.94c-0.35-0.32-0.72-0.48-1.1-0.48c-0.38,0-0.75,0.16-1.09,0.48
					c-0.34,0.32-0.51,0.69-0.51,1.12c0,0.43,0.17,0.8,0.5,1.14c0.33,0.33,0.7,0.5,1.1,0.5c0.41,0,0.78-0.17,1.12-0.5
					c0.34-0.33,0.51-0.71,0.51-1.14C981.74,2569.63,981.56,2569.26,981.21,2568.94z"/>
			</g>
		</g>
		<g>
			<g>
				<path d="M1106.8,2560.71c1.02,0,2.01,0.29,2.96,0.86c0.95,0.58,1.73,1.38,2.35,2.42c0.62,1.04,0.93,2.22,0.93,3.57
					c0,1.71-0.38,3.16-1.14,4.35c-0.76,1.2-1.73,2.1-2.93,2.72c-1.19,0.62-2.45,0.93-3.78,0.93c-1.56,0-2.95-0.35-4.18-1.04
					c-1.23-0.69-2.2-1.64-2.93-2.85s-1.09-2.56-1.09-4.08c0-1.75,0.3-3.32,0.91-4.72c0.61-1.4,1.42-2.65,2.43-3.76
					c1.01-1.11,2.14-2.12,3.38-3.02c1.24-0.91,2.49-1.75,3.74-2.54l3.1,3.36c-1.71,0.7-3.21,1.51-4.51,2.42
					c-1.3,0.91-2.31,1.86-3.04,2.85c-0.73,0.99-1.09,1.97-1.09,2.93l-1.15-0.13c0.58-1.34,1.31-2.39,2.21-3.14
					C1103.89,2561.09,1105.16,2560.71,1106.8,2560.71z M1105.01,2564.62c-0.9,0-1.65,0.29-2.27,0.86c-0.62,0.58-0.93,1.23-0.93,1.95
					v0.74c0,0.55,0.14,1.08,0.42,1.57s0.66,0.89,1.14,1.2s1.03,0.46,1.65,0.46c0.6,0,1.14-0.13,1.63-0.4
					c0.49-0.27,0.88-0.66,1.15-1.17c0.28-0.51,0.42-1.14,0.42-1.89c0-0.73-0.14-1.34-0.43-1.84s-0.67-0.88-1.15-1.12
					C1106.15,2564.74,1105.61,2564.62,1105.01,2564.62z"/>
			</g>
		</g>
		<g>
			<g>
				<path d="M1244.25,2575.31h-6.37v-21.22h4.67v16.74h1.7V2575.31z"/>
				<path d="M1224.8,2554.06c1.22,0,2.36,0.21,3.44,0.64c1.08,0.43,2.03,1.08,2.85,1.97s1.47,2.01,1.94,3.36
					c0.47,1.35,0.7,2.95,0.7,4.78c0,2.05-0.22,3.76-0.67,5.14c-0.45,1.38-1.07,2.48-1.87,3.31c-0.8,0.83-1.74,1.42-2.83,1.78
					s-2.27,0.53-3.55,0.53c-1.22,0-2.36-0.21-3.44-0.64s-2.03-1.08-2.85-1.97s-1.47-2-1.94-3.36c-0.47-1.35-0.7-2.95-0.7-4.78
					c0-1.9,0.23-3.53,0.7-4.9s1.12-2.48,1.95-3.34c0.83-0.86,1.78-1.5,2.85-1.9C1222.44,2554.26,1223.58,2554.06,1224.8,2554.06z
					 M1224.83,2558.51c-1.07,0-1.9,0.28-2.5,0.85c-0.6,0.57-1.02,1.34-1.26,2.32c-0.25,0.98-0.37,2.07-0.37,3.26
					c0,1.17,0.12,2.22,0.37,3.14c0.25,0.92,0.67,1.65,1.26,2.19c0.6,0.54,1.43,0.82,2.5,0.82c1.05,0,1.87-0.28,2.46-0.83
					s1.01-1.3,1.25-2.24c0.24-0.94,0.35-1.99,0.35-3.17c0-1.17-0.12-2.24-0.35-3.2c-0.23-0.96-0.65-1.72-1.25-2.29
					S1225.87,2558.51,1224.83,2558.51z"/>
			</g>
		</g>
		<g>
			<g>
				<path d="M1364.74,2575.31h-6.37v-21.22h4.67v16.74h1.7V2575.31z"/>
				<path d="M1353.73,2575.31h-6.37v-21.22h4.67v16.74h1.7V2575.31z"/>
			</g>
		</g>
		<g>
			<g>
				<path d="M1493.6,2575.31h-6.37v-21.22h4.67v16.74h1.7V2575.31z"/>
				<path d="M1482.46,2554.09c-1.32,1.34-2.59,2.64-3.81,3.89s-2.31,2.45-3.28,3.62c-0.97,1.16-1.74,2.29-2.3,3.38
					s-0.85,2.14-0.85,3.17c0,0.45,0.08,0.85,0.24,1.22c0.16,0.36,0.38,0.67,0.67,0.93c0.29,0.26,0.63,0.45,1.02,0.59
					c0.4,0.14,0.84,0.21,1.33,0.21c0.49,0,0.93-0.07,1.31-0.21c0.38-0.14,0.71-0.33,0.96-0.56c0.26-0.24,0.45-0.49,0.59-0.77
					c0.14-0.28,0.21-0.57,0.21-0.87c0-0.68-0.11-1.29-0.34-1.81c-0.22-0.52-0.53-0.99-0.91-1.39l2.85-2.59
					c0.62,0.3,1.15,0.8,1.58,1.5c0.44,0.7,0.77,1.45,0.99,2.22s0.34,1.42,0.34,1.94c0,1.17-0.33,2.29-0.98,3.36s-1.6,1.94-2.85,2.63
					c-1.25,0.68-2.77,1.02-4.56,1.02c-1.47,0-2.75-0.33-3.84-0.99c-1.09-0.66-1.94-1.53-2.54-2.61c-0.61-1.08-0.91-2.22-0.91-3.44
					c0-0.96,0.15-1.89,0.45-2.78s0.71-1.78,1.23-2.64c0.52-0.86,1.12-1.72,1.78-2.56c0.66-0.84,1.34-1.7,2.05-2.58l2.11,0.61h-7.87
					v-4.48H1482.46z"/>
			</g>
		</g>
		<g>
			<g>
				<path d="M1617.74,2575.31h-6.37v-21.22h4.67v16.74h1.7V2575.31z"/>
				<path d="M1593.74,2575.31l4.8-9.22l2.53,1.38c-0.21,0.08-0.44,0.15-0.69,0.19s-0.47,0.06-0.69,0.06
					c-0.75,0.02-1.49-0.06-2.24-0.26c-0.75-0.19-1.42-0.53-2.03-1.02c-0.61-0.49-1.1-1.16-1.47-2.02s-0.56-1.94-0.56-3.26
					c0-1.54,0.36-2.85,1.07-3.95c0.71-1.1,1.65-1.94,2.8-2.51c1.15-0.58,2.4-0.86,3.74-0.86c1.04,0,2.14,0.22,3.3,0.66
					c1.15,0.44,2.07,1.02,2.75,1.74l-2.37,3.84c-0.32-0.41-0.81-0.8-1.47-1.18c-0.66-0.38-1.35-0.58-2.08-0.58
					c-0.47,0-0.93,0.12-1.38,0.35c-0.45,0.23-0.82,0.59-1.12,1.06c-0.3,0.47-0.45,1.04-0.45,1.73c0,0.94,0.26,1.68,0.79,2.24
					c0.52,0.55,1.25,0.83,2.19,0.83c0.64,0,1.13-0.03,1.46-0.08c0.33-0.05,0.66-0.12,0.98-0.21l0.1,0.13l-3.74,7.01l-1.34-0.54h6.69
					v4.48H1593.74z"/>
			</g>
		</g>
		<g>
			<g>
				<path d="M1743.19,2575.31h-6.37v-21.22h4.67v16.74h1.7V2575.31z"/>
				<path d="M1733.46,2558.73v0.03l-13.54,16.8h-0.03v-13.31h-2.53v-3.52h2.53v-4.64h4.67v4.64H1733.46z M1724.34,2565.35l2.46-3.3
					l0.45,0.19h-2.69v3.33L1724.34,2565.35z"/>
			</g>
		</g>
		<g>
			<g>
				<path d="M1867.66,2575.31h-6.37v-21.22h4.67v16.74h1.7V2575.31z"/>
				<path d="M1850.51,2553.83c1.26,0,2.49,0.24,3.68,0.71c1.2,0.47,2.12,1.03,2.79,1.7l-2.4,3.71c-0.38-0.47-0.93-0.86-1.65-1.17
					s-1.4-0.46-2.06-0.46c-0.49,0-0.95,0.11-1.38,0.32c-0.43,0.21-0.77,0.53-1.02,0.96c-0.26,0.43-0.38,0.95-0.38,1.57
					c0,0.68,0.13,1.28,0.4,1.79c0.27,0.51,0.65,0.91,1.15,1.2s1.09,0.43,1.78,0.43c0.66,0,1.29-0.09,1.89-0.27
					c0.6-0.18,1.3-0.49,2.11-0.91h0.03v11.9h-10.59v-4.48h6.59v-3.42l0.54,0.96c-0.3,0.04-0.59,0.08-0.87,0.1
					c-0.28,0.02-0.55,0.03-0.83,0.03c-1.49,0-2.76-0.33-3.79-0.99s-1.83-1.54-2.38-2.62c-0.55-1.09-0.83-2.27-0.83-3.55
					c0-1.41,0.32-2.68,0.96-3.81c0.64-1.13,1.51-2.03,2.61-2.69C1847.94,2554.17,1849.16,2553.83,1850.51,2553.83z"/>
			</g>
		</g>
		<g>
			<g>
				<path d="M1993.38,2575.31h-6.37v-21.22h4.67v16.74h1.7V2575.31z"/>
				<path d="M1974.82,2553.83c1.54,0,2.92,0.36,4.16,1.09c1.24,0.73,2.22,1.79,2.94,3.2c0.73,1.41,1.09,3.13,1.09,5.15
					c0,1.26-0.24,2.48-0.72,3.66c-0.48,1.18-1.14,2.31-1.98,3.39s-1.82,2.09-2.93,3.02s-2.29,1.78-3.55,2.53l-3.1-3.36
					c1.71-0.66,3.1-1.51,4.19-2.54c1.09-1.04,1.89-2.11,2.4-3.22c0.51-1.11,0.77-2.13,0.77-3.07l1.15,0.13
					c-0.58,1.34-1.32,2.39-2.22,3.14s-2.17,1.12-3.79,1.12c-1.02,0-2.02-0.29-2.98-0.86c-0.96-0.58-1.74-1.38-2.35-2.4
					c-0.61-1.02-0.91-2.22-0.91-3.58c0-1.58,0.38-2.92,1.14-4.02c0.76-1.1,1.73-1.94,2.93-2.51
					C1972.24,2554.12,1973.5,2553.83,1974.82,2553.83z M1975.01,2557.99c-0.62,0-1.17,0.12-1.65,0.37
					c-0.48,0.25-0.86,0.61-1.14,1.09c-0.28,0.48-0.42,1.06-0.42,1.74c0,0.66,0.14,1.21,0.43,1.65c0.29,0.44,0.67,0.77,1.15,0.99
					c0.48,0.22,1.02,0.34,1.62,0.34s1.14-0.11,1.62-0.34c0.48-0.22,0.87-0.52,1.15-0.9c0.29-0.37,0.43-0.77,0.43-1.2v-0.77
					c0-0.51-0.14-0.99-0.42-1.44s-0.66-0.82-1.15-1.1C1976.16,2558.14,1975.61,2557.99,1975.01,2557.99z"/>
			</g>
		</g>
		<g>
			<g>
				<path d="M2117.49,2575.31h-6.37v-21.22h4.67v16.74h1.7V2575.31z"/>
				<path d="M2092.46,2575.31l7.9-21.22h5.18l-6.56,17.28l-1.5-0.54h9.31v4.48H2092.46z"/>
			</g>
		</g>
		<g>
			<g>
				<path d="M2242.98,2575.31h-6.37v-21.22h4.67v16.74h1.7V2575.31z"/>
				<path d="M2232.49,2563.79c-0.41,0.77-0.9,1.4-1.49,1.9s-1.13,0.9-1.62,1.2c0.47,0.49,0.87,1,1.2,1.52
					c0.33,0.52,0.5,1.26,0.5,2.22c0,0.96-0.27,1.81-0.82,2.56c-0.54,0.75-1.28,1.33-2.19,1.74s-1.93,0.62-3.04,0.62
					s-2.13-0.21-3.06-0.62c-0.93-0.42-1.67-0.98-2.24-1.68c-0.57-0.7-0.85-1.5-0.85-2.4c0-1.07,0.18-1.87,0.53-2.4
					c0.35-0.53,0.78-1.06,1.3-1.57c-0.51-0.32-1.05-0.74-1.62-1.25c-0.57-0.51-1.05-1.15-1.46-1.9c-0.4-0.76-0.61-1.68-0.61-2.77
					c0-1.24,0.35-2.4,1.06-3.49c0.7-1.09,1.66-1.97,2.86-2.64s2.59-1.01,4.14-1.01c1.56,0,2.94,0.34,4.14,1.01
					c1.21,0.67,2.15,1.55,2.83,2.64s1.02,2.25,1.02,3.49C2233.1,2562.08,2232.89,2563.02,2232.49,2563.79z M2227.88,2559.45
					c-0.3-0.52-0.69-0.94-1.18-1.25s-1.04-0.46-1.63-0.46c-0.62,0-1.18,0.15-1.7,0.46s-0.92,0.73-1.23,1.25
					c-0.31,0.52-0.46,1.09-0.46,1.71s0.14,1.18,0.43,1.68c0.29,0.5,0.67,0.91,1.15,1.23c0.48,0.32,1.02,0.49,1.62,0.51
					c0.6,0.02,1.16-0.12,1.68-0.42c0.52-0.3,0.95-0.71,1.28-1.23s0.5-1.12,0.5-1.78
					C2228.33,2560.54,2228.18,2559.97,2227.88,2559.45z M2226.04,2568.94c-0.35-0.32-0.72-0.48-1.1-0.48
					c-0.38,0-0.75,0.16-1.09,0.48c-0.34,0.32-0.51,0.69-0.51,1.12c0,0.43,0.17,0.8,0.5,1.14s0.7,0.5,1.1,0.5s0.78-0.17,1.12-0.5
					c0.34-0.33,0.51-0.71,0.51-1.14C2226.57,2569.63,2226.39,2569.26,2226.04,2568.94z"/>
			</g>
		</g>
		<g>
			<g>
				<path d="M2368.24,2575.31h-6.37v-21.22h4.67v16.74h1.7V2575.31z"/>
				<path d="M2351.63,2560.71c1.02,0,2.01,0.29,2.96,0.86c0.95,0.58,1.73,1.38,2.35,2.42s0.93,2.22,0.93,3.57
					c0,1.71-0.38,3.16-1.14,4.35c-0.76,1.2-1.73,2.1-2.93,2.72c-1.19,0.62-2.45,0.93-3.78,0.93c-1.56,0-2.95-0.35-4.18-1.04
					c-1.23-0.69-2.2-1.64-2.93-2.85c-0.73-1.21-1.09-2.56-1.09-4.08c0-1.75,0.3-3.32,0.91-4.72c0.61-1.4,1.42-2.65,2.43-3.76
					c1.01-1.11,2.14-2.12,3.38-3.02c1.24-0.91,2.49-1.75,3.74-2.54l3.1,3.36c-1.71,0.7-3.21,1.51-4.51,2.42
					c-1.3,0.91-2.31,1.86-3.04,2.85c-0.73,0.99-1.09,1.97-1.09,2.93l-1.15-0.13c0.58-1.34,1.31-2.39,2.21-3.14
					C2348.72,2561.09,2349.99,2560.71,2351.63,2560.71z M2349.84,2564.62c-0.9,0-1.65,0.29-2.27,0.86
					c-0.62,0.58-0.93,1.23-0.93,1.95v0.74c0,0.55,0.14,1.08,0.42,1.57s0.66,0.89,1.14,1.2c0.48,0.31,1.03,0.46,1.65,0.46
					c0.6,0,1.14-0.13,1.63-0.4c0.49-0.27,0.88-0.66,1.15-1.17s0.42-1.14,0.42-1.89c0-0.73-0.14-1.34-0.43-1.84
					c-0.29-0.5-0.67-0.88-1.15-1.12C2350.98,2564.74,2350.44,2564.62,2349.84,2564.62z"/>
			</g>
		</g>
		<g>
			<g>
				<path d="M2498.29,2554.09c-1.32,1.34-2.59,2.64-3.81,3.89c-1.22,1.25-2.31,2.45-3.28,3.62c-0.97,1.16-1.74,2.29-2.3,3.38
					c-0.56,1.09-0.85,2.14-0.85,3.17c0,0.45,0.08,0.85,0.24,1.22c0.16,0.36,0.38,0.67,0.67,0.93c0.29,0.26,0.63,0.45,1.02,0.59
					c0.39,0.14,0.84,0.21,1.33,0.21c0.49,0,0.93-0.07,1.31-0.21c0.38-0.14,0.7-0.33,0.96-0.56c0.26-0.24,0.45-0.49,0.59-0.77
					c0.14-0.28,0.21-0.57,0.21-0.87c0-0.68-0.11-1.29-0.34-1.81c-0.22-0.52-0.53-0.99-0.91-1.39l2.85-2.59
					c0.62,0.3,1.15,0.8,1.58,1.5c0.44,0.7,0.77,1.45,0.99,2.22s0.34,1.42,0.34,1.94c0,1.17-0.32,2.29-0.98,3.36
					c-0.65,1.07-1.6,1.94-2.85,2.63c-1.25,0.68-2.77,1.02-4.56,1.02c-1.47,0-2.75-0.33-3.84-0.99c-1.09-0.66-1.94-1.53-2.54-2.61
					c-0.61-1.08-0.91-2.22-0.91-3.44c0-0.96,0.15-1.89,0.45-2.78c0.3-0.9,0.71-1.78,1.23-2.64c0.52-0.86,1.12-1.72,1.78-2.56
					c0.66-0.84,1.34-1.7,2.05-2.58l2.11,0.61h-7.87v-4.48H2498.29z"/>
				<path d="M2471.31,2554.06c1.22,0,2.36,0.21,3.44,0.64s2.03,1.08,2.85,1.97c0.82,0.88,1.47,2.01,1.94,3.36s0.7,2.95,0.7,4.78
					c0,2.05-0.22,3.76-0.67,5.14c-0.45,1.38-1.07,2.48-1.87,3.31c-0.8,0.83-1.74,1.42-2.83,1.78s-2.27,0.53-3.55,0.53
					c-1.22,0-2.36-0.21-3.44-0.64s-2.03-1.08-2.85-1.97c-0.82-0.89-1.47-2-1.94-3.36c-0.47-1.35-0.7-2.95-0.7-4.78
					c0-1.9,0.23-3.53,0.7-4.9s1.12-2.48,1.95-3.34c0.83-0.86,1.78-1.5,2.85-1.9C2468.95,2554.26,2470.09,2554.06,2471.31,2554.06z
					 M2471.34,2558.51c-1.07,0-1.9,0.28-2.5,0.85c-0.6,0.57-1.02,1.34-1.26,2.32c-0.25,0.98-0.37,2.07-0.37,3.26
					c0,1.17,0.12,2.22,0.37,3.14c0.25,0.92,0.67,1.65,1.26,2.19c0.6,0.54,1.43,0.82,2.5,0.82c1.05,0,1.87-0.28,2.46-0.83
					c0.6-0.55,1.01-1.3,1.25-2.24c0.24-0.94,0.35-1.99,0.35-3.17c0-1.17-0.12-2.24-0.35-3.2c-0.23-0.96-0.65-1.72-1.25-2.29
					C2473.21,2558.79,2472.39,2558.51,2471.34,2558.51z"/>
			</g>
		</g>
	</g>
	<rect id="Inner_Border" x="44.07" y="42.52" class="st4" width="2505.17" height="2505.17"/>
</g>
<g id="STAR" style="display:inline;">
	<path d="M1129.28,2042.81c-1.78,0-3.62-0.31-5.51-0.93c-1.9-0.62-3.46-1.41-4.7-2.38l-0.81,2.84h-3.71l-0.99-11.77l4.29-0.58
		c0.89,2.13,2.17,3.97,3.86,5.54c1.68,1.57,3.84,2.35,6.47,2.35c1.78,0,3.15-0.3,4.12-0.9c0.97-0.6,1.64-1.33,2.03-2.2
		c0.39-0.87,0.58-1.71,0.58-2.52c0-1.89-0.79-3.31-2.38-4.26c-1.59-0.95-3.65-1.85-6.21-2.7c-2.4-0.81-4.48-1.72-6.23-2.73
		c-1.76-1-3.11-2.29-4.06-3.86c-0.95-1.57-1.42-3.57-1.42-6c0-1.39,0.25-2.8,0.75-4.23c0.5-1.43,1.29-2.75,2.35-3.94
		c1.06-1.2,2.44-2.16,4.12-2.87c1.68-0.72,3.72-1.07,6.12-1.07c2.28,0,4.14,0.33,5.57,0.99c1.43,0.66,2.53,1.3,3.31,1.91l0.75-2.9
		h3.48l1.28,12.3l-4.29,0.75c-1.01-3.05-2.3-5.21-3.89-6.47c-1.59-1.26-3.44-1.88-5.57-1.88c-1.7,0-3.13,0.44-4.29,1.33
		c-1.16,0.89-1.74,2.24-1.74,4.06c0,1.35,0.38,2.43,1.13,3.22c0.75,0.79,1.8,1.48,3.13,2.06s2.85,1.22,4.55,1.91
		c1.47,0.58,2.91,1.19,4.32,1.83c1.41,0.64,2.68,1.38,3.8,2.23c1.12,0.85,2.02,1.94,2.7,3.28c0.68,1.33,1.02,2.99,1.02,4.96
		c0,2.63-0.64,4.89-1.91,6.79c-1.28,1.89-2.97,3.34-5.08,4.35C1134.1,2042.31,1131.79,2042.81,1129.28,2042.81z"/>
	<path d="M1160.54,2042v-3.54l3.48-0.58c0.85-0.12,1.38-0.43,1.59-0.96c0.21-0.52,0.32-1.21,0.32-2.06v-29.41h-1.45
		c-1.43,0-2.62,0.11-3.57,0.32c-0.95,0.21-1.74,0.63-2.38,1.25c-0.64,0.62-1.22,1.51-1.74,2.67c-0.52,1.16-1.09,2.69-1.71,4.58
		l-4.35-0.99l2.32-11.89h34.51l2.32,11.72l-4.41,0.99c-0.77-2.4-1.47-4.21-2.09-5.45c-0.62-1.24-1.4-2.08-2.35-2.52
		c-0.95-0.44-2.33-0.67-4.15-0.67h-2.38v29.64c0,0.89,0.12,1.54,0.35,1.94s0.77,0.69,1.62,0.84l3.42,0.58v3.54H1160.54z"/>
	<path d="M1191.22,2042v-3.48l2.73-0.41c0.7-0.15,1.2-0.45,1.51-0.9c0.31-0.44,0.66-1.21,1.04-2.29l12.06-33.52h7.42l11.95,33.7
		c0.31,0.93,0.61,1.62,0.9,2.09c0.29,0.46,0.82,0.77,1.59,0.93l2.32,0.41v3.48h-17.92v-3.48l2.67-0.41
		c0.77-0.12,1.23-0.39,1.36-0.81c0.14-0.42,0.05-1.12-0.26-2.09l-1.8-5.68h-12.88l-1.8,5.45c-0.31,0.93-0.38,1.62-0.2,2.09
		s0.69,0.79,1.54,0.99l2.55,0.46v3.48H1191.22z M1205.14,2025.59h10.5l-4.93-15.6h-0.23L1205.14,2025.59z"/>
	<path d="M1272.88,2042.81c-1.93,0-3.44-0.28-4.52-0.84c-1.08-0.56-1.96-1.4-2.64-2.52c-0.68-1.12-1.38-2.49-2.12-4.12l-2.9-6.61
		c-0.5-1.2-0.97-2.14-1.39-2.81c-0.43-0.68-0.93-1.16-1.51-1.45c-0.58-0.29-1.35-0.44-2.32-0.44c-0.23,0-0.5,0.04-0.81,0.12v10.96
		c0,0.97,0.14,1.66,0.41,2.09c0.27,0.43,0.87,0.7,1.8,0.81l3.13,0.46v3.54h-18.79v-3.54l3.13-0.52c0.85-0.15,1.36-0.47,1.54-0.96
		c0.17-0.48,0.26-1.15,0.26-2v-26.8c0-0.89-0.1-1.53-0.29-1.91c-0.19-0.39-0.73-0.66-1.62-0.81l-3.02-0.52v-3.54h18.91
		c2.55,0,4.85,0.3,6.9,0.9c2.05,0.6,3.68,1.62,4.9,3.07c1.22,1.45,1.83,3.47,1.83,6.06c0,1.62-0.35,3.04-1.04,4.26
		c-0.7,1.22-1.59,2.25-2.67,3.1c-1.08,0.85-2.23,1.53-3.45,2.03c-1.22,0.5-2.35,0.85-3.39,1.04v0.17c1.82,0.5,3.19,1.24,4.12,2.2
		c0.93,0.97,1.7,2.19,2.32,3.65l1.97,4.64c0.5,1.12,0.96,2.1,1.36,2.93c0.41,0.83,0.86,1.48,1.36,1.94c0.5,0.46,1.12,0.7,1.86,0.7
		c0.42,0,0.88-0.04,1.36-0.12c0.48-0.08,0.98-0.19,1.48-0.35l0.75,2.73c-0.85,0.77-1.93,1.37-3.25,1.8
		C1275.22,2042.6,1274.01,2042.81,1272.88,2042.81z M1256.24,2020.19c2.13,0,3.82-0.37,5.08-1.1c1.26-0.73,2.15-1.7,2.7-2.9
		c0.54-1.2,0.81-2.51,0.81-3.94c0-2.47-0.69-4.22-2.06-5.25c-1.37-1.02-3.26-1.54-5.65-1.54h-2.38v14.62
		C1255.27,2020.15,1255.77,2020.19,1256.24,2020.19z"/>
	<path class="st5" d="M1126.07,2040.06c-1.78,0-3.62-0.31-5.51-0.93c-1.9-0.62-3.46-1.41-4.7-2.38l-0.81,2.84h-3.71l-0.99-11.77
		l4.29-0.58c0.89,2.13,2.17,3.97,3.86,5.54c1.68,1.57,3.84,2.35,6.47,2.35c1.78,0,3.15-0.3,4.12-0.9c0.97-0.6,1.64-1.33,2.03-2.2
		c0.39-0.87,0.58-1.71,0.58-2.52c0-1.89-0.79-3.31-2.38-4.26c-1.59-0.95-3.65-1.85-6.21-2.7c-2.4-0.81-4.48-1.72-6.23-2.73
		c-1.76-1-3.11-2.29-4.06-3.86c-0.95-1.57-1.42-3.57-1.42-6c0-1.39,0.25-2.8,0.75-4.23c0.5-1.43,1.29-2.75,2.35-3.94
		c1.06-1.2,2.44-2.16,4.12-2.87c1.68-0.72,3.72-1.07,6.12-1.07c2.28,0,4.14,0.33,5.57,0.99c1.43,0.66,2.53,1.3,3.31,1.91l0.75-2.9
		h3.48l1.28,12.3l-4.29,0.75c-1.01-3.05-2.3-5.21-3.89-6.47c-1.59-1.26-3.44-1.88-5.57-1.88c-1.7,0-3.13,0.44-4.29,1.33
		c-1.16,0.89-1.74,2.24-1.74,4.06c0,1.35,0.38,2.43,1.13,3.22c0.75,0.79,1.8,1.48,3.13,2.06s2.85,1.22,4.55,1.91
		c1.47,0.58,2.91,1.19,4.32,1.83c1.41,0.64,2.68,1.38,3.8,2.23c1.12,0.85,2.02,1.94,2.7,3.28c0.68,1.33,1.02,2.99,1.02,4.96
		c0,2.63-0.64,4.89-1.91,6.79c-1.28,1.89-2.97,3.34-5.08,4.35C1130.89,2039.55,1128.58,2040.06,1126.07,2040.06z"/>
	<path class="st5" d="M1157.33,2039.25v-3.54l3.48-0.58c0.85-0.12,1.38-0.43,1.59-0.96c0.21-0.52,0.32-1.21,0.32-2.06v-29.41h-1.45
		c-1.43,0-2.62,0.11-3.57,0.32c-0.95,0.21-1.74,0.63-2.38,1.25c-0.64,0.62-1.22,1.51-1.74,2.67c-0.52,1.16-1.09,2.69-1.71,4.58
		l-4.35-0.99l2.32-11.89h34.51l2.32,11.72l-4.41,0.99c-0.77-2.4-1.47-4.21-2.09-5.45c-0.62-1.24-1.4-2.08-2.35-2.52
		c-0.95-0.44-2.33-0.67-4.15-0.67h-2.38v29.64c0,0.89,0.12,1.54,0.35,1.94s0.77,0.69,1.62,0.84l3.42,0.58v3.54H1157.33z"/>
	<path class="st5" d="M1188.02,2039.25v-3.48l2.73-0.41c0.7-0.15,1.2-0.45,1.51-0.9c0.31-0.44,0.66-1.21,1.04-2.29l12.06-33.52h7.42
		l11.95,33.7c0.31,0.93,0.61,1.62,0.9,2.09c0.29,0.46,0.82,0.77,1.59,0.93l2.32,0.41v3.48h-17.92v-3.48l2.67-0.41
		c0.77-0.12,1.23-0.39,1.36-0.81c0.14-0.42,0.05-1.12-0.26-2.09l-1.8-5.68h-12.88l-1.8,5.45c-0.31,0.93-0.38,1.62-0.2,2.09
		s0.69,0.79,1.54,0.99l2.55,0.46v3.48H1188.02z M1201.94,2022.83h10.5l-4.93-15.6h-0.23L1201.94,2022.83z"/>
	<path class="st5" d="M1269.68,2040.06c-1.93,0-3.44-0.28-4.52-0.84c-1.08-0.56-1.96-1.4-2.64-2.52c-0.68-1.12-1.38-2.49-2.12-4.12
		l-2.9-6.61c-0.5-1.2-0.97-2.14-1.39-2.81c-0.43-0.68-0.93-1.16-1.51-1.45c-0.58-0.29-1.35-0.44-2.32-0.44
		c-0.23,0-0.5,0.04-0.81,0.12v10.96c0,0.97,0.14,1.66,0.41,2.09c0.27,0.43,0.87,0.7,1.8,0.81l3.13,0.46v3.54h-18.79v-3.54l3.13-0.52
		c0.85-0.15,1.36-0.47,1.54-0.96c0.17-0.48,0.26-1.15,0.26-2v-26.8c0-0.89-0.1-1.53-0.29-1.91c-0.19-0.39-0.73-0.66-1.62-0.81
		l-3.02-0.52v-3.54h18.91c2.55,0,4.85,0.3,6.9,0.9c2.05,0.6,3.68,1.62,4.9,3.07c1.22,1.45,1.83,3.47,1.83,6.06
		c0,1.62-0.35,3.04-1.04,4.26c-0.7,1.22-1.59,2.25-2.67,3.1c-1.08,0.85-2.23,1.53-3.45,2.03c-1.22,0.5-2.35,0.85-3.39,1.04v0.17
		c1.82,0.5,3.19,1.24,4.12,2.2c0.93,0.97,1.7,2.19,2.32,3.65l1.97,4.64c0.5,1.12,0.96,2.1,1.36,2.93c0.41,0.83,0.86,1.48,1.36,1.94
		c0.5,0.46,1.12,0.7,1.86,0.7c0.42,0,0.88-0.04,1.36-0.12c0.48-0.08,0.98-0.19,1.48-0.35l0.75,2.73c-0.85,0.77-1.93,1.37-3.25,1.8
		C1272.02,2039.84,1270.8,2040.06,1269.68,2040.06z M1253.03,2017.44c2.13,0,3.82-0.37,5.08-1.1c1.26-0.73,2.15-1.7,2.7-2.9
		c0.54-1.2,0.81-2.51,0.81-3.94c0-2.47-0.69-4.22-2.06-5.25c-1.37-1.02-3.26-1.54-5.65-1.54h-2.38v14.62
		C1252.07,2017.4,1252.57,2017.44,1253.03,2017.44z"/>
</g>
<g id="REPORTER" style="display:inline;">
	<path d="M1052.8,2101.37c-1.93,0-3.44-0.28-4.52-0.84c-1.08-0.56-1.96-1.4-2.64-2.52c-0.68-1.12-1.38-2.49-2.12-4.12l-2.9-6.61
		c-0.5-1.2-0.97-2.14-1.39-2.81c-0.43-0.68-0.93-1.16-1.51-1.45c-0.58-0.29-1.35-0.44-2.32-0.44c-0.23,0-0.5,0.04-0.81,0.12v10.96
		c0,0.97,0.14,1.66,0.41,2.09c0.27,0.43,0.87,0.7,1.8,0.81l3.13,0.46v3.54h-18.79v-3.54l3.13-0.52c0.85-0.15,1.36-0.47,1.54-0.96
		c0.17-0.48,0.26-1.15,0.26-2v-26.8c0-0.89-0.1-1.53-0.29-1.91c-0.19-0.39-0.73-0.66-1.62-0.81l-3.02-0.52v-3.54h18.91
		c2.55,0,4.85,0.3,6.9,0.9c2.05,0.6,3.68,1.62,4.9,3.07c1.22,1.45,1.83,3.47,1.83,6.06c0,1.62-0.35,3.04-1.04,4.26
		c-0.7,1.22-1.59,2.25-2.67,3.1c-1.08,0.85-2.23,1.53-3.45,2.03c-1.22,0.5-2.35,0.85-3.39,1.04v0.17c1.82,0.5,3.19,1.24,4.12,2.2
		c0.93,0.97,1.7,2.19,2.32,3.65l1.97,4.64c0.5,1.12,0.96,2.1,1.36,2.93c0.41,0.83,0.86,1.48,1.36,1.94c0.5,0.46,1.12,0.7,1.86,0.7
		c0.42,0,0.88-0.04,1.36-0.12c0.48-0.08,0.98-0.19,1.48-0.35l0.75,2.73c-0.85,0.77-1.93,1.37-3.25,1.8
		C1055.14,2101.16,1053.93,2101.37,1052.8,2101.37z M1036.16,2078.75c2.13,0,3.82-0.37,5.08-1.1c1.26-0.73,2.15-1.7,2.7-2.9
		c0.54-1.2,0.81-2.51,0.81-3.94c0-2.47-0.69-4.22-2.06-5.25c-1.37-1.02-3.26-1.54-5.65-1.54h-2.38v14.62
		C1035.19,2078.71,1035.69,2078.75,1036.16,2078.75z"/>
	<path d="M1067.77,2100.56v-3.48l2.78-0.52c0.73-0.15,1.22-0.42,1.45-0.78c0.23-0.37,0.35-1.09,0.35-2.17v-26.91
		c0-1-0.12-1.67-0.35-2c-0.23-0.33-0.75-0.57-1.57-0.73l-2.67-0.52v-3.48h28.71l2.2,9.74l-3.77,0.99c-0.66-1.86-1.32-3.27-2-4.23
		c-0.68-0.97-1.52-1.61-2.52-1.94c-1.01-0.33-2.38-0.49-4.12-0.49h-5.34v13.86h2.96c1.47,0,2.52-0.08,3.16-0.23
		c0.64-0.15,1.1-0.57,1.39-1.25c0.29-0.68,0.57-1.79,0.84-3.33l3.36-0.41v13.51l-3.36,0.58c-0.15-1.43-0.37-2.49-0.64-3.19
		c-0.27-0.7-0.69-1.16-1.25-1.39c-0.56-0.23-1.4-0.35-2.52-0.35h-3.94v14.67h6.84c1.93,0,3.41-0.15,4.44-0.46
		c1.02-0.31,1.82-0.95,2.38-1.91c0.56-0.97,1.09-2.45,1.59-4.47h4l-1.39,10.9H1067.77z"/>
	<path d="M1109.82,2100.56v-3.48l3.07-0.52c0.85-0.15,1.36-0.47,1.54-0.96c0.17-0.48,0.26-1.15,0.26-2v-26.91
		c0-0.89-0.1-1.53-0.29-1.91c-0.19-0.39-0.73-0.66-1.62-0.81l-2.96-0.52v-3.48h17.34c2.94,0,5.59,0.41,7.95,1.22
		c2.36,0.81,4.22,2.11,5.6,3.89c1.37,1.78,2.06,4.16,2.06,7.13c0,2.44-0.45,4.49-1.33,6.15c-0.89,1.66-2.05,2.99-3.48,3.97
		c-1.43,0.99-2.99,1.69-4.67,2.12c-1.68,0.43-3.32,0.64-4.9,0.64c-1.08,0-2.15-0.04-3.19-0.12s-1.7-0.14-1.97-0.17v9.05
		c0,0.97,0.13,1.66,0.38,2.09c0.25,0.43,0.84,0.7,1.77,0.81l4.06,0.46v3.36H1109.82z M1125.59,2081.01c2.86,0,4.95-0.89,6.26-2.67
		c1.31-1.78,1.97-3.96,1.97-6.55c0-2.4-0.62-4.29-1.86-5.68c-1.24-1.39-3.21-2.09-5.92-2.09h-2.78v16.88
		c0.27,0.04,0.58,0.07,0.93,0.09C1124.55,2081,1125.01,2081.01,1125.59,2081.01z"/>
	<path d="M1171.3,2101.37c-4.49,0-8.18-0.9-11.08-2.7c-2.9-1.8-5.06-4.23-6.47-7.31c-1.41-3.07-2.12-6.52-2.12-10.35
		c0-3.83,0.53-7.11,1.6-9.86c1.06-2.75,2.53-5.01,4.41-6.79c1.88-1.78,4.04-3.09,6.5-3.94c2.46-0.85,5.06-1.28,7.8-1.28
		c3.6,0,6.83,0.75,9.72,2.23c2.88,1.49,5.16,3.71,6.84,6.67c1.68,2.96,2.52,6.68,2.52,11.16c0,4.14-0.74,7.88-2.23,11.22
		c-1.49,3.34-3.69,6-6.61,7.97C1179.25,2100.38,1175.63,2101.37,1171.3,2101.37z M1171.82,2096.5c3.21,0,5.72-1.31,7.54-3.92
		c1.82-2.61,2.73-6.72,2.73-12.33c0-3.25-0.43-6.1-1.28-8.56c-0.85-2.46-2.1-4.36-3.74-5.71c-1.64-1.35-3.66-2.03-6.06-2.03
		c-3.36,0-5.93,1.33-7.68,3.97c-1.76,2.65-2.64,6.62-2.64,11.92c0,3.25,0.4,6.13,1.19,8.64c0.79,2.51,2.01,4.48,3.65,5.89
		C1167.17,2095.79,1169.27,2096.5,1171.82,2096.5z"/>
	<path d="M1233.01,2101.37c-1.93,0-3.44-0.28-4.52-0.84c-1.08-0.56-1.96-1.4-2.64-2.52c-0.68-1.12-1.38-2.49-2.12-4.12l-2.9-6.61
		c-0.5-1.2-0.97-2.14-1.39-2.81c-0.43-0.68-0.93-1.16-1.51-1.45s-1.35-0.44-2.32-0.44c-0.23,0-0.5,0.04-0.81,0.12v10.96
		c0,0.97,0.13,1.66,0.41,2.09c0.27,0.43,0.87,0.7,1.8,0.81l3.13,0.46v3.54h-18.79v-3.54l3.13-0.52c0.85-0.15,1.36-0.47,1.54-0.96
		c0.17-0.48,0.26-1.15,0.26-2v-26.8c0-0.89-0.1-1.53-0.29-1.91c-0.19-0.39-0.74-0.66-1.62-0.81l-3.02-0.52v-3.54h18.91
		c2.55,0,4.85,0.3,6.9,0.9c2.05,0.6,3.68,1.62,4.9,3.07c1.22,1.45,1.83,3.47,1.83,6.06c0,1.62-0.35,3.04-1.04,4.26
		c-0.7,1.22-1.59,2.25-2.67,3.1c-1.08,0.85-2.23,1.53-3.45,2.03c-1.22,0.5-2.35,0.85-3.39,1.04v0.17c1.82,0.5,3.19,1.24,4.12,2.2
		c0.93,0.97,1.7,2.19,2.32,3.65l1.97,4.64c0.5,1.12,0.96,2.1,1.36,2.93c0.41,0.83,0.86,1.48,1.36,1.94s1.12,0.7,1.86,0.7
		c0.42,0,0.88-0.04,1.36-0.12c0.48-0.08,0.98-0.19,1.48-0.35l0.75,2.73c-0.85,0.77-1.93,1.37-3.25,1.8
		S1234.13,2101.37,1233.01,2101.37z M1216.36,2078.75c2.13,0,3.82-0.37,5.08-1.1c1.26-0.73,2.16-1.7,2.7-2.9
		c0.54-1.2,0.81-2.51,0.81-3.94c0-2.47-0.69-4.22-2.06-5.25c-1.37-1.02-3.26-1.54-5.66-1.54h-2.38v14.62
		C1215.4,2078.71,1215.9,2078.75,1216.36,2078.75z"/>
	<path d="M1252.96,2100.56v-3.54l3.48-0.58c0.85-0.12,1.38-0.43,1.6-0.96c0.21-0.52,0.32-1.21,0.32-2.06v-29.41h-1.45
		c-1.43,0-2.62,0.11-3.57,0.32c-0.95,0.21-1.74,0.63-2.38,1.25c-0.64,0.62-1.22,1.51-1.74,2.67c-0.52,1.16-1.09,2.69-1.71,4.58
		l-4.35-0.99l2.32-11.89h34.51l2.32,11.72l-4.41,0.99c-0.77-2.4-1.47-4.21-2.09-5.45c-0.62-1.24-1.4-2.08-2.35-2.52
		c-0.95-0.44-2.33-0.67-4.15-0.67h-2.38v29.64c0,0.89,0.12,1.54,0.35,1.94c0.23,0.41,0.77,0.69,1.62,0.84l3.42,0.58v3.54H1252.96z"
		/>
	<path d="M1291.65,2100.56v-3.48l2.78-0.52c0.73-0.15,1.22-0.42,1.45-0.78c0.23-0.37,0.35-1.09,0.35-2.17v-26.91
		c0-1-0.12-1.67-0.35-2c-0.23-0.33-0.75-0.57-1.57-0.73l-2.67-0.52v-3.48h28.71l2.2,9.74l-3.77,0.99c-0.66-1.86-1.33-3.27-2-4.23
		c-0.68-0.97-1.52-1.61-2.52-1.94c-1.01-0.33-2.38-0.49-4.12-0.49h-5.34v13.86h2.96c1.47,0,2.52-0.08,3.16-0.23
		c0.64-0.15,1.1-0.57,1.39-1.25c0.29-0.68,0.57-1.79,0.84-3.33l3.36-0.41v13.51l-3.36,0.58c-0.16-1.43-0.37-2.49-0.64-3.19
		c-0.27-0.7-0.69-1.16-1.25-1.39c-0.56-0.23-1.4-0.35-2.52-0.35h-3.94v14.67h6.84c1.93,0,3.41-0.15,4.44-0.46
		c1.02-0.31,1.82-0.95,2.38-1.91c0.56-0.97,1.09-2.45,1.6-4.47h4l-1.39,10.9H1291.65z"/>
	<path d="M1365.31,2101.37c-1.93,0-3.44-0.28-4.52-0.84c-1.08-0.56-1.96-1.4-2.64-2.52c-0.68-1.12-1.38-2.49-2.12-4.12l-2.9-6.61
		c-0.5-1.2-0.97-2.14-1.39-2.81c-0.43-0.68-0.93-1.16-1.51-1.45s-1.35-0.44-2.32-0.44c-0.23,0-0.5,0.04-0.81,0.12v10.96
		c0,0.97,0.13,1.66,0.41,2.09c0.27,0.43,0.87,0.7,1.8,0.81l3.13,0.46v3.54h-18.79v-3.54l3.13-0.52c0.85-0.15,1.36-0.47,1.54-0.96
		c0.17-0.48,0.26-1.15,0.26-2v-26.8c0-0.89-0.1-1.53-0.29-1.91c-0.19-0.39-0.74-0.66-1.62-0.81l-3.02-0.52v-3.54h18.91
		c2.55,0,4.85,0.3,6.9,0.9c2.05,0.6,3.68,1.62,4.9,3.07c1.22,1.45,1.83,3.47,1.83,6.06c0,1.62-0.35,3.04-1.04,4.26
		c-0.7,1.22-1.59,2.25-2.67,3.1c-1.08,0.85-2.23,1.53-3.45,2.03c-1.22,0.5-2.35,0.85-3.39,1.04v0.17c1.82,0.5,3.19,1.24,4.12,2.2
		c0.93,0.97,1.7,2.19,2.32,3.65l1.97,4.64c0.5,1.12,0.96,2.1,1.36,2.93c0.41,0.83,0.86,1.48,1.36,1.94s1.12,0.7,1.86,0.7
		c0.42,0,0.88-0.04,1.36-0.12c0.48-0.08,0.98-0.19,1.48-0.35l0.75,2.73c-0.85,0.77-1.93,1.37-3.25,1.8
		S1366.43,2101.37,1365.31,2101.37z M1348.66,2078.75c2.13,0,3.82-0.37,5.08-1.1c1.26-0.73,2.16-1.7,2.7-2.9
		c0.54-1.2,0.81-2.51,0.81-3.94c0-2.47-0.69-4.22-2.06-5.25c-1.37-1.02-3.26-1.54-5.66-1.54h-2.38v14.62
		C1347.69,2078.71,1348.2,2078.75,1348.66,2078.75z"/>
	<path class="st5" d="M1049.6,2098.61c-1.93,0-3.44-0.28-4.52-0.84c-1.08-0.56-1.96-1.4-2.64-2.52c-0.68-1.12-1.38-2.49-2.12-4.12
		l-2.9-6.61c-0.5-1.2-0.97-2.14-1.39-2.81c-0.43-0.68-0.93-1.16-1.51-1.45c-0.58-0.29-1.35-0.44-2.32-0.44
		c-0.23,0-0.5,0.04-0.81,0.12v10.96c0,0.97,0.14,1.66,0.41,2.09c0.27,0.43,0.87,0.7,1.8,0.81l3.13,0.46v3.54h-18.79v-3.54l3.13-0.52
		c0.85-0.15,1.36-0.47,1.54-0.96c0.17-0.48,0.26-1.15,0.26-2v-26.8c0-0.89-0.1-1.53-0.29-1.91c-0.19-0.39-0.73-0.66-1.62-0.81
		l-3.02-0.52v-3.54h18.91c2.55,0,4.85,0.3,6.9,0.9c2.05,0.6,3.68,1.62,4.9,3.07c1.22,1.45,1.83,3.47,1.83,6.06
		c0,1.62-0.35,3.04-1.04,4.26c-0.7,1.22-1.59,2.25-2.67,3.1c-1.08,0.85-2.23,1.53-3.45,2.03c-1.22,0.5-2.35,0.85-3.39,1.04v0.17
		c1.82,0.5,3.19,1.24,4.12,2.2c0.93,0.97,1.7,2.19,2.32,3.65l1.97,4.64c0.5,1.12,0.96,2.1,1.36,2.93c0.41,0.83,0.86,1.48,1.36,1.94
		c0.5,0.46,1.12,0.7,1.86,0.7c0.42,0,0.88-0.04,1.36-0.12c0.48-0.08,0.98-0.19,1.48-0.35l0.75,2.73c-0.85,0.77-1.93,1.37-3.25,1.8
		C1051.94,2098.4,1050.72,2098.61,1049.6,2098.61z M1032.95,2075.99c2.13,0,3.82-0.37,5.08-1.1c1.26-0.73,2.15-1.7,2.7-2.9
		c0.54-1.2,0.81-2.51,0.81-3.94c0-2.47-0.69-4.22-2.06-5.25c-1.37-1.02-3.26-1.54-5.65-1.54h-2.38v14.62
		C1031.99,2075.96,1032.49,2075.99,1032.95,2075.99z"/>
	<path class="st5" d="M1064.56,2097.8v-3.48l2.78-0.52c0.73-0.15,1.22-0.42,1.45-0.78c0.23-0.37,0.35-1.09,0.35-2.17v-26.91
		c0-1-0.12-1.67-0.35-2c-0.23-0.33-0.75-0.57-1.57-0.73l-2.67-0.52v-3.48h28.71l2.2,9.74l-3.77,0.99c-0.66-1.86-1.32-3.27-2-4.23
		c-0.68-0.97-1.52-1.61-2.52-1.94c-1.01-0.33-2.38-0.49-4.12-0.49h-5.34v13.86h2.96c1.47,0,2.52-0.08,3.16-0.23
		c0.64-0.15,1.1-0.57,1.39-1.25c0.29-0.68,0.57-1.79,0.84-3.33l3.36-0.41v13.51l-3.36,0.58c-0.15-1.43-0.37-2.49-0.64-3.19
		c-0.27-0.7-0.69-1.16-1.25-1.39c-0.56-0.23-1.4-0.35-2.52-0.35h-3.94v14.67h6.84c1.93,0,3.41-0.15,4.44-0.46
		c1.02-0.31,1.82-0.95,2.38-1.91c0.56-0.97,1.09-2.45,1.59-4.47h4l-1.39,10.9H1064.56z"/>
	<path class="st5" d="M1106.61,2097.8v-3.48l3.07-0.52c0.85-0.15,1.36-0.47,1.54-0.96c0.17-0.48,0.26-1.15,0.26-2v-26.91
		c0-0.89-0.1-1.53-0.29-1.91c-0.19-0.39-0.73-0.66-1.62-0.81l-2.96-0.52v-3.48h17.34c2.94,0,5.59,0.41,7.95,1.22
		c2.36,0.81,4.22,2.11,5.6,3.89c1.37,1.78,2.06,4.16,2.06,7.13c0,2.44-0.45,4.49-1.33,6.15c-0.89,1.66-2.05,2.99-3.48,3.97
		c-1.43,0.99-2.99,1.69-4.67,2.12c-1.68,0.43-3.32,0.64-4.9,0.64c-1.08,0-2.15-0.04-3.19-0.12s-1.7-0.14-1.97-0.17v9.05
		c0,0.97,0.13,1.66,0.38,2.09c0.25,0.43,0.84,0.7,1.77,0.81l4.06,0.46v3.36H1106.61z M1122.39,2078.26c2.86,0,4.95-0.89,6.26-2.67
		c1.31-1.78,1.97-3.96,1.97-6.55c0-2.4-0.62-4.29-1.86-5.68c-1.24-1.39-3.21-2.09-5.92-2.09h-2.78v16.88
		c0.27,0.04,0.58,0.07,0.93,0.09C1121.34,2078.25,1121.81,2078.26,1122.39,2078.26z"/>
	<path class="st5" d="M1168.09,2098.61c-4.49,0-8.18-0.9-11.08-2.7c-2.9-1.8-5.06-4.23-6.47-7.31c-1.41-3.07-2.12-6.52-2.12-10.35
		c0-3.83,0.53-7.11,1.6-9.86c1.06-2.75,2.53-5.01,4.41-6.79c1.88-1.78,4.04-3.09,6.5-3.94c2.46-0.85,5.06-1.28,7.8-1.28
		c3.6,0,6.83,0.75,9.72,2.23c2.88,1.49,5.16,3.71,6.84,6.67c1.68,2.96,2.52,6.68,2.52,11.16c0,4.14-0.74,7.88-2.23,11.22
		c-1.49,3.34-3.69,6-6.61,7.97C1176.05,2097.63,1172.42,2098.61,1168.09,2098.61z M1168.61,2093.74c3.21,0,5.72-1.31,7.54-3.92
		c1.82-2.61,2.73-6.72,2.73-12.33c0-3.25-0.43-6.1-1.28-8.56c-0.85-2.46-2.1-4.36-3.74-5.71c-1.64-1.35-3.66-2.03-6.06-2.03
		c-3.36,0-5.93,1.33-7.68,3.97c-1.76,2.65-2.64,6.62-2.64,11.92c0,3.25,0.4,6.13,1.19,8.64c0.79,2.51,2.01,4.48,3.65,5.89
		C1163.96,2093.04,1166.06,2093.74,1168.61,2093.74z"/>
	<path class="st5" d="M1229.8,2098.61c-1.93,0-3.44-0.28-4.52-0.84c-1.08-0.56-1.96-1.4-2.64-2.52c-0.68-1.12-1.38-2.49-2.12-4.12
		l-2.9-6.61c-0.5-1.2-0.97-2.14-1.39-2.81c-0.43-0.68-0.93-1.16-1.51-1.45s-1.35-0.44-2.32-0.44c-0.23,0-0.5,0.04-0.81,0.12v10.96
		c0,0.97,0.13,1.66,0.41,2.09c0.27,0.43,0.87,0.7,1.8,0.81l3.13,0.46v3.54h-18.79v-3.54l3.13-0.52c0.85-0.15,1.36-0.47,1.54-0.96
		c0.17-0.48,0.26-1.15,0.26-2v-26.8c0-0.89-0.1-1.53-0.29-1.91c-0.19-0.39-0.74-0.66-1.62-0.81l-3.02-0.52v-3.54h18.91
		c2.55,0,4.85,0.3,6.9,0.9c2.05,0.6,3.68,1.62,4.9,3.07c1.22,1.45,1.83,3.47,1.83,6.06c0,1.62-0.35,3.04-1.04,4.26
		c-0.7,1.22-1.59,2.25-2.67,3.1c-1.08,0.85-2.23,1.53-3.45,2.03c-1.22,0.5-2.35,0.85-3.39,1.04v0.17c1.82,0.5,3.19,1.24,4.12,2.2
		c0.93,0.97,1.7,2.19,2.32,3.65l1.97,4.64c0.5,1.12,0.96,2.1,1.36,2.93c0.41,0.83,0.86,1.48,1.36,1.94s1.12,0.7,1.86,0.7
		c0.42,0,0.88-0.04,1.36-0.12c0.48-0.08,0.98-0.19,1.48-0.35l0.75,2.73c-0.85,0.77-1.93,1.37-3.25,1.8
		S1230.93,2098.61,1229.8,2098.61z M1213.16,2075.99c2.13,0,3.82-0.37,5.08-1.1c1.26-0.73,2.16-1.7,2.7-2.9
		c0.54-1.2,0.81-2.51,0.81-3.94c0-2.47-0.69-4.22-2.06-5.25c-1.37-1.02-3.26-1.54-5.66-1.54h-2.38v14.62
		C1212.19,2075.96,1212.69,2075.99,1213.16,2075.99z"/>
	<path class="st5" d="M1249.76,2097.8v-3.54l3.48-0.58c0.85-0.12,1.38-0.43,1.6-0.96c0.21-0.52,0.32-1.21,0.32-2.06v-29.41h-1.45
		c-1.43,0-2.62,0.11-3.57,0.32c-0.95,0.21-1.74,0.63-2.38,1.25c-0.64,0.62-1.22,1.51-1.74,2.67c-0.52,1.16-1.09,2.69-1.71,4.58
		l-4.35-0.99l2.32-11.89h34.51l2.32,11.72l-4.41,0.99c-0.77-2.4-1.47-4.21-2.09-5.45c-0.62-1.24-1.4-2.08-2.35-2.52
		c-0.95-0.44-2.33-0.67-4.15-0.67h-2.38v29.64c0,0.89,0.12,1.54,0.35,1.94c0.23,0.41,0.77,0.69,1.62,0.84l3.42,0.58v3.54H1249.76z"
		/>
	<path class="st5" d="M1288.44,2097.8v-3.48l2.78-0.52c0.73-0.15,1.22-0.42,1.45-0.78c0.23-0.37,0.35-1.09,0.35-2.17v-26.91
		c0-1-0.12-1.67-0.35-2c-0.23-0.33-0.75-0.57-1.57-0.73l-2.67-0.52v-3.48h28.71l2.2,9.74l-3.77,0.99c-0.66-1.86-1.33-3.27-2-4.23
		c-0.68-0.97-1.52-1.61-2.52-1.94c-1.01-0.33-2.38-0.49-4.12-0.49h-5.34v13.86h2.96c1.47,0,2.52-0.08,3.16-0.23
		c0.64-0.15,1.1-0.57,1.39-1.25c0.29-0.68,0.57-1.79,0.84-3.33l3.36-0.41v13.51l-3.36,0.58c-0.16-1.43-0.37-2.49-0.64-3.19
		c-0.27-0.7-0.69-1.16-1.25-1.39c-0.56-0.23-1.4-0.35-2.52-0.35h-3.94v14.67h6.84c1.93,0,3.41-0.15,4.44-0.46
		c1.02-0.31,1.82-0.95,2.38-1.91c0.56-0.97,1.09-2.45,1.6-4.47h4l-1.39,10.9H1288.44z"/>
	<path class="st5" d="M1362.1,2098.61c-1.93,0-3.44-0.28-4.52-0.84c-1.08-0.56-1.96-1.4-2.64-2.52c-0.68-1.12-1.38-2.49-2.12-4.12
		l-2.9-6.61c-0.5-1.2-0.97-2.14-1.39-2.81c-0.43-0.68-0.93-1.16-1.51-1.45s-1.35-0.44-2.32-0.44c-0.23,0-0.5,0.04-0.81,0.12v10.96
		c0,0.97,0.13,1.66,0.41,2.09c0.27,0.43,0.87,0.7,1.8,0.81l3.13,0.46v3.54h-18.79v-3.54l3.13-0.52c0.85-0.15,1.36-0.47,1.54-0.96
		c0.17-0.48,0.26-1.15,0.26-2v-26.8c0-0.89-0.1-1.53-0.29-1.91c-0.19-0.39-0.74-0.66-1.62-0.81l-3.02-0.52v-3.54h18.91
		c2.55,0,4.85,0.3,6.9,0.9c2.05,0.6,3.68,1.62,4.9,3.07c1.22,1.45,1.83,3.47,1.83,6.06c0,1.62-0.35,3.04-1.04,4.26
		c-0.7,1.22-1.59,2.25-2.67,3.1c-1.08,0.85-2.23,1.53-3.45,2.03c-1.22,0.5-2.35,0.85-3.39,1.04v0.17c1.82,0.5,3.19,1.24,4.12,2.2
		c0.93,0.97,1.7,2.19,2.32,3.65l1.97,4.64c0.5,1.12,0.96,2.1,1.36,2.93c0.41,0.83,0.86,1.48,1.36,1.94s1.12,0.7,1.86,0.7
		c0.42,0,0.88-0.04,1.36-0.12c0.48-0.08,0.98-0.19,1.48-0.35l0.75,2.73c-0.85,0.77-1.93,1.37-3.25,1.8
		S1363.22,2098.61,1362.1,2098.61z M1345.45,2075.99c2.13,0,3.82-0.37,5.08-1.1c1.26-0.73,2.16-1.7,2.7-2.9
		c0.54-1.2,0.81-2.51,0.81-3.94c0-2.47-0.69-4.22-2.06-5.25c-1.37-1.02-3.26-1.54-5.66-1.54h-2.38v14.62
		C1344.49,2075.96,1344.99,2075.99,1345.45,2075.99z"/>
</g>
<g id="Right_Logo_Stars" style="display:inline;">
	<path class="st6" d="M1297.77,2013.4l2.28,6.46h6.84l-5.32,4.18l1.9,6.46l-5.7-3.8l-5.7,3.8l1.9-6.46l-5.32-4.18h6.84
		L1297.77,2013.4z"/>
	<path class="st6" d="M1326.43,2013.4l2.28,6.46h6.84l-5.32,4.18l1.9,6.46l-5.7-3.8l-5.7,3.8l1.9-6.46l-5.32-4.18h6.84
		L1326.43,2013.4z"/>
	<path class="st6" d="M1355.09,2013.4l2.28,6.46h6.84l-5.32,4.18l1.9,6.46l-5.7-3.8l-5.7,3.8l1.9-6.46l-5.32-4.18h6.84
		L1355.09,2013.4z"/>
</g>
<g id="Left_Logo_Stars" style="display:inline;">
	<path class="st6" d="M1029.99,2013.4l2.28,6.46h6.84l-5.32,4.18l1.9,6.46l-5.7-3.8l-5.7,3.8l1.9-6.46l-5.32-4.18h6.84
		L1029.99,2013.4z"/>
	<path class="st6" d="M1058.65,2013.4l2.28,6.46h6.84l-5.32,4.18l1.9,6.46l-5.7-3.8l-5.7,3.8l1.9-6.46l-5.32-4.18h6.84
		L1058.65,2013.4z"/>
	<path class="st6" d="M1087.31,2013.4l2.28,6.46h6.84l-5.32,4.18l1.9,6.46l-5.7-3.8l-5.7,3.8l1.9-6.46l-5.32-4.18h6.84
		L1087.31,2013.4z"/>
</g>
<circle id="Urbania_Dot" style="display:inline;" cx="1321.66" cy="1545.79" r="42.55"/>
<g id="Road_Lines" style="display:inline;">
	<path class="st4" d="M1328.55,1210.89c20.84-2.33,68.32,113.71,68.32,160.66c0,34.29-7.8,60-19.91,83.93
		c-12.67,25.03-30.06,48.09-48.19,76.95"/>
	<path class="st4" d="M1315.64,1545.79c-15.3-12.83-26.54-22.17-29.18-42.55s-1.75-42.01,0-62.58c1.75-20.57,2.57-66.46,44.09-82.29
		"/>
	<path class="st4" d="M1726.54,1375.24c-11.6-17.41-71.21-73.85-136.09-86.51c-64.88-12.66-112.35-0.53-152.97-12.13
		s-69.41-54.75-97.89-65.3"/>
	<path class="st4" d="M1333.57,1355.73c12.66,0,163.52-3.69,172.48-3.69s81.87,1.05,105.08,3.69
		c23.21,2.64,85.34,12.84,106.44,15.92"/>
	<path class="st4" d="M1374.02,1460.16c0,0,22.93-27.31,40.36-33.92c15.3-5.8,94.78-9.6,108.02-2.11
		c22.68,12.82,32.18,46.05,53.89,46.05c20.57,0,60.04-46.08,91.69-53.63s40.66,1.55,50.95-9.92c9.71-10.82,7.6-29.29,7.6-29.29"/>
	<path class="st4" d="M1544.56,1437.48c-5.27-10.02-37.45-81.76-37.45-81.76"/>
	<path class="st4" d="M1364.38,1477.57c15.3-8.97,30.9-11.49,41.98-2s15.55,30.26,23.46,38.7c7.91,8.44,22.43-1.89,37.2,10.77
		c14.77,12.66,24.79,37.45,24.79,37.45"/>
	<path class="st4" d="M1487.07,1570.93c-10.29,21.36-20.57,45.89-26.11,51.43s-33.23,8.7-43.52,16.62
		c-10.29,7.91-22.42,30.86-45.23,37.19c-22.81,6.33-57.08,2.37-75.55,15.82s-16.06,40.35-16.87,45.89
		c-0.81,5.54-15.62,33.85-14.96,45.14c0.87,14.99,32.32,35.14,61.61,35.93c29.29,0.79,75.18,1.21,90.22,12.29
		c15.03,11.08,22.95,39.56,31.65,49.85c8.7,10.29,31.48,22.57,41.77,39.98c10.29,17.41,19.95,68.75,43.68,81.64
		c23.74,12.89,82.29,4.52,82.29,4.52"/>
	<line class="st0" x1="1493.92" y1="1570.93" x2="1616.03" y2="2002.71"/>
	<path class="st4" d="M1184.82,1518.71c10.55-18.99,23.74-35.87,38.51-35.87c14.77,0,32.18-1.05,64.88,49.58"/>
	<path class="st4" d="M1498.14,1564.6c17.8-11.87,75.96-37.19,98.11-41.14c22.15-3.96,43.52-5.01,54.99-9.44
		c11.47-4.43,39.16-14.29,39.16-14.29"/>
	<path class="st4" d="M1498.52,1565.93c22.95,19.78,79.54,82.33,91.01,91.43s65.67,50.45,83.47,60.34
		c17.8,9.89,63.69,37.19,63.69,37.19"/>
	<path class="st4" d="M1617.6,2000.56c7.92-11.87,32.85-48.89,39.57-70.25c6.73-21.36,15.05-53.2,21.38-79.7s36-77.35,55.38-89.22"
		/>
	<path class="st4" d="M1736.69,1764.78c9.1,27.69,14.64,43.52,26.51,71.21c11.87,27.69,36.4,79.58,42.73,125.47
		s10.08,107,9.29,139.91c-0.79,32.91-4.54,109.65-4.54,109.65"/>
	<path class="st4" d="M1805.76,2213.56c-14.24,16.62-25.95,29.11-40.19,33.07c-14.24,3.96-88.32,34.9-99.8,50.73
		c-11.48,15.82-72.69,84.57-96.42,104.35c-23.74,19.78-87.76,53.8-128.93,66.46c-41.18,12.66-86.46,13.99-100.44,10.82"/>
	<path class="st4" d="M1335.55,2476.87c32.04-9.49,138.95-50.64,170.95-96.53c31.99-45.89,43.07-80.7,43.86-122.64
		c0.79-41.93,37.98-128.18,49.05-148.75s22.95-50.77,22.15-71.34c-0.79-20.57-1.58-27.72-1.58-27.72"/>
	<path class="st4" d="M1817.4,2208.25c23.74-12.26,70.81-35.21,85.45-50.64c14.64-15.43,36.4-39.96,55.38-58.55
		s37.58-28.09,49.06-19.38c11.47,8.7-3.54,52.54,11.89,64.66c15.43,12.11,63.67-15.6,102.04-23.12
		c38.37-7.52,91.8-14.45,109.6-13.66"/>
	<path class="st4" d="M1746.58,1761.38c41.67,28.98,168.64,129.34,212.04,162.43c53.27,40.62,151.38,102.33,178.81,107.08
		c31.8,5.5,100.22,79.12,100.22,79.12"/>
	<path class="st4" d="M2240.69,2110.01c16.22,14.77,32.44,35.34,64.09,36.13c31.65,0.79,53.8-16.22,60.92-21.76
		c7.12-5.54,15.43-18.2,15.43-18.2"/>
	<path class="st4" d="M1966.54,2410.01c16.22-10.68,27.69-20.57,40.35-22.15c18.99-2.37,53.31,7.85,68.44,3.16
		c28.09-8.7,38.95-32,67.77-48.2c22.57-12.68,84.77-24.78,117.21-27.95c32.44-3.16,69.85-2,69.85-2"/>
	<path class="st4" d="M2233.57,2115.68c-13.85,21.76-48.26,56.57-49.45,73.98c-0.89,13.02,15.43,18.59,14.85,33.89
		c-0.42,11.08-5.82,30.75-14.05,38.51c-20.57,19.38-91.38,40.75-132.13,62.9s-69.63,48.66-86.24,74.77"/>
	<path class="st4" d="M2381.13,2105.56c10.29,13.05,15.43,27.13,8.7,61.95c-6.73,34.81-23.74,104.04-31.25,115.91
		c-7.52,11.87-17.8,24.92-17.8,24.92"/>
	<path class="st4" d="M2435.73,2399.73c13.85-14.64,28.48-34.42,49.85-52.62c21.36-18.2,62.67-42.33,62.67-42.33"/>
	<path class="st4" d="M2343.95,2315.86c22.15,0.79,45.89,15.03,55.38,30.46c9.49,15.43,31.25,53.41,31.25,53.41"/>
	<path class="st4" d="M2384.82,2096.3c17.93-18.46,31.05-39.83,35.4-55.91c6.27-23.21-5.86-113.93,4.69-139.25
		c10.55-25.32,29.01-56.97,58.55-72.79c29.54-15.82,35.87-12.66,44.31-11.6c8.44,1.06,20.47,7.38,20.47,7.38"/>
	<path class="st4" d="M1743.42,1757.66c68.04-5.8,117.1,24.79,160.35,35.87c43.25,11.08,117.1,12.13,265.04,2.64"/>
	<path class="st4" d="M2178.58,1791.95c21.1-5.27,57.49-20.04,116.04-27.96c58.55-7.91,81.87,4.84,121.32-8.05
		c22.15-7.24,77.01-41,85.45-52.08c8.44-11.08,25.12-23.21,46.85-24.79"/>
	<path class="st4" d="M1697.53,1493.4c20.57-8.7,33.23-14.24,49.05-18.2c15.82-3.96,63.3-15.03,82.29-21.36
		c18.99-6.33,71.21-23.74,109.98-30.07"/>
	<path class="st4" d="M1697.53,1499.23c18.2-1.92,49.85,8.41,88.62,25.81c38.77,17.41,121.05,57.97,169.97,63.3
		c65.02,7.08,107.74,11.08,171.04-4.75c63.3-15.82,164.57-51.02,210.46-74.17c45.89-23.15,210.63-125.85,210.63-125.85"/>
	<path class="st4" d="M2251.37,1305.09c15.82,15.82,22.15,23.95,45.89,26.22c23.74,2.27,58.55,0.68,79.12,8.6
		c20.57,7.91,110.77,53.01,125.8,64.09s46.05,31.65,46.05,31.65"/>
	<line class="st4" x1="2118.88" y1="1018.67" x2="2082.47" y2="1362.22"/>
	<path class="st4" d="M1729.97,1370.36c5.54-21.76,26.11-65.27,67.25-81.1c29.43-11.32,52.22-13.45,75.96-13.45
		c23.74,0,39.56-17.41,69.63-18.2c30.07-0.79,73.58,1.58,106.02,43.52c32.44,41.93,26.11,56.18,26.11,56.18"/>
	<path class="st4" d="M2084.43,1357.31c11.08-13.45,24.53-34.02,59.34-56.18c34.81-22.15,58.55-22.53,72.79-15.62
		c14.24,6.91,30.86,19.57,30.86,19.57"/>
	<path class="st4" d="M2245.04,1296c-13.05-32.45-62.55-171.28-73.03-194.48c-9.72-21.52-19.54-41.7-26.26-53.18
		c-6.73-11.47-15.82-29.67-15.82-29.67"/>
	<path class="st4" d="M2514.85,848.56c6.33,18.99,17.41,72.79-7.12,109.98c-24.53,37.19-112.93,110.98-133.51,133.92
		c-20.57,22.95-37.23,96.27-44.35,118.85c-7.12,22.57-44.68,80.12-73.96,87.24"/>
	<path class="st4" d="M2122.88,1013.13c16.93-11.08,30.38-19.78,43.04-16.62s88.95,31.71,148.75-0.66
		c70.42-38.11,85.14-91.12,129.01-121.19c20.81-14.26,68-34.65,68-34.65c-24.53-7.29-62.23-9.45-97.32,4.58
		c-31.65,12.66-80.7,30.07-106.81,24.53c-26.11-5.54-67.25-24.53-92.57-54.59s-46.68-55.6-56.97-60.24"/>
	<line class="st4" x1="2150.68" y1="754.3" x2="2121.88" y2="1009.18"/>
	<line class="st4" x1="2154.05" y1="756.33" x2="2240.3" y2="380.16"/>
	<path class="st4" d="M2245.84,383.33c11.87,20.57,5.54,65.67,13.45,78.33c7.91,12.66,35.6,14.79,44.31,57.76
		c5.73,28.3,4.75,72.79,44.31,103.65c39.56,30.86,88.66,23.78,125.05,64.92s34.98,152.03,34.98,152.03"/>
	<path class="st4" d="M2240.3,376.73c-19.78-20.3-77.54-56.7-75.16-79.64c2.37-22.95,43.52-42.62,51.43-72.34
		c7.91-29.72,9.49-51.88,9.49-51.88"/>
	<path class="st4" d="M2118.88,1013.13c-28.13,13.45-46.32,33.23-70.85,31.65c-24.53-1.58-48.26-13.45-64.09-10.29
		s-49.6,25.9-86.25,22.74c-36.65-3.16-64.08-30.65-90.19-38.56c-26.11-7.91-54.59-2-54.59-2"/>
	<path class="st4" d="M1745.53,1015.51c-27.43,3.69-57.49,9.49-80.18,32.18c-22.68,22.68-37.45,33.23-79.12,36.92
		c-41.67,3.69-48,2.11-64.35,18.46c-16.35,16.35-22.33,37.3-50.77,38.98c-18.86,1.11-49.45,24.85-65.8,40.14
		c-16.35,15.3-49.14,26.37-65.71,26.37"/>
	<path class="st4" d="M1330.41,1006.01c14.64,11.87,37.98,40.35,37.58,58.95s-16.61,27.3-18.79,43.52
		c-2.18,16.22,4.58,36.51,0.57,48.26c-4.73,13.85-16.99,47.47-16.99,47.47"/>
	<path class="st4" d="M1747.64,1013.13c11.6-18.2,14.24-30.33,14.77-41.41s-3.16-23.21,0-33.76c3.16-10.55,18.99-24.26,19.52-37.45
		s0-25.32,7.38-33.23c7.38-7.91,13.77-14.24,13.24-22.15c-0.53-7.91-1.35-58.57,1.03-69.26c1.94-8.75,65.68-67.53,69.9-82.3"/>
	<path class="st4" d="M1456.47,859.37c9.49-11.6,59.91-72.57,89.98-87.34s79.07-18.46,85.4-30.59c6.33-12.13,6.08-59.3,29.29-70.37
		c23.21-11.08,62.66,15.82,95.89,4.22c33.23-11.6,37.03-26.9,59.19-31.65c22.15-4.75,54.86,7.38,54.86,7.38s-2.29,23.74,3.16,45.89
		c7.71,31.31,25.32,55.91,73.85,54.33s107.08-20.04,136.62-22.15c29.54-2.11,48.53,13.19,62.77,22.15"/>
	<path class="st4" d="M1868.43,646.8c0-39.56,4.75-58.02,12.13-71.21c7.38-13.19,20.24-31.85,15.82-54.86
		c-7.38-38.51-55.38-62.77-58.02-79.12c-2.64-16.35,7.38-75.43-4.22-94.95s-64.88-23.74-66.46-58.02
		c-1.58-34.29,33.23-55.38,45.89-60.66c12.66-5.27,11.08-22.15,9.49-31.12"/>
	<path class="st4" d="M2513.66,190.27c-1.58,17.41-7.7,51.43-7.31,64.09c0.4,12.66,10.77,36.37,5.31,50.24
		c-10.29,26.11-12.59,31.94-88.99,62.11c-94.15,37.19-176.84,5.54-219.05,6.54c-59.07,1.4-100.2,66.65-118.79,86.43
		c-18.59,19.78-66.07,52.22-92.57,54.59c-26.51,2.37-39.16,8.31-50.24,12.66c-11.08,4.35-39.16,2.37-39.16,2.37"/>
	<path class="st7" d="M1333.57,998.1c17.41-9.49,56.44-42.2,59.08-60.66c2.64-18.46,17.24-25.85,26.74-32.7s32.23-25.15,34.87-33.59
		"/>
	<path class="st4" d="M1510.8,470.1c11.6,10.55,25.9,24.18,18.52,56.35c-7.38,32.18-35.54,31.91-37.62,68.24
		c-1.47,25.74,36.51,36.81,37.03,60.55c0.53,23.74-23.97,38.34-25.85,48.53c-3.69,20.04-0.47,32.7-6.8,52.75
		c-3.4,10.76-31.18,40.76-37.51,65.02c-6.33,24.26,0.89,45.22,0.89,45.22"/>
	<path class="st4" d="M1509.22,460.08c5.8-15.82,12.66-39.03,0-60.13c-12.66-21.1-57.6-40.14-59.71-69.15s8.02-50.05-4.11-70.63
		s-59.6-20.04-59.08-46.95s29.54-16.82,37.98-29.96c9.12-14.2,4.27-25.96,4.27-25.96"/>
</g>
</svg>
