<?xml version="1.0" encoding="utf-8"?>
<!-- Generator: Adobe Illustrator 24.1.2, SVG Export Plug-In . SVG Version: 6.00 Build 0)  -->
<svg version="1.1" id="Layer_1" xmlns="http://www.w3.org/2000/svg" xmlns:xlink="http://www.w3.org/1999/xlink" x="0px" y="0px"
	 viewBox="0 0 576 86.4" style="enable-background:new 0 0 576 86.4;" xml:space="preserve">
<style type="text/css">
	.st0{fill:#FFFFFF;stroke:#000000;stroke-miterlimit:10;}
</style>
<g>
	<path d="M36.07,67.98c-1.78,0-3.62-0.31-5.51-0.93c-1.9-0.62-3.46-1.41-4.7-2.38l-0.81,2.84h-3.71l-0.99-11.77l4.29-0.58
		c0.89,2.13,2.17,3.97,3.86,5.54c1.68,1.57,3.84,2.35,6.47,2.35c1.78,0,3.15-0.3,4.12-0.9c0.97-0.6,1.64-1.33,2.03-2.2
		c0.39-0.87,0.58-1.71,0.58-2.52c0-1.89-0.79-3.31-2.38-4.26c-1.59-0.95-3.65-1.85-6.21-2.7c-2.4-0.81-4.48-1.72-6.23-2.73
		c-1.76-1-3.11-2.29-4.06-3.86c-0.95-1.57-1.42-3.57-1.42-6c0-1.39,0.25-2.8,0.75-4.23c0.5-1.43,1.29-2.75,2.35-3.94
		c1.06-1.2,2.44-2.16,4.12-2.87c1.68-0.72,3.72-1.07,6.12-1.07c2.28,0,4.14,0.33,5.57,0.99c1.43,0.66,2.53,1.3,3.31,1.91l0.75-2.9
		h3.48l1.28,12.3l-4.29,0.75c-1.01-3.05-2.3-5.21-3.89-6.47c-1.59-1.26-3.44-1.88-5.57-1.88c-1.7,0-3.13,0.44-4.29,1.33
		c-1.16,0.89-1.74,2.24-1.74,4.06c0,1.35,0.38,2.43,1.13,3.22c0.75,0.79,1.8,1.48,3.13,2.06s2.85,1.22,4.55,1.91
		c1.47,0.58,2.91,1.19,4.32,1.83c1.41,0.64,2.68,1.38,3.8,2.23c1.12,0.85,2.02,1.94,2.7,3.28c0.68,1.33,1.02,2.99,1.02,4.96
		c0,2.63-0.64,4.89-1.91,6.79c-1.28,1.89-2.97,3.34-5.08,4.35C40.9,67.47,38.59,67.98,36.07,67.98z"/>
	<path d="M67.34,67.17v-3.54l3.48-0.58c0.85-0.12,1.38-0.43,1.59-0.96c0.21-0.52,0.32-1.21,0.32-2.06V30.63h-1.45
		c-1.43,0-2.62,0.11-3.57,0.32c-0.95,0.21-1.74,0.63-2.38,1.25c-0.64,0.62-1.22,1.51-1.74,2.67c-0.52,1.16-1.09,2.69-1.71,4.58
		l-4.35-0.99l2.32-11.89h34.51l2.32,11.72l-4.41,0.99c-0.77-2.4-1.47-4.21-2.09-5.45c-0.62-1.24-1.4-2.08-2.35-2.52
		c-0.95-0.44-2.33-0.67-4.15-0.67h-2.38v29.64c0,0.89,0.12,1.54,0.35,1.94s0.77,0.69,1.62,0.84l3.42,0.58v3.54H67.34z"/>
	<path d="M98.02,67.17v-3.48l2.73-0.41c0.7-0.15,1.2-0.45,1.51-0.9c0.31-0.44,0.66-1.21,1.04-2.29l12.06-33.52h7.42l11.95,33.7
		c0.31,0.93,0.61,1.62,0.9,2.09c0.29,0.46,0.82,0.77,1.59,0.93l2.32,0.41v3.48h-17.92v-3.48l2.67-0.41
		c0.77-0.12,1.23-0.39,1.36-0.81c0.14-0.42,0.05-1.12-0.26-2.09l-1.8-5.68h-12.88l-1.8,5.45c-0.31,0.93-0.38,1.62-0.2,2.09
		s0.69,0.79,1.54,0.99l2.55,0.46v3.48H98.02z M111.94,50.75h10.5l-4.93-15.6h-0.23L111.94,50.75z"/>
	<path d="M179.68,67.98c-1.93,0-3.44-0.28-4.52-0.84c-1.08-0.56-1.96-1.4-2.64-2.52c-0.68-1.12-1.38-2.49-2.12-4.12l-2.9-6.61
		c-0.5-1.2-0.97-2.14-1.39-2.81c-0.43-0.68-0.93-1.16-1.51-1.45c-0.58-0.29-1.35-0.44-2.32-0.44c-0.23,0-0.5,0.04-0.81,0.12v10.96
		c0,0.97,0.14,1.66,0.41,2.09c0.27,0.43,0.87,0.7,1.8,0.81l3.13,0.46v3.54h-18.79v-3.54l3.13-0.52c0.85-0.15,1.36-0.47,1.54-0.96
		c0.17-0.48,0.26-1.15,0.26-2v-26.8c0-0.89-0.1-1.53-0.29-1.91c-0.19-0.39-0.73-0.66-1.62-0.81l-3.02-0.52v-3.54h18.91
		c2.55,0,4.85,0.3,6.9,0.9c2.05,0.6,3.68,1.62,4.9,3.07c1.22,1.45,1.83,3.47,1.83,6.06c0,1.62-0.35,3.04-1.04,4.26
		c-0.7,1.22-1.59,2.25-2.67,3.1c-1.08,0.85-2.23,1.53-3.45,2.03c-1.22,0.5-2.35,0.85-3.39,1.04v0.17c1.82,0.5,3.19,1.24,4.12,2.2
		c0.93,0.97,1.7,2.19,2.32,3.65l1.97,4.64c0.5,1.12,0.96,2.1,1.36,2.93c0.41,0.83,0.86,1.48,1.36,1.94c0.5,0.46,1.12,0.7,1.86,0.7
		c0.42,0,0.88-0.04,1.36-0.12c0.48-0.08,0.98-0.19,1.48-0.35l0.75,2.73c-0.85,0.77-1.93,1.37-3.25,1.8
		C182.02,67.76,180.8,67.98,179.68,67.98z M163.04,45.36c2.13,0,3.82-0.37,5.08-1.1c1.26-0.73,2.15-1.7,2.7-2.9
		c0.54-1.2,0.81-2.51,0.81-3.94c0-2.47-0.69-4.22-2.06-5.25c-1.37-1.02-3.26-1.54-5.65-1.54h-2.38v14.62
		C162.07,45.32,162.57,45.36,163.04,45.36z"/>
	<path d="M241.62,67.98c-1.93,0-3.44-0.28-4.52-0.84c-1.08-0.56-1.96-1.4-2.64-2.52c-0.68-1.12-1.38-2.49-2.12-4.12l-2.9-6.61
		c-0.5-1.2-0.97-2.14-1.39-2.81c-0.43-0.68-0.93-1.16-1.51-1.45c-0.58-0.29-1.35-0.44-2.32-0.44c-0.23,0-0.5,0.04-0.81,0.12v10.96
		c0,0.97,0.14,1.66,0.41,2.09c0.27,0.43,0.87,0.7,1.8,0.81l3.13,0.46v3.54h-18.79v-3.54l3.13-0.52c0.85-0.15,1.36-0.47,1.54-0.96
		c0.17-0.48,0.26-1.15,0.26-2v-26.8c0-0.89-0.1-1.53-0.29-1.91c-0.19-0.39-0.73-0.66-1.62-0.81l-3.02-0.52v-3.54h18.91
		c2.55,0,4.85,0.3,6.9,0.9c2.05,0.6,3.68,1.62,4.9,3.07c1.22,1.45,1.83,3.47,1.83,6.06c0,1.62-0.35,3.04-1.04,4.26
		c-0.7,1.22-1.59,2.25-2.67,3.1c-1.08,0.85-2.23,1.53-3.45,2.03c-1.22,0.5-2.35,0.85-3.39,1.04v0.17c1.82,0.5,3.19,1.24,4.12,2.2
		c0.93,0.97,1.7,2.19,2.32,3.65l1.97,4.64c0.5,1.12,0.96,2.1,1.36,2.93c0.41,0.83,0.86,1.48,1.36,1.94c0.5,0.46,1.12,0.7,1.86,0.7
		c0.42,0,0.88-0.04,1.36-0.12c0.48-0.08,0.98-0.19,1.48-0.35l0.75,2.73c-0.85,0.77-1.93,1.37-3.25,1.8
		C243.96,67.76,242.75,67.98,241.62,67.98z M224.98,45.36c2.13,0,3.82-0.37,5.08-1.1c1.26-0.73,2.15-1.7,2.7-2.9
		c0.54-1.2,0.81-2.51,0.81-3.94c0-2.47-0.69-4.22-2.06-5.25c-1.37-1.02-3.26-1.54-5.65-1.54h-2.38v14.62
		C224.01,45.32,224.51,45.36,224.98,45.36z"/>
	<path d="M256.59,67.17v-3.48l2.78-0.52c0.73-0.15,1.22-0.42,1.45-0.78c0.23-0.37,0.35-1.09,0.35-2.17V33.29c0-1-0.12-1.67-0.35-2
		c-0.23-0.33-0.75-0.57-1.57-0.73l-2.67-0.52v-3.48h28.71l2.2,9.74l-3.77,0.99c-0.66-1.86-1.32-3.27-2-4.23
		c-0.68-0.97-1.52-1.61-2.52-1.94c-1.01-0.33-2.38-0.49-4.12-0.49h-5.34v13.86h2.96c1.47,0,2.52-0.08,3.16-0.23
		c0.64-0.15,1.1-0.57,1.39-1.25c0.29-0.68,0.57-1.79,0.84-3.33l3.36-0.41v13.51l-3.36,0.58c-0.15-1.43-0.37-2.49-0.64-3.19
		c-0.27-0.7-0.69-1.16-1.25-1.39c-0.56-0.23-1.4-0.35-2.52-0.35h-3.94v14.67h6.84c1.93,0,3.41-0.15,4.44-0.46
		c1.02-0.31,1.82-0.95,2.38-1.91c0.56-0.97,1.09-2.45,1.59-4.47h4l-1.39,10.9H256.59z"/>
	<path d="M298.64,67.17v-3.48l3.07-0.52c0.85-0.15,1.36-0.47,1.54-0.96c0.17-0.48,0.26-1.15,0.26-2V33.29c0-0.89-0.1-1.53-0.29-1.91
		c-0.19-0.39-0.73-0.66-1.62-0.81l-2.96-0.52v-3.48h17.34c2.94,0,5.59,0.41,7.95,1.22c2.36,0.81,4.22,2.11,5.6,3.89
		c1.37,1.78,2.06,4.16,2.06,7.13c0,2.44-0.45,4.49-1.33,6.15c-0.89,1.66-2.05,2.99-3.48,3.97c-1.43,0.99-2.99,1.69-4.67,2.12
		c-1.68,0.43-3.32,0.64-4.9,0.64c-1.08,0-2.15-0.04-3.19-0.12s-1.7-0.14-1.97-0.17v9.05c0,0.97,0.13,1.66,0.38,2.09
		c0.25,0.43,0.84,0.7,1.77,0.81l4.06,0.46v3.36H298.64z M314.41,47.62c2.86,0,4.95-0.89,6.26-2.67c1.31-1.78,1.97-3.96,1.97-6.55
		c0-2.4-0.62-4.29-1.86-5.68c-1.24-1.39-3.21-2.09-5.92-2.09h-2.78V47.5c0.27,0.04,0.58,0.07,0.93,0.09
		C313.37,47.61,313.83,47.62,314.41,47.62z"/>
	<path d="M360.12,67.98c-4.49,0-8.18-0.9-11.08-2.7c-2.9-1.8-5.06-4.23-6.47-7.31c-1.41-3.07-2.12-6.52-2.12-10.35
		c0-3.83,0.53-7.11,1.6-9.86c1.06-2.75,2.53-5.01,4.41-6.79c1.88-1.78,4.04-3.09,6.5-3.94c2.46-0.85,5.06-1.28,7.8-1.28
		c3.6,0,6.83,0.75,9.72,2.23c2.88,1.49,5.16,3.71,6.84,6.67c1.68,2.96,2.52,6.68,2.52,11.16c0,4.14-0.74,7.88-2.23,11.22
		c-1.49,3.34-3.69,6-6.61,7.97C368.07,66.99,364.45,67.98,360.12,67.98z M360.64,63.11c3.21,0,5.72-1.31,7.54-3.92
		c1.82-2.61,2.73-6.72,2.73-12.33c0-3.25-0.43-6.1-1.28-8.56c-0.85-2.46-2.1-4.36-3.74-5.71c-1.64-1.35-3.66-2.03-6.06-2.03
		c-3.36,0-5.93,1.33-7.68,3.97c-1.76,2.65-2.64,6.62-2.64,11.92c0,3.25,0.4,6.13,1.19,8.64c0.79,2.51,2.01,4.48,3.65,5.89
		C355.99,62.4,358.09,63.11,360.64,63.11z"/>
	<path d="M421.83,67.98c-1.93,0-3.44-0.28-4.52-0.84c-1.08-0.56-1.96-1.4-2.64-2.52c-0.68-1.12-1.38-2.49-2.12-4.12l-2.9-6.61
		c-0.5-1.2-0.97-2.14-1.39-2.81c-0.43-0.68-0.93-1.16-1.51-1.45s-1.35-0.44-2.32-0.44c-0.23,0-0.5,0.04-0.81,0.12v10.96
		c0,0.97,0.13,1.66,0.41,2.09c0.27,0.43,0.87,0.7,1.8,0.81l3.13,0.46v3.54h-18.79v-3.54l3.13-0.52c0.85-0.15,1.36-0.47,1.54-0.96
		c0.17-0.48,0.26-1.15,0.26-2v-26.8c0-0.89-0.1-1.53-0.29-1.91c-0.19-0.39-0.74-0.66-1.62-0.81l-3.02-0.52v-3.54h18.91
		c2.55,0,4.85,0.3,6.9,0.9c2.05,0.6,3.68,1.62,4.9,3.07c1.22,1.45,1.83,3.47,1.83,6.06c0,1.62-0.35,3.04-1.04,4.26
		c-0.7,1.22-1.59,2.25-2.67,3.1c-1.08,0.85-2.23,1.53-3.45,2.03c-1.22,0.5-2.35,0.85-3.39,1.04v0.17c1.82,0.5,3.19,1.24,4.12,2.2
		c0.93,0.97,1.7,2.19,2.32,3.65l1.97,4.64c0.5,1.12,0.96,2.1,1.36,2.93c0.41,0.83,0.86,1.48,1.36,1.94s1.12,0.7,1.86,0.7
		c0.42,0,0.88-0.04,1.36-0.12c0.48-0.08,0.98-0.19,1.48-0.35l0.75,2.73c-0.85,0.77-1.93,1.37-3.25,1.8S422.95,67.98,421.83,67.98z
		 M405.18,45.36c2.13,0,3.82-0.37,5.08-1.1c1.26-0.73,2.16-1.7,2.7-2.9c0.54-1.2,0.81-2.51,0.81-3.94c0-2.47-0.69-4.22-2.06-5.25
		c-1.37-1.02-3.26-1.54-5.66-1.54h-2.38v14.62C404.22,45.32,404.72,45.36,405.18,45.36z"/>
	<path d="M441.78,67.17v-3.54l3.48-0.58c0.85-0.12,1.38-0.43,1.6-0.96c0.21-0.52,0.32-1.21,0.32-2.06V30.63h-1.45
		c-1.43,0-2.62,0.11-3.57,0.32c-0.95,0.21-1.74,0.63-2.38,1.25c-0.64,0.62-1.22,1.51-1.74,2.67c-0.52,1.16-1.09,2.69-1.71,4.58
		l-4.35-0.99l2.32-11.89h34.51l2.32,11.72l-4.41,0.99c-0.77-2.4-1.47-4.21-2.09-5.45c-0.62-1.24-1.4-2.08-2.35-2.52
		c-0.95-0.44-2.33-0.67-4.15-0.67h-2.38v29.64c0,0.89,0.12,1.54,0.35,1.94c0.23,0.41,0.77,0.69,1.62,0.84l3.42,0.58v3.54H441.78z"/>
	<path d="M480.47,67.17v-3.48l2.78-0.52c0.73-0.15,1.22-0.42,1.45-0.78c0.23-0.37,0.35-1.09,0.35-2.17V33.29c0-1-0.12-1.67-0.35-2
		c-0.23-0.33-0.75-0.57-1.57-0.73l-2.67-0.52v-3.48h28.71l2.2,9.74l-3.77,0.99c-0.66-1.86-1.33-3.27-2-4.23
		c-0.68-0.97-1.52-1.61-2.52-1.94c-1.01-0.33-2.38-0.49-4.12-0.49h-5.34v13.86h2.96c1.47,0,2.52-0.08,3.16-0.23
		c0.64-0.15,1.1-0.57,1.39-1.25c0.29-0.68,0.57-1.79,0.84-3.33l3.36-0.41v13.51l-3.36,0.58c-0.16-1.43-0.37-2.49-0.64-3.19
		c-0.27-0.7-0.69-1.16-1.25-1.39c-0.56-0.23-1.4-0.35-2.52-0.35h-3.94v14.67h6.84c1.93,0,3.41-0.15,4.44-0.46
		c1.02-0.31,1.82-0.95,2.38-1.91c0.56-0.97,1.09-2.45,1.6-4.47h4l-1.39,10.9H480.47z"/>
	<path d="M554.13,67.98c-1.93,0-3.44-0.28-4.52-0.84c-1.08-0.56-1.96-1.4-2.64-2.52c-0.68-1.12-1.38-2.49-2.12-4.12l-2.9-6.61
		c-0.5-1.2-0.97-2.14-1.39-2.81c-0.43-0.68-0.93-1.16-1.51-1.45s-1.35-0.44-2.32-0.44c-0.23,0-0.5,0.04-0.81,0.12v10.96
		c0,0.97,0.13,1.66,0.41,2.09c0.27,0.43,0.87,0.7,1.8,0.81l3.13,0.46v3.54h-18.79v-3.54l3.13-0.52c0.85-0.15,1.36-0.47,1.54-0.96
		c0.17-0.48,0.26-1.15,0.26-2v-26.8c0-0.89-0.1-1.53-0.29-1.91c-0.19-0.39-0.74-0.66-1.62-0.81l-3.02-0.52v-3.54h18.91
		c2.55,0,4.85,0.3,6.9,0.9c2.05,0.6,3.68,1.62,4.9,3.07c1.22,1.45,1.83,3.47,1.83,6.06c0,1.62-0.35,3.04-1.04,4.26
		c-0.7,1.22-1.59,2.25-2.67,3.1c-1.08,0.85-2.23,1.53-3.45,2.03c-1.22,0.5-2.35,0.85-3.39,1.04v0.17c1.82,0.5,3.19,1.24,4.12,2.2
		c0.93,0.97,1.7,2.19,2.32,3.65l1.97,4.64c0.5,1.12,0.96,2.1,1.36,2.93c0.41,0.83,0.86,1.48,1.36,1.94s1.12,0.7,1.86,0.7
		c0.42,0,0.88-0.04,1.36-0.12c0.48-0.08,0.98-0.19,1.48-0.35l0.75,2.73c-0.85,0.77-1.93,1.37-3.25,1.8S555.25,67.98,554.13,67.98z
		 M537.48,45.36c2.13,0,3.82-0.37,5.08-1.1c1.26-0.73,2.16-1.7,2.7-2.9c0.54-1.2,0.81-2.51,0.81-3.94c0-2.47-0.69-4.22-2.06-5.25
		c-1.37-1.02-3.26-1.54-5.66-1.54h-2.38v14.62C536.51,45.32,537.02,45.36,537.48,45.36z"/>
</g>
<g>
	<path class="st0" d="M32.87,65.22c-1.78,0-3.62-0.31-5.51-0.93c-1.9-0.62-3.46-1.41-4.7-2.38l-0.81,2.84h-3.71l-0.99-11.77
		l4.29-0.58c0.89,2.13,2.17,3.97,3.86,5.54c1.68,1.57,3.84,2.35,6.47,2.35c1.78,0,3.15-0.3,4.12-0.9c0.97-0.6,1.64-1.33,2.03-2.2
		c0.39-0.87,0.58-1.71,0.58-2.52c0-1.89-0.79-3.31-2.38-4.26c-1.59-0.95-3.65-1.85-6.21-2.7c-2.4-0.81-4.48-1.72-6.23-2.73
		c-1.76-1-3.11-2.29-4.06-3.86c-0.95-1.57-1.42-3.57-1.42-6c0-1.39,0.25-2.8,0.75-4.23c0.5-1.43,1.29-2.75,2.35-3.94
		c1.06-1.2,2.44-2.16,4.12-2.87C27.1,23.36,29.14,23,31.54,23c2.28,0,4.14,0.33,5.57,0.99c1.43,0.66,2.53,1.3,3.31,1.91l0.75-2.9
		h3.48l1.28,12.3l-4.29,0.75c-1.01-3.05-2.3-5.21-3.89-6.47c-1.59-1.26-3.44-1.88-5.57-1.88c-1.7,0-3.13,0.44-4.29,1.33
		c-1.16,0.89-1.74,2.24-1.74,4.06c0,1.35,0.38,2.43,1.13,3.22c0.75,0.79,1.8,1.48,3.13,2.06s2.85,1.22,4.55,1.91
		c1.47,0.58,2.91,1.19,4.32,1.83c1.41,0.64,2.68,1.38,3.8,2.23c1.12,0.85,2.02,1.94,2.7,3.28c0.68,1.33,1.02,2.99,1.02,4.96
		c0,2.63-0.64,4.89-1.91,6.79c-1.28,1.89-2.97,3.34-5.08,4.35C37.69,64.72,35.38,65.22,32.87,65.22z"/>
	<path class="st0" d="M64.13,64.41v-3.54l3.48-0.58c0.85-0.12,1.38-0.43,1.59-0.96c0.21-0.52,0.32-1.21,0.32-2.06V27.87h-1.45
		c-1.43,0-2.62,0.11-3.57,0.32c-0.95,0.21-1.74,0.63-2.38,1.25c-0.64,0.62-1.22,1.51-1.74,2.67c-0.52,1.16-1.09,2.69-1.71,4.58
		l-4.35-0.99l2.32-11.89h34.51l2.32,11.72l-4.41,0.99c-0.77-2.4-1.47-4.21-2.09-5.45c-0.62-1.24-1.4-2.08-2.35-2.52
		c-0.95-0.44-2.33-0.67-4.15-0.67h-2.38v29.64c0,0.89,0.12,1.54,0.35,1.94s0.77,0.69,1.62,0.84l3.42,0.58v3.54H64.13z"/>
	<path class="st0" d="M94.81,64.41v-3.48l2.73-0.41c0.7-0.15,1.2-0.45,1.51-0.9c0.31-0.44,0.66-1.21,1.04-2.29l12.06-33.52h7.42
		l11.95,33.7c0.31,0.93,0.61,1.62,0.9,2.09c0.29,0.46,0.82,0.77,1.59,0.93l2.32,0.41v3.48h-17.92v-3.48l2.67-0.41
		c0.77-0.12,1.23-0.39,1.36-0.81c0.14-0.42,0.05-1.12-0.26-2.09l-1.8-5.68h-12.88l-1.8,5.45c-0.31,0.93-0.38,1.62-0.2,2.09
		s0.69,0.79,1.54,0.99l2.55,0.46v3.48H94.81z M108.73,48h10.5l-4.93-15.6h-0.23L108.73,48z"/>
	<path class="st0" d="M176.48,65.22c-1.93,0-3.44-0.28-4.52-0.84c-1.08-0.56-1.96-1.4-2.64-2.52c-0.68-1.12-1.38-2.49-2.12-4.12
		l-2.9-6.61c-0.5-1.2-0.97-2.14-1.39-2.81c-0.43-0.68-0.93-1.16-1.51-1.45c-0.58-0.29-1.35-0.44-2.32-0.44
		c-0.23,0-0.5,0.04-0.81,0.12v10.96c0,0.97,0.14,1.66,0.41,2.09c0.27,0.43,0.87,0.7,1.8,0.81l3.13,0.46v3.54h-18.79v-3.54l3.13-0.52
		c0.85-0.15,1.36-0.47,1.54-0.96c0.17-0.48,0.26-1.15,0.26-2V30.6c0-0.89-0.1-1.53-0.29-1.91c-0.19-0.39-0.73-0.66-1.62-0.81
		l-3.02-0.52v-3.54h18.91c2.55,0,4.85,0.3,6.9,0.9c2.05,0.6,3.68,1.62,4.9,3.07c1.22,1.45,1.83,3.47,1.83,6.06
		c0,1.62-0.35,3.04-1.04,4.26c-0.7,1.22-1.59,2.25-2.67,3.1c-1.08,0.85-2.23,1.53-3.45,2.03c-1.22,0.5-2.35,0.85-3.39,1.04v0.17
		c1.82,0.5,3.19,1.24,4.12,2.2c0.93,0.97,1.7,2.19,2.32,3.65l1.97,4.64c0.5,1.12,0.96,2.1,1.36,2.93c0.41,0.83,0.86,1.48,1.36,1.94
		c0.5,0.46,1.12,0.7,1.86,0.7c0.42,0,0.88-0.04,1.36-0.12c0.48-0.08,0.98-0.19,1.48-0.35l0.75,2.73c-0.85,0.77-1.93,1.37-3.25,1.8
		C178.82,65.01,177.6,65.22,176.48,65.22z M159.83,42.6c2.13,0,3.82-0.37,5.08-1.1c1.26-0.73,2.15-1.7,2.7-2.9
		c0.54-1.2,0.81-2.51,0.81-3.94c0-2.47-0.69-4.22-2.06-5.25c-1.37-1.02-3.26-1.54-5.65-1.54h-2.38v14.62
		C158.86,42.56,159.37,42.6,159.83,42.6z"/>
	<path class="st0" d="M238.42,65.22c-1.93,0-3.44-0.28-4.52-0.84c-1.08-0.56-1.96-1.4-2.64-2.52c-0.68-1.12-1.38-2.49-2.12-4.12
		l-2.9-6.61c-0.5-1.2-0.97-2.14-1.39-2.81c-0.43-0.68-0.93-1.16-1.51-1.45c-0.58-0.29-1.35-0.44-2.32-0.44
		c-0.23,0-0.5,0.04-0.81,0.12v10.96c0,0.97,0.14,1.66,0.41,2.09c0.27,0.43,0.87,0.7,1.8,0.81l3.13,0.46v3.54h-18.79v-3.54l3.13-0.52
		c0.85-0.15,1.36-0.47,1.54-0.96c0.17-0.48,0.26-1.15,0.26-2V30.6c0-0.89-0.1-1.53-0.29-1.91c-0.19-0.39-0.73-0.66-1.62-0.81
		l-3.02-0.52v-3.54h18.91c2.55,0,4.85,0.3,6.9,0.9c2.05,0.6,3.68,1.62,4.9,3.07c1.22,1.45,1.83,3.47,1.83,6.06
		c0,1.62-0.35,3.04-1.04,4.26c-0.7,1.22-1.59,2.25-2.67,3.1c-1.08,0.85-2.23,1.53-3.45,2.03c-1.22,0.5-2.35,0.85-3.39,1.04v0.17
		c1.82,0.5,3.19,1.24,4.12,2.2c0.93,0.97,1.7,2.19,2.32,3.65l1.97,4.64c0.5,1.12,0.96,2.1,1.36,2.93c0.41,0.83,0.86,1.48,1.36,1.94
		c0.5,0.46,1.12,0.7,1.86,0.7c0.42,0,0.88-0.04,1.36-0.12c0.48-0.08,0.98-0.19,1.48-0.35l0.75,2.73c-0.85,0.77-1.93,1.37-3.25,1.8
		C240.76,65.01,239.54,65.22,238.42,65.22z M221.77,42.6c2.13,0,3.82-0.37,5.08-1.1c1.26-0.73,2.15-1.7,2.7-2.9
		c0.54-1.2,0.81-2.51,0.81-3.94c0-2.47-0.69-4.22-2.06-5.25c-1.37-1.02-3.26-1.54-5.65-1.54h-2.38v14.62
		C220.81,42.56,221.31,42.6,221.77,42.6z"/>
	<path class="st0" d="M253.38,64.41v-3.48l2.78-0.52c0.73-0.15,1.22-0.42,1.45-0.78c0.23-0.37,0.35-1.09,0.35-2.17V30.54
		c0-1-0.12-1.67-0.35-2c-0.23-0.33-0.75-0.57-1.57-0.73l-2.67-0.52v-3.48h28.71l2.2,9.74l-3.77,0.99c-0.66-1.86-1.32-3.27-2-4.23
		c-0.68-0.97-1.52-1.61-2.52-1.94c-1.01-0.33-2.38-0.49-4.12-0.49h-5.34v13.86h2.96c1.47,0,2.52-0.08,3.16-0.23
		c0.64-0.15,1.1-0.57,1.39-1.25c0.29-0.68,0.57-1.79,0.84-3.33l3.36-0.41v13.51l-3.36,0.58c-0.15-1.43-0.37-2.49-0.64-3.19
		c-0.27-0.7-0.69-1.16-1.25-1.39c-0.56-0.23-1.4-0.35-2.52-0.35h-3.94v14.67h6.84c1.93,0,3.41-0.15,4.44-0.46
		c1.02-0.31,1.82-0.95,2.38-1.91c0.56-0.97,1.09-2.45,1.59-4.47h4l-1.39,10.9H253.38z"/>
	<path class="st0" d="M295.43,64.41v-3.48l3.07-0.52c0.85-0.15,1.36-0.47,1.54-0.96c0.17-0.48,0.26-1.15,0.26-2V30.54
		c0-0.89-0.1-1.53-0.29-1.91c-0.19-0.39-0.73-0.66-1.62-0.81l-2.96-0.52v-3.48h17.34c2.94,0,5.59,0.41,7.95,1.22
		c2.36,0.81,4.22,2.11,5.6,3.89c1.37,1.78,2.06,4.16,2.06,7.13c0,2.44-0.45,4.49-1.33,6.15c-0.89,1.66-2.05,2.99-3.48,3.97
		c-1.43,0.99-2.99,1.69-4.67,2.12c-1.68,0.43-3.32,0.64-4.9,0.64c-1.08,0-2.15-0.04-3.19-0.12s-1.7-0.14-1.97-0.17v9.05
		c0,0.97,0.13,1.66,0.38,2.09c0.25,0.43,0.84,0.7,1.77,0.81l4.06,0.46v3.36H295.43z M311.21,44.87c2.86,0,4.95-0.89,6.26-2.67
		c1.31-1.78,1.97-3.96,1.97-6.55c0-2.4-0.62-4.29-1.86-5.68c-1.24-1.39-3.21-2.09-5.92-2.09h-2.78v16.88
		c0.27,0.04,0.58,0.07,0.93,0.09C310.17,44.86,310.63,44.87,311.21,44.87z"/>
	<path class="st0" d="M356.91,65.22c-4.49,0-8.18-0.9-11.08-2.7c-2.9-1.8-5.06-4.23-6.47-7.31c-1.41-3.07-2.12-6.52-2.12-10.35
		c0-3.83,0.53-7.11,1.6-9.86c1.06-2.75,2.53-5.01,4.41-6.79c1.88-1.78,4.04-3.09,6.5-3.94c2.46-0.85,5.06-1.28,7.8-1.28
		c3.6,0,6.83,0.75,9.72,2.23c2.88,1.49,5.16,3.71,6.84,6.67c1.68,2.96,2.52,6.68,2.52,11.16c0,4.14-0.74,7.88-2.23,11.22
		c-1.49,3.34-3.69,6-6.61,7.97C364.87,64.24,361.24,65.22,356.91,65.22z M357.43,60.35c3.21,0,5.72-1.31,7.54-3.92
		c1.82-2.61,2.73-6.72,2.73-12.33c0-3.25-0.43-6.1-1.28-8.56c-0.85-2.46-2.1-4.36-3.74-5.71c-1.64-1.35-3.66-2.03-6.06-2.03
		c-3.36,0-5.93,1.33-7.68,3.97c-1.76,2.65-2.64,6.62-2.64,11.92c0,3.25,0.4,6.13,1.19,8.64c0.79,2.51,2.01,4.48,3.65,5.89
		C352.78,59.65,354.88,60.35,357.43,60.35z"/>
	<path class="st0" d="M418.63,65.22c-1.93,0-3.44-0.28-4.52-0.84c-1.08-0.56-1.96-1.4-2.64-2.52c-0.68-1.12-1.38-2.49-2.12-4.12
		l-2.9-6.61c-0.5-1.2-0.97-2.14-1.39-2.81c-0.43-0.68-0.93-1.16-1.51-1.45s-1.35-0.44-2.32-0.44c-0.23,0-0.5,0.04-0.81,0.12v10.96
		c0,0.97,0.13,1.66,0.41,2.09c0.27,0.43,0.87,0.7,1.8,0.81l3.13,0.46v3.54h-18.79v-3.54l3.13-0.52c0.85-0.15,1.36-0.47,1.54-0.96
		c0.17-0.48,0.26-1.15,0.26-2V30.6c0-0.89-0.1-1.53-0.29-1.91c-0.19-0.39-0.74-0.66-1.62-0.81l-3.02-0.52v-3.54h18.91
		c2.55,0,4.85,0.3,6.9,0.9c2.05,0.6,3.68,1.62,4.9,3.07c1.22,1.45,1.83,3.47,1.83,6.06c0,1.62-0.35,3.04-1.04,4.26
		c-0.7,1.22-1.59,2.25-2.67,3.1c-1.08,0.85-2.23,1.53-3.45,2.03c-1.22,0.5-2.35,0.85-3.39,1.04v0.17c1.82,0.5,3.19,1.24,4.12,2.2
		c0.93,0.97,1.7,2.19,2.32,3.65l1.97,4.64c0.5,1.12,0.96,2.1,1.36,2.93c0.41,0.83,0.86,1.48,1.36,1.94s1.12,0.7,1.86,0.7
		c0.42,0,0.88-0.04,1.36-0.12c0.48-0.08,0.98-0.19,1.48-0.35l0.75,2.73c-0.85,0.77-1.93,1.37-3.25,1.8S419.75,65.22,418.63,65.22z
		 M401.98,42.6c2.13,0,3.82-0.37,5.08-1.1c1.26-0.73,2.16-1.7,2.7-2.9c0.54-1.2,0.81-2.51,0.81-3.94c0-2.47-0.69-4.22-2.06-5.25
		c-1.37-1.02-3.26-1.54-5.66-1.54h-2.38v14.62C401.01,42.56,401.51,42.6,401.98,42.6z"/>
	<path class="st0" d="M438.58,64.41v-3.54l3.48-0.58c0.85-0.12,1.38-0.43,1.6-0.96c0.21-0.52,0.32-1.21,0.32-2.06V27.87h-1.45
		c-1.43,0-2.62,0.11-3.57,0.32c-0.95,0.21-1.74,0.63-2.38,1.25c-0.64,0.62-1.22,1.51-1.74,2.67c-0.52,1.16-1.09,2.69-1.71,4.58
		l-4.35-0.99l2.32-11.89h34.51l2.32,11.72l-4.41,0.99c-0.77-2.4-1.47-4.21-2.09-5.45c-0.62-1.24-1.4-2.08-2.35-2.52
		c-0.95-0.44-2.33-0.67-4.15-0.67h-2.38v29.64c0,0.89,0.12,1.54,0.35,1.94c0.23,0.41,0.77,0.69,1.62,0.84l3.42,0.58v3.54H438.58z"/>
	<path class="st0" d="M477.26,64.41v-3.48l2.78-0.52c0.73-0.15,1.22-0.42,1.45-0.78c0.23-0.37,0.35-1.09,0.35-2.17V30.54
		c0-1-0.12-1.67-0.35-2c-0.23-0.33-0.75-0.57-1.57-0.73l-2.67-0.52v-3.48h28.71l2.2,9.74l-3.77,0.99c-0.66-1.86-1.33-3.27-2-4.23
		c-0.68-0.97-1.52-1.61-2.52-1.94c-1.01-0.33-2.38-0.49-4.12-0.49h-5.34v13.86h2.96c1.47,0,2.52-0.08,3.16-0.23
		c0.64-0.15,1.1-0.57,1.39-1.25c0.29-0.68,0.57-1.79,0.84-3.33l3.36-0.41v13.51l-3.36,0.58c-0.16-1.43-0.37-2.49-0.64-3.19
		c-0.27-0.7-0.69-1.16-1.25-1.39c-0.56-0.23-1.4-0.35-2.52-0.35h-3.94v14.67h6.84c1.93,0,3.41-0.15,4.44-0.46
		c1.02-0.31,1.82-0.95,2.38-1.91c0.56-0.97,1.09-2.45,1.6-4.47h4l-1.39,10.9H477.26z"/>
	<path class="st0" d="M550.92,65.22c-1.93,0-3.44-0.28-4.52-0.84c-1.08-0.56-1.96-1.4-2.64-2.52c-0.68-1.12-1.38-2.49-2.12-4.12
		l-2.9-6.61c-0.5-1.2-0.97-2.14-1.39-2.81c-0.43-0.68-0.93-1.16-1.51-1.45s-1.35-0.44-2.32-0.44c-0.23,0-0.5,0.04-0.81,0.12v10.96
		c0,0.97,0.13,1.66,0.41,2.09c0.27,0.43,0.87,0.7,1.8,0.81l3.13,0.46v3.54h-18.79v-3.54l3.13-0.52c0.85-0.15,1.36-0.47,1.54-0.96
		c0.17-0.48,0.26-1.15,0.26-2V30.6c0-0.89-0.1-1.53-0.29-1.91c-0.19-0.39-0.74-0.66-1.62-0.81l-3.02-0.52v-3.54h18.91
		c2.55,0,4.85,0.3,6.9,0.9c2.05,0.6,3.68,1.62,4.9,3.07c1.22,1.45,1.83,3.47,1.83,6.06c0,1.62-0.35,3.04-1.04,4.26
		c-0.7,1.22-1.59,2.25-2.67,3.1c-1.08,0.85-2.23,1.53-3.45,2.03c-1.22,0.5-2.35,0.85-3.39,1.04v0.17c1.82,0.5,3.19,1.24,4.12,2.2
		c0.93,0.97,1.7,2.19,2.32,3.65l1.97,4.64c0.5,1.12,0.96,2.1,1.36,2.93c0.41,0.83,0.86,1.48,1.36,1.94s1.12,0.7,1.86,0.7
		c0.42,0,0.88-0.04,1.36-0.12c0.48-0.08,0.98-0.19,1.48-0.35l0.75,2.73c-0.85,0.77-1.93,1.37-3.25,1.8S552.04,65.22,550.92,65.22z
		 M534.28,42.6c2.13,0,3.82-0.37,5.08-1.1c1.26-0.73,2.16-1.7,2.7-2.9c0.54-1.2,0.81-2.51,0.81-3.94c0-2.47-0.69-4.22-2.06-5.25
		c-1.37-1.02-3.26-1.54-5.66-1.54h-2.38v14.62C533.31,42.56,533.81,42.6,534.28,42.6z"/>
</g>
</svg>
